<svg width="16" height="16" viewBox="0 0 16 16" fill="none" xmlns="http://www.w3.org/2000/svg">
<path d="M10.6667 1.33333H5.33333C4.97971 1.33333 4.64057 1.4738 4.39052 1.72385C4.14048 1.9739 4 2.31304 4 2.66666V13.3333C4 13.687 4.14048 14.0261 4.39052 14.2761C4.64057 14.5262 4.97971 14.6667 5.33333 14.6667H10.6667C11.0203 14.6667 11.3594 14.5262 11.6095 14.2761C11.8595 14.0261 12 13.687 12 13.3333V2.66666C12 2.31304 11.8595 1.9739 11.6095 1.72385C11.3594 1.4738 11.0203 1.33333 10.6667 1.33333ZM10.6667 2.66666V11.3333H5.33333V2.66666H10.6667ZM5.33333 13.3333V12.6667H10.6667V13.3333H5.33333Z" fill="currentColor"/>
</svg>
