<svg width="16" height="16" viewBox="0 0 16 16" fill="none" xmlns="http://www.w3.org/2000/svg">
<path d="M12.0001 4V1.33334H4.66675C4.13631 1.33334 3.62761 1.54405 3.25253 1.91912C2.87746 2.2942 2.66675 2.8029 2.66675 3.33334V13.3333C2.66675 13.687 2.80722 14.0261 3.05727 14.2761C3.30732 14.5262 3.64646 14.6667 4.00008 14.6667H12.6667V4H12.0001ZM4.66675 2.66667H10.6667V4H4.66675C4.48994 4 4.32037 3.92976 4.19534 3.80474C4.07032 3.67972 4.00008 3.51015 4.00008 3.33334C4.00008 3.15653 4.07032 2.98696 4.19534 2.86193C4.32037 2.73691 4.48994 2.66667 4.66675 2.66667ZM11.3334 13.3333H4.00008V5.21067C4.21359 5.28963 4.43912 5.33113 4.66675 5.33334H11.3334V13.3333Z" fill="currentColor"/>
<path d="M4.66675 2.66667H10.6667V4H4.66675C4.48994 4 4.32037 3.92976 4.19534 3.80474C4.07032 3.67972 4.00008 3.51015 4.00008 3.33334C4.00008 3.15653 4.07032 2.98696 4.19534 2.86193C4.32037 2.73691 4.48994 2.66667 4.66675 2.66667Z" fill="#FAFBFC"/>
<path d="M11.3334 13.3333H4.00008V5.21067C4.21359 5.28963 4.43912 5.33113 4.66675 5.33334H11.3334V13.3333Z" fill="currentColor"/>
<path d="M10.0002 6.66667H5.3335V8.00001H10.0002V6.66667Z" fill="white"/>
<path d="M9.33333 8.66667H6V10H9.33333V8.66667Z" fill="white"/>
</svg>
