<svg width="16" height="16" viewBox="0 0 16 16" fill="none" xmlns="http://www.w3.org/2000/svg">
<path d="M2 2V14H14V2H2ZM3.33333 3.33333H12.6667V9.05733L10 6.39067L3.724 12.6667H3.33333V3.33333ZM5.60933 12.6667L10 8.276L12.6667 10.9427V12.6667H5.60933Z" fill="currentColor"/>
<path d="M6 8C6.39556 8 6.78224 7.8827 7.11114 7.66294C7.44004 7.44318 7.69638 7.13082 7.84776 6.76537C7.99913 6.39992 8.03874 5.99778 7.96157 5.60982C7.8844 5.22186 7.69392 4.86549 7.41421 4.58579C7.13451 4.30608 6.77814 4.1156 6.39018 4.03843C6.00222 3.96126 5.60008 4.00087 5.23463 4.15224C4.86918 4.30362 4.55682 4.55996 4.33706 4.88886C4.1173 5.21776 4 5.60444 4 6C4 6.53043 4.21071 7.03914 4.58579 7.41421C4.96086 7.78929 5.46957 8 6 8ZM6 5.33333C6.13185 5.33333 6.26075 5.37243 6.37038 5.44569C6.48001 5.51894 6.56546 5.62306 6.61592 5.74488C6.66638 5.8667 6.67958 6.00074 6.65386 6.13006C6.62813 6.25938 6.56464 6.37817 6.4714 6.47141C6.37817 6.56464 6.25938 6.62813 6.13006 6.65386C6.00074 6.67958 5.86669 6.66638 5.74488 6.61592C5.62306 6.56546 5.51894 6.48001 5.44569 6.37038C5.37243 6.26075 5.33333 6.13186 5.33333 6C5.33333 5.82319 5.40357 5.65362 5.5286 5.5286C5.65362 5.40357 5.82319 5.33333 6 5.33333Z" fill="currentColor"/>
</svg>
