<svg width="16" height="16" viewBox="0 0 16 16" fill="none" xmlns="http://www.w3.org/2000/svg">
<path d="M11.3333 2.66668V1.33334H10V2.66668H6V1.33334H4.66667V2.66668H2V14H14V2.66668H11.3333ZM4.66667 4.00001V5.33334H6V4.00001H10V5.33334H11.3333V4.00001H12.6667V6.66668H3.33333V4.00001H4.66667ZM3.33333 12.6667V8.00001H12.6667V12.6667H3.33333Z" fill="currentColor"/>
<path d="M4.66667 4.00001V5.33334H6V4.00001H10V5.33334H11.3333V4.00001H12.6667V6.66668H3.33333V4.00001H4.66667Z" fill="currentColor"/>
<path d="M3.33333 12.6667V8.00001H12.6667V12.6667H3.33333Z" fill="currentColor"/>
<rect width="9.33333" height="1.33333" transform="matrix(1 0 0 -1 3.33325 6.66666)" fill="white"/>
</svg>
