<svg width="16" height="16" viewBox="0 0 16 16" fill="none" xmlns="http://www.w3.org/2000/svg">
<path d="M12.6667 1.33334H3.33337V7.07868L5.17604 8.00001L3.33337 8.92134V14.6667H12.6667V8.92134L10.824 8.00001L12.6667 7.07868V1.33334ZM11.3334 9.74534V13.3333H4.66671V9.74534L8.00004 8.07868L11.3334 9.74534ZM11.3334 6.25468L8.00004 7.92134L4.66671 6.25468V2.66668H11.3334V6.25468Z" fill="currentColor"/>
<path d="M11.3334 6.25468L8.00004 7.92134L4.66671 6.25468V2.66668H11.3334V6.25468Z" fill="currentColor"/>
<path d="M11.3334 9.74534V13.3333H4.66671V9.74534L8.00004 8.07868L11.3334 9.74534Z" fill="currentColor"/>
<path d="M10.6667 11.3333H5.33337V12.6667H10.6667V11.3333Z" fill="white"/>
</svg>
