<svg width="16" height="16" viewBox="0 0 16 16" fill="none" xmlns="http://www.w3.org/2000/svg">
<path d="M8 7.33333H9.33333V5.33333H11.3333V4H9.33333V2H8V4H6V5.33333H8V7.33333Z" fill="currentColor"/>
<path d="M11.3333 10.6667H5.59133L5.814 10H12.5027L13.9747 4.85L12.692 4.48333L11.4973 8.66667H5.82933L3.82933 2H2V3.33333H2.83733L4.634 9.32267L4.162 10.7393C3.304 10.964 2.66667 11.7393 2.66667 12.6667C2.66667 13.7693 3.564 14.6667 4.66667 14.6667C5.76933 14.6667 6.66667 13.7693 6.66667 12.6667C6.66667 12.432 6.61867 12.2093 6.544 12H9.45667C9.38133 12.2093 9.33333 12.432 9.33333 12.6667C9.33333 13.7693 10.2307 14.6667 11.3333 14.6667C12.436 14.6667 13.3333 13.7693 13.3333 12.6667C13.3333 11.564 12.436 10.6667 11.3333 10.6667ZM5.33333 12.6667C5.33333 13.034 5.034 13.3333 4.66667 13.3333C4.29933 13.3333 4 13.034 4 12.6667C4 12.2993 4.29933 12 4.66667 12C5.034 12 5.33333 12.2993 5.33333 12.6667ZM11.3333 13.3333C10.9653 13.3333 10.6667 13.034 10.6667 12.6667C10.6667 12.2993 10.9653 12 11.3333 12C11.7013 12 12 12.2993 12 12.6667C12 13.034 11.7013 13.3333 11.3333 13.3333Z" fill="currentColor"/>
</svg>
