<svg width="16" height="16" viewBox="0 0 16 16" fill="none" xmlns="http://www.w3.org/2000/svg">
<path d="M12.6667 8V5.33333C12.6657 4.4496 12.3141 3.60237 11.6892 2.97748C11.0643 2.35259 10.2171 2.00106 9.33337 2H6.66671C5.78298 2.00106 4.93575 2.35259 4.31085 2.97748C3.68596 3.60237 3.33443 4.4496 3.33337 5.33333V8C2.80294 8 2.29423 8.21071 1.91916 8.58579C1.54409 8.96086 1.33337 9.46957 1.33337 10V12C1.33337 12.5304 1.54409 13.0391 1.91916 13.4142C2.29423 13.7893 2.80294 14 3.33337 14H6.00004V8H4.66671V5.33333C4.66671 4.8029 4.87742 4.29419 5.25249 3.91912C5.62757 3.54405 6.13627 3.33333 6.66671 3.33333H9.33337C9.86381 3.33333 10.3725 3.54405 10.7476 3.91912C11.1227 4.29419 11.3334 4.8029 11.3334 5.33333V8H10V14H12.6667C13.1971 14 13.7058 13.7893 14.0809 13.4142C14.456 13.0391 14.6667 12.5304 14.6667 12V10C14.6667 9.46957 14.456 8.96086 14.0809 8.58579C13.7058 8.21071 13.1971 8 12.6667 8ZM4.66671 12.6667H3.33337C3.15656 12.6667 2.98699 12.5964 2.86197 12.4714C2.73695 12.3464 2.66671 12.1768 2.66671 12V10C2.66671 9.82319 2.73695 9.65362 2.86197 9.5286C2.98699 9.40357 3.15656 9.33333 3.33337 9.33333H4.66671V12.6667ZM13.3334 12C13.3334 12.1768 13.2631 12.3464 13.1381 12.4714C13.0131 12.5964 12.8435 12.6667 12.6667 12.6667H11.3334V9.33333H12.6667C12.8435 9.33333 13.0131 9.40357 13.1381 9.5286C13.2631 9.65362 13.3334 9.82319 13.3334 10V12Z" fill="currentColor"/>
<path d="M4.66671 12.6667H3.33337C3.15656 12.6667 2.98699 12.5964 2.86197 12.4714C2.73695 12.3464 2.66671 12.1768 2.66671 12V10C2.66671 9.82319 2.73695 9.65362 2.86197 9.5286C2.98699 9.40357 3.15656 9.33333 3.33337 9.33333H4.66671V12.6667Z" fill="currentColor"/>
<path d="M13.3334 12C13.3334 12.1768 13.2631 12.3464 13.1381 12.4714C13.0131 12.5964 12.8435 12.6667 12.6667 12.6667H11.3334V9.33333H12.6667C12.8435 9.33333 13.0131 9.40357 13.1381 9.5286C13.2631 9.65362 13.3334 9.82319 13.3334 10V12Z" fill="currentColor"/>
</svg>
