<svg width="16" height="16" viewBox="0 0 16 16" fill="none" xmlns="http://www.w3.org/2000/svg">
<path d="M10.6667 5.01534V4.66667C10.6667 4.31305 10.5262 3.97391 10.2762 3.72386C10.0261 3.47381 9.687 3.33334 9.33337 3.33334H2.66671C2.31309 3.33334 1.97395 3.47381 1.7239 3.72386C1.47385 3.97391 1.33337 4.31305 1.33337 4.66667V11.3333C1.33337 11.687 1.47385 12.0261 1.7239 12.2761C1.97395 12.5262 2.31309 12.6667 2.66671 12.6667H9.33337C9.687 12.6667 10.0261 12.5262 10.2762 12.2761C10.5262 12.0261 10.6667 11.687 10.6667 11.3333V10.9847L14 12.318V3.682L10.6667 5.01534ZM12.6667 10.3487L9.33337 9.01534V11.3333H2.66671V4.66667H9.33337V6.98467L12.6667 5.65134V10.3487Z" fill="currentColor"/>
<path d="M12.6667 10.3487L9.33337 9.01534V11.3333H2.66671V4.66667H9.33337V6.98467L12.6667 5.65134V10.3487Z" fill="currentColor"/>
<path d="M4.66671 5.33334H3.33337V6.66667H4.66671V5.33334Z" fill="white"/>
</svg>
