<svg width="16" height="16" viewBox="0 0 16 16" fill="none" xmlns="http://www.w3.org/2000/svg">
<path d="M12.6666 8V5.33333C12.6655 4.4496 12.314 3.60237 11.6891 2.97748C11.0642 2.35259 10.217 2.00106 9.33325 2H6.66659C5.78286 2.00106 4.93562 2.35259 4.31073 2.97748C3.68584 3.60237 3.33431 4.4496 3.33325 5.33333V8C2.80282 8 2.29411 8.21071 1.91904 8.58579C1.54397 8.96086 1.33325 9.46957 1.33325 10V12C1.33325 12.5304 1.54397 13.0391 1.91904 13.4142C2.29411 13.7893 2.80282 14 3.33325 14H5.99992V8H4.66659V5.33333C4.66659 4.8029 4.8773 4.29419 5.25237 3.91912C5.62744 3.54405 6.13615 3.33333 6.66659 3.33333H9.33325C9.86369 3.33333 10.3724 3.54405 10.7475 3.91912C11.1225 4.29419 11.3333 4.8029 11.3333 5.33333V8H9.99992V14H12.6666C13.197 14 13.7057 13.7893 14.0808 13.4142C14.4559 13.0391 14.6666 12.5304 14.6666 12V10C14.6666 9.46957 14.4559 8.96086 14.0808 8.58579C13.7057 8.21071 13.197 8 12.6666 8ZM4.66659 12.6667H3.33325C3.15644 12.6667 2.98687 12.5964 2.86185 12.4714C2.73682 12.3464 2.66659 12.1768 2.66659 12V10C2.66659 9.82319 2.73682 9.65362 2.86185 9.5286C2.98687 9.40357 3.15644 9.33333 3.33325 9.33333H4.66659V12.6667ZM13.3333 12C13.3333 12.1768 13.263 12.3464 13.138 12.4714C13.013 12.5964 12.8434 12.6667 12.6666 12.6667H11.3333V9.33333H12.6666C12.8434 9.33333 13.013 9.40357 13.138 9.5286C13.263 9.65362 13.3333 9.82319 13.3333 10V12Z" fill="currentColor"/>
</svg>
