<svg width="16" height="16" viewBox="0 0 16 16" fill="none" xmlns="http://www.w3.org/2000/svg">
<path d="M7.99992 1.33334C4.32392 1.33334 1.33325 4.32401 1.33325 8.00001C1.33325 11.676 4.32392 14.6667 7.99992 14.6667C11.6759 14.6667 14.6666 11.676 14.6666 8.00001C14.6666 4.32401 11.6759 1.33334 7.99992 1.33334ZM4.84059 12.2867C5.28325 10.938 6.53725 10 7.99992 10C9.46259 10 10.7166 10.938 11.1593 12.2867C10.2739 12.9413 9.18325 13.3333 7.99992 13.3333C6.81659 13.3333 5.72592 12.9413 4.84059 12.2867ZM6.33325 7.00001C6.33325 6.08134 7.08125 5.33334 7.99992 5.33334C8.91859 5.33334 9.66659 6.08134 9.66659 7.00001C9.66659 7.91868 8.91859 8.66668 7.99992 8.66668C7.08125 8.66668 6.33325 7.91868 6.33325 7.00001ZM12.1933 11.284C11.7406 10.3533 10.9939 9.60734 10.0793 9.15401C10.6446 8.60801 10.9999 7.84601 10.9999 7.00001C10.9999 5.34601 9.65392 4.00001 7.99992 4.00001C6.34592 4.00001 4.99992 5.34601 4.99992 7.00001C4.99992 7.84601 5.35525 8.60801 5.92059 9.15401C5.00592 9.60734 4.25925 10.3527 3.80659 11.284C3.09525 10.3773 2.66659 9.23868 2.66659 8.00001C2.66659 5.05934 5.05925 2.66668 7.99992 2.66668C10.9406 2.66668 13.3333 5.05934 13.3333 8.00001C13.3333 9.23868 12.9046 10.3773 12.1933 11.284Z" fill="currentColor"/>
</svg>
