<svg width="16" height="16" viewBox="0 0 16 16" fill="none" xmlns="http://www.w3.org/2000/svg">
<path d="M8.00008 12C5.05941 12 2.66675 9.60733 2.66675 6.66667C2.66675 3.726 5.05941 1.33333 8.00008 1.33333C10.9407 1.33333 13.3334 3.726 13.3334 6.66667C13.3334 9.60733 10.9407 12 8.00008 12ZM8.00008 2.66667C5.79408 2.66667 4.00008 4.46067 4.00008 6.66667C4.00008 8.87267 5.79408 10.6667 8.00008 10.6667C10.2061 10.6667 12.0001 8.87267 12.0001 6.66667C12.0001 4.46067 10.2061 2.66667 8.00008 2.66667Z" fill="currentColor"/>
<path d="M4.98011 15.1373L3.50878 12.742L0.894775 11.7087L3.48944 8.61667L4.51078 9.47334L3.10544 11.1487L4.41278 11.6653L5.14811 12.8627L6.79144 10.9047L7.81277 11.762L4.98011 15.1373Z" fill="currentColor"/>
<path d="M11.1706 15.1373L8.00464 11.364L9.02664 10.5073L11.0026 12.8627L11.7386 11.6653L13.046 11.1487L11.4893 9.294L12.5106 8.43667L15.256 11.7087L12.642 12.742L11.1706 15.1373Z" fill="currentColor"/>
<path d="M8 9.33333C7.632 9.33333 7.33334 9.03467 7.33334 8.66667V6C7.16267 6 6.992 5.93467 6.862 5.80467C6.60134 5.544 6.60134 5.12267 6.862 4.862L7.52867 4.19533C7.71934 4.00467 8.00534 3.94733 8.25534 4.05067C8.504 4.154 8.66667 4.39733 8.66667 4.66667V8.66667C8.66667 9.03467 8.368 9.33333 8 9.33333Z" fill="currentColor"/>
<path d="M9.33341 8H6.66675V9.33333H9.33341V8Z" fill="currentColor"/>
</svg>
