<svg width="16" height="16" viewBox="0 0 16 16" fill="none" xmlns="http://www.w3.org/2000/svg">
<path d="M14.6667 7.33333H14V2H4C3.46957 2 2.96086 2.21071 2.58579 2.58579C2.21071 2.96086 2 3.46957 2 4V12C2 12.5304 2.21071 13.0391 2.58579 13.4142C2.96086 13.7893 3.46957 14 4 14H14V10.6667H14.6667V7.33333ZM4 3.33333H12.6667V4.66667H4C3.82319 4.66667 3.65362 4.59643 3.5286 4.4714C3.40357 4.34638 3.33333 4.17681 3.33333 4C3.33333 3.82319 3.40357 3.65362 3.5286 3.5286C3.65362 3.40357 3.82319 3.33333 4 3.33333ZM12.6667 12.6667H4C3.82319 12.6667 3.65362 12.5964 3.5286 12.4714C3.40357 12.3464 3.33333 12.1768 3.33333 12V5.87733C3.54684 5.95629 3.77237 5.99779 4 6H12.6667V7.33333H11.3333C10.9797 7.33333 10.6406 7.47381 10.3905 7.72386C10.1405 7.97391 10 8.31305 10 8.66667V9.33333C10 9.68696 10.1405 10.0261 10.3905 10.2761C10.6406 10.5262 10.9797 10.6667 11.3333 10.6667H12.6667V12.6667ZM13.3333 9.33333H11.3333V8.66667H13.3333V9.33333Z" fill="currentColor"/>
</svg>
