<svg width="16" height="16" viewBox="0 0 16 16" fill="none" xmlns="http://www.w3.org/2000/svg">
<path d="M14.0001 1.942L4.66675 2.72V10.8773C4.23679 10.7348 3.78638 10.6636 3.33341 10.6667C1.78808 10.6667 0.666748 11.3673 0.666748 12.3333C0.666748 13.2993 1.78808 14 3.33341 14C4.87875 14 6.00008 13.2993 6.00008 12.3333C5.99952 12.2205 5.98314 12.1083 5.95141 12H6.00008V6.61333L12.6667 6.058V10.2107C12.2368 10.0681 11.7864 9.99693 11.3334 10C9.78808 10 8.66675 10.7007 8.66675 11.6667C8.66675 12.6327 9.78808 13.3333 11.3334 13.3333C12.8787 13.3333 14.0001 12.6327 14.0001 11.6667C13.9995 11.5538 13.9831 11.4416 13.9514 11.3333H14.0001V1.942ZM3.33341 12.6667C2.87777 12.6942 2.42502 12.5776 2.03941 12.3333C2.42502 12.089 2.87777 11.9724 3.33341 12C3.78905 11.9724 4.24181 12.089 4.62741 12.3333C4.24181 12.5776 3.78905 12.6942 3.33341 12.6667ZM6.00008 5.27533V3.94667L12.6667 3.39133V4.72L6.00008 5.27533ZM11.3334 12C10.8778 12.0276 10.425 11.911 10.0394 11.6667C10.425 11.4224 10.8778 11.3058 11.3334 11.3333C11.7891 11.3058 12.2418 11.4224 12.6274 11.6667C12.2418 11.911 11.7891 12.0276 11.3334 12Z" fill="currentColor"/>
</svg>
