<svg width="16" height="16" viewBox="0 0 16 16" fill="none" xmlns="http://www.w3.org/2000/svg">
<path d="M12.6667 7.05734L10 9.72401V8.00001H3.72404L1.33337 10.3907V14.6667H10.9427L15.6094 10L12.6667 7.05734ZM10.3907 13.3333H2.66671V10.9427L4.27604 9.33334H8.66671V10.6667H6.00004V12H9.60938L12.6667 8.94268L13.724 10L10.3907 13.3333Z" fill="currentColor"/>
<path d="M10.3907 13.3333H2.66671V10.9427L4.27604 9.33334H8.66671V10.6667H6.00004V12H9.60938L12.6667 8.94268L13.724 10L10.3907 13.3333Z" fill="currentColor"/>
<path d="M8.00004 6.66668C8.52746 6.66668 9.04303 6.51028 9.48156 6.21726C9.92009 5.92425 10.2619 5.50777 10.4637 5.0205C10.6656 4.53323 10.7184 3.99705 10.6155 3.47977C10.5126 2.96249 10.2586 2.48733 9.88566 2.11439C9.51272 1.74145 9.03756 1.48748 8.52028 1.38458C8.003 1.28169 7.46682 1.3345 6.97955 1.53633C6.49228 1.73817 6.07581 2.07996 5.78279 2.51849C5.48977 2.95702 5.33337 3.47259 5.33337 4.00001C5.33337 4.70726 5.61433 5.38553 6.11442 5.88563C6.61452 6.38573 7.2928 6.66668 8.00004 6.66668ZM8.00004 2.66668C8.26375 2.66668 8.52154 2.74488 8.7408 2.89139C8.96007 3.03789 9.13096 3.24613 9.23188 3.48977C9.3328 3.7334 9.3592 4.00149 9.30775 4.26013C9.25631 4.51877 9.12932 4.75635 8.94285 4.94282C8.75638 5.12929 8.5188 5.25628 8.26016 5.30773C8.00152 5.35917 7.73343 5.33277 7.4898 5.23185C7.24616 5.13093 7.03792 4.96004 6.89141 4.74077C6.74491 4.52151 6.66671 4.26372 6.66671 4.00001C6.66671 3.64639 6.80718 3.30725 7.05723 3.0572C7.30728 2.80715 7.64642 2.66668 8.00004 2.66668Z" fill="currentColor"/>
<path d="M8.00004 2.66668C8.26375 2.66668 8.52154 2.74488 8.7408 2.89139C8.96007 3.03789 9.13096 3.24613 9.23188 3.48977C9.3328 3.7334 9.3592 4.00149 9.30775 4.26013C9.25631 4.51877 9.12932 4.75635 8.94285 4.94282C8.75638 5.12929 8.5188 5.25628 8.26016 5.30773C8.00152 5.35917 7.73343 5.33277 7.4898 5.23185C7.24616 5.13093 7.03792 4.96004 6.89141 4.74077C6.74491 4.52151 6.66671 4.26372 6.66671 4.00001C6.66671 3.64639 6.80718 3.30725 7.05723 3.0572C7.30728 2.80715 7.64642 2.66668 8.00004 2.66668Z" fill="currentColor"/>
</svg>
