<svg width="16" height="16" viewBox="0 0 16 16" fill="none" xmlns="http://www.w3.org/2000/svg">
<path d="M14 12.6667H2V9.33333H2.66667C3.402 9.33333 4 8.73533 4 8C4 7.26467 3.402 6.66667 2.66667 6.66667H2V3.33333H14V6.66667H13.3333C12.598 6.66667 12 7.26467 12 8C12 8.73533 12.598 9.33333 13.3333 9.33333H14V12.6667ZM3.33333 11.3333H12.6667V10.5827C11.518 10.286 10.6667 9.24067 10.6667 8C10.6667 6.75933 11.518 5.71467 12.6667 5.41733V4.66667H3.33333V5.41733C4.482 5.71467 5.33333 6.76 5.33333 8C5.33333 9.24 4.482 10.2853 3.33333 10.5827V11.3333Z" fill="currentColor"/>
<path d="M6.66659 10C6.49592 10 6.32526 9.93467 6.19526 9.80467C5.93459 9.544 5.93459 9.12267 6.19526 8.862L8.86192 6.19533C9.12259 5.93467 9.54392 5.93467 9.80459 6.19533C10.0653 6.456 10.0653 6.87733 9.80459 7.138L7.13792 9.80467C7.00792 9.93467 6.83726 10 6.66659 10Z" fill="currentColor"/>
<path d="M6.66667 7.33333C7.03486 7.33333 7.33333 7.03486 7.33333 6.66667C7.33333 6.29848 7.03486 6 6.66667 6C6.29848 6 6 6.29848 6 6.66667C6 7.03486 6.29848 7.33333 6.66667 7.33333Z" fill="currentColor"/>
<path d="M9.33341 10C9.7016 10 10.0001 9.70152 10.0001 9.33333C10.0001 8.96514 9.7016 8.66667 9.33341 8.66667C8.96522 8.66667 8.66675 8.96514 8.66675 9.33333C8.66675 9.70152 8.96522 10 9.33341 10Z" fill="currentColor"/>
</svg>
