<svg width="16" height="16" viewBox="0 0 16 16" fill="none" xmlns="http://www.w3.org/2000/svg">
<path d="M13.9999 2.37133L7.87925 4.66667H3.33325C2.80282 4.66667 2.29411 4.87738 1.91904 5.25245C1.54397 5.62753 1.33325 6.13623 1.33325 6.66667V8C1.33325 8.53043 1.54397 9.03914 1.91904 9.41421C2.29411 9.78929 2.80282 10 3.33325 10H4.66659V12.6667C4.66659 13.0203 4.80706 13.3594 5.05711 13.6095C5.30716 13.8595 5.6463 14 5.99992 14H6.66659C7.02021 14 7.35935 13.8595 7.60939 13.6095C7.85944 13.3594 7.99992 13.0203 7.99992 12.6667V10.0453L13.9999 12.2953V2.37133ZM3.99992 8.66667H3.33325C3.15644 8.66667 2.98687 8.59643 2.86185 8.47141C2.73682 8.34638 2.66659 8.17681 2.66659 8V6.66667C2.66659 6.48986 2.73682 6.32029 2.86185 6.19526C2.98687 6.07024 3.15644 6 3.33325 6H3.99992V8.66667ZM5.33325 6H7.33325V8.66667H5.33325V6ZM5.99992 12.6667V10H6.66659V12.6667H5.99992ZM12.6666 10.3713L8.66659 8.87133V5.79533L12.6666 4.29533V10.3713Z" fill="currentColor"/>
</svg>
