<svg width="16" height="16" viewBox="0 0 16 16" fill="none" xmlns="http://www.w3.org/2000/svg">
<path d="M12.714 3.28598C11.7817 2.35362 10.5938 1.71867 9.30057 1.46142C8.00736 1.20418 6.66691 1.33619 5.44873 1.84077C4.23054 2.34535 3.18935 3.19984 2.4568 4.29617C1.72425 5.3925 1.33325 6.68144 1.33325 7.99998C1.33325 9.31853 1.72425 10.6075 2.4568 11.7038C3.18935 12.8001 4.23054 13.6546 5.44873 14.1592C6.66691 14.6638 8.00736 14.7958 9.30057 14.5385C10.5938 14.2813 11.7817 13.6463 12.714 12.714C13.9624 11.4628 14.6636 9.76748 14.6636 7.99998C14.6636 6.23249 13.9624 4.53717 12.714 3.28598ZM11.7713 11.7713C11.0255 12.5172 10.0751 13.0251 9.04058 13.2309C8.00603 13.4366 6.93368 13.331 5.95916 12.9273C4.98464 12.5236 4.1517 11.8401 3.56568 10.963C2.97966 10.0859 2.66687 9.0548 2.66687 7.99998C2.66687 6.94516 2.97966 5.91403 3.56568 5.03697C4.1517 4.15991 4.98464 3.47633 5.95916 3.07265C6.93368 2.66898 8.00603 2.56334 9.04058 2.76911C10.0751 2.97487 11.0255 3.4828 11.7713 4.22865C12.77 5.22972 13.3308 6.58599 13.3308 7.99998C13.3308 9.41398 12.77 10.7702 11.7713 11.7713Z" fill="currentColor"/>
<path d="M5.9999 6.66665H8.39056L5.52856 9.52865L6.47123 10.4713L9.33323 7.60931V9.99998H10.6666V5.33331H5.9999V6.66665Z" fill="currentColor"/>
</svg>
