<svg width="16" height="16" viewBox="0 0 16 16" fill="none" xmlns="http://www.w3.org/2000/svg">
<circle cx="8.00004" cy="8.00001" r="6.66667" fill="currentColor"/>
<path d="M13.3334 8.00001C13.3334 9.05484 13.0206 10.086 12.4345 10.9631C11.8485 11.8401 11.0156 12.5237 10.041 12.9274C9.06648 13.331 7.99413 13.4367 6.95956 13.2309C5.925 13.0251 4.97469 12.5171 4.22881 11.7712C3.48293 11.0254 2.97498 10.0751 2.76919 9.04049C2.5634 8.00593 2.66902 6.93357 3.07269 5.95903C3.47635 4.98449 4.15994 4.15154 5.037 3.56551C5.91406 2.97947 6.94521 2.66668 8.00004 2.66668V1.33334C6.6815 1.33334 5.39257 1.72434 4.29624 2.45688C3.19991 3.18942 2.34543 4.23061 1.84085 5.44879C1.33626 6.66696 1.20424 8.00741 1.46148 9.30061C1.71871 10.5938 2.35365 11.7817 3.286 12.7141C4.21835 13.6464 5.40624 14.2813 6.69944 14.5386C7.99265 14.7958 9.33309 14.6638 10.5513 14.1592C11.7694 13.6546 12.8106 12.8001 13.5432 11.7038C14.2757 10.6075 14.6667 9.31855 14.6667 8.00001H13.3334Z" fill="currentColor"/>
<path d="M7.33337 4V8.276L10.1954 11.138L11.138 10.1953L8.66671 7.724V4H7.33337Z" fill="white"/>
<path d="M11.3333 6H12.6667V4.66667H14V3.33333H12.6667V2H11.3333V3.33333H10V4.66667H11.3333V6Z" fill="white"/>
</svg>
