<svg width="16" height="16" viewBox="0 0 16 16" fill="none" xmlns="http://www.w3.org/2000/svg">
<rect x="1.33337" y="2.66666" width="13.3333" height="10.6667" fill="currentColor"/>
<path d="M13.3334 4.66666C13.3334 4.97666 13.3334 4.97666 13.3334 4.97666L8.00008 8.532L2.66675 4.97666C2.66675 4.97666 2.66675 4.97666 2.66675 4.66666C2.66675 4.66666 9.16782 4.66666 13.3334 4.66666ZM2.66675 4.66666V6.57933L8.00008 10.1353L13.3334 6.57933V4.66666C9.16782 4.66666 2.66675 4.66666 2.66675 4.66666Z" fill="white"/>
<path d="M13.3334 4.66666C13.3334 4.97666 13.3334 4.97666 13.3334 4.97666L8.00008 8.532L2.66675 4.97666C2.66675 4.97666 2.66675 4.97666 2.66675 4.66666C2.66675 4.66666 9.16782 4.66666 13.3334 4.66666ZM2.66675 4.66666V6.57933L8.00008 10.1353L13.3334 6.57933V4.66666C9.16782 4.66666 2.66675 4.66666 2.66675 4.66666Z" fill="white"/>
<path d="M14.1954 8.862L11.3334 11.724L9.80473 10.1953L8.86206 11.138L11.3334 13.6093L15.1381 9.80467L14.1954 8.862Z" fill="white"/>
</svg>
