<svg width="16" height="16" viewBox="0 0 16 16" fill="none" xmlns="http://www.w3.org/2000/svg">
<path d="M14.6666 4H12.0333C12.2198 3.74566 12.3087 3.43268 12.2836 3.11823C12.2585 2.80379 12.1211 2.50887 11.8966 2.28733L11.6093 2C11.3592 1.75004 11.0201 1.60962 10.6666 1.60962C10.313 1.60962 9.97396 1.75004 9.72392 2L7.99992 3.724L6.27592 2C6.02588 1.75004 5.6868 1.60962 5.33325 1.60962C4.9797 1.60962 4.64062 1.75004 4.39059 2L4.10325 2.28667C3.87864 2.50831 3.74124 2.80335 3.71615 3.11791C3.69106 3.43246 3.77995 3.74555 3.96659 4H1.33325V8H1.99992V14H13.9999V8H14.6666V4ZM13.3333 6.66667H8.66659V5.33333H13.3333V6.66667ZM10.6666 2.94267L10.9539 3.23L9.79992 4H9.61125L10.6666 2.94267ZM5.04592 3.23L5.33325 2.94267L6.39059 4H6.19992L5.04592 3.23ZM2.66659 5.33333H7.33325V6.66667H2.66659V5.33333ZM3.33325 8H7.33325V12.6667H3.33325V8ZM12.6666 12.6667H8.66659V8H12.6666V12.6667Z" fill="currentColor"/>
</svg>
