<svg width="16" height="16" viewBox="0 0 16 16" fill="none" xmlns="http://www.w3.org/2000/svg">
<path d="M14 12.6667H2V9.33333H2.66667C3.402 9.33333 4 8.73533 4 8C4 7.26467 3.402 6.66667 2.66667 6.66667H2V3.33333H14V12.6667ZM3.33333 11.3333H12.6667V4.66667H3.33333V5.41733C4.482 5.71467 5.33333 6.76 5.33333 8C5.33333 9.24 4.482 10.2853 3.33333 10.5827V11.3333Z" fill="currentColor"/>
<path d="M3.33333 11.3333H12.6667V4.66667H3.33333V5.41733C4.482 5.71467 5.33333 6.76 5.33333 8C5.33333 9.24 4.482 10.2853 3.33333 10.5827V11.3333Z" fill="currentColor"/>
<path d="M9.33329 8.66667H6.66663V10H9.33329V8.66667Z" fill="white"/>
<path d="M11.3333 6H6.66663V7.33333H11.3333V6Z" fill="white"/>
</svg>
