<svg width="16" height="16" viewBox="0 0 16 16" fill="none" xmlns="http://www.w3.org/2000/svg">
<path d="M9.33341 2H6.66675C5.60621 2.00106 4.58941 2.42283 3.83949 3.17274C3.08957 3.92266 2.66781 4.93946 2.66675 6V12C2.66675 12.5304 2.87746 13.0391 3.25253 13.4142C3.62761 13.7893 4.13631 14 4.66675 14C5.19718 14 5.70589 13.7893 6.08096 13.4142C6.45603 13.0391 6.66675 12.5304 6.66675 12V10C6.66675 9.46957 6.45603 8.96086 6.08096 8.58579C5.70589 8.21071 5.19718 8 4.66675 8H4.00008V6C4.00008 5.29276 4.28103 4.61448 4.78113 4.11438C5.28123 3.61428 5.9595 3.33333 6.66675 3.33333H9.33341C10.0407 3.33333 10.7189 3.61428 11.219 4.11438C11.7191 4.61448 12.0001 5.29276 12.0001 6V8H11.3334C10.803 8 10.2943 8.21071 9.9192 8.58579C9.54413 8.96086 9.33341 9.46957 9.33341 10V12C9.33341 12.5304 9.54413 13.0391 9.9192 13.4142C10.2943 13.7893 10.803 14 11.3334 14C11.8638 14 12.3726 13.7893 12.7476 13.4142C13.1227 13.0391 13.3334 12.5304 13.3334 12V6C13.3324 4.93946 12.9106 3.92266 12.1607 3.17274C11.4108 2.42283 10.394 2.00106 9.33341 2ZM5.33341 10V12C5.33341 12.1768 5.26318 12.3464 5.13815 12.4714C5.01313 12.5964 4.84356 12.6667 4.66675 12.6667C4.48994 12.6667 4.32037 12.5964 4.19534 12.4714C4.07032 12.3464 4.00008 12.1768 4.00008 12V9.33333H4.66675C4.84356 9.33333 5.01313 9.40357 5.13815 9.5286C5.26318 9.65362 5.33341 9.82319 5.33341 10ZM12.0001 12C12.0001 12.1768 11.9298 12.3464 11.8048 12.4714C11.6798 12.5964 11.5102 12.6667 11.3334 12.6667C11.1566 12.6667 10.987 12.5964 10.862 12.4714C10.737 12.3464 10.6667 12.1768 10.6667 12V10C10.6667 9.82319 10.737 9.65362 10.862 9.5286C10.987 9.40357 11.1566 9.33333 11.3334 9.33333H12.0001V12Z" fill="currentColor"/>
</svg>
