<svg width="16" height="16" viewBox="0 0 16 16" fill="none" xmlns="http://www.w3.org/2000/svg">
<path d="M11.3333 2.66668V1.33334H10V2.66668H6V1.33334H4.66667V2.66668H2V14H14V2.66668H11.3333ZM12.6667 12.6667H3.33333V4.00001H4.66667V5.33334H6V4.00001H10V5.33334H11.3333V4.00001H12.6667V12.6667Z" fill="currentColor"/>
<path d="M12.6667 12.6667H3.33333V4.00001H4.66667V5.33334H6V4.00001H10V5.33334H11.3333V4.00001H12.6667V12.6667Z" fill="currentColor"/>
<path d="M6.00008 7.33334H4.66675V8.66668H6.00008V7.33334Z" fill="white"/>
<path d="M11.3333 7.33334H10V8.66668H11.3333V7.33334Z" fill="white"/>
<path d="M8.66659 7.33334H7.33325V8.66668H8.66659V7.33334Z" fill="white"/>
<path d="M6.00008 10H4.66675V11.3333H6.00008V10Z" fill="white"/>
<path d="M11.3333 10H10V11.3333H11.3333V10Z" fill="white"/>
<path d="M8.66659 10H7.33325V11.3333H8.66659V10Z" fill="white"/>
</svg>
