<svg width="16" height="16" viewBox="0 0 16 16" fill="none" xmlns="http://www.w3.org/2000/svg">
<path d="M14 4C14 3.46957 13.7893 2.96086 13.4142 2.58579C13.0391 2.21071 12.5304 2 12 2H4C3.46957 2 2.96086 2.21071 2.58579 2.58579C2.21071 2.96086 2 3.46957 2 4V14H11.3333V7.33333H14V4ZM10 12.6667H3.33333V4C3.33333 3.82319 3.40357 3.65362 3.5286 3.5286C3.65362 3.40357 3.82319 3.33333 4 3.33333H10.1227C10.0437 3.54684 10.0022 3.77237 10 4V12.6667ZM12.6667 6H11.3333V4C11.3333 3.82319 11.4036 3.65362 11.5286 3.5286C11.6536 3.40357 11.8232 3.33333 12 3.33333C12.1768 3.33333 12.3464 3.40357 12.4714 3.5286C12.5964 3.65362 12.6667 3.82319 12.6667 4V6Z" fill="currentColor"/>
<path d="M10 12.6667H3.33333V4C3.33333 3.82319 3.40357 3.65362 3.5286 3.5286C3.65362 3.40357 3.82319 3.33333 4 3.33333H10.1227C10.0437 3.54684 10.0022 3.77237 10 4V12.6667Z" fill="currentColor"/>
<path d="M12.6667 6H11.3333V4C11.3333 3.82319 11.4036 3.65362 11.5286 3.5286C11.6536 3.40357 11.8232 3.33333 12 3.33333C12.1768 3.33333 12.3464 3.40357 12.4714 3.5286C12.5964 3.65362 12.6667 3.82319 12.6667 4V6Z" fill="#FAFBFC"/>
<path d="M8.66663 4.66667H4.66663V6H8.66663V4.66667Z" fill="white"/>
<path d="M8.66663 7.33333H4.66663V8.66667H8.66663V7.33333Z" fill="white"/>
<path d="M7.33329 10H4.66663V11.3333H7.33329V10Z" fill="white"/>
</svg>
