<svg width="16" height="16" viewBox="0 0 16 16" fill="none" xmlns="http://www.w3.org/2000/svg">
<path d="M13.3333 2H2.66659C2.31296 2 1.97382 2.14048 1.72378 2.39052C1.47373 2.64057 1.33325 2.97971 1.33325 3.33333V10.6667C1.33325 11.0203 1.47373 11.3594 1.72378 11.6095C1.97382 11.8595 2.31296 12 2.66659 12H5.99992V13.3333H3.99992V14.6667H11.9999V13.3333H9.99992V12H13.3333C13.6869 12 14.026 11.8595 14.2761 11.6095C14.5261 11.3594 14.6666 11.0203 14.6666 10.6667V3.33333C14.6666 2.97971 14.5261 2.64057 14.2761 2.39052C14.026 2.14048 13.6869 2 13.3333 2ZM13.3333 3.33333V8.66667H2.66659V3.33333H13.3333ZM8.66659 12.6667H7.33325V12H8.66659V12.6667ZM9.99992 10.6667H2.66659V10H13.3333V10.6667H9.99992Z" fill="currentColor"/>
<path d="M13.3333 3.33333V8.66667H2.66659V3.33333H13.3333Z" fill="currentColor"/>
</svg>
