<svg width="16" height="16" viewBox="0 0 16 16" fill="none" xmlns="http://www.w3.org/2000/svg">
<path d="M7.99996 12C5.05929 12 2.66663 9.60733 2.66663 6.66667C2.66663 3.726 5.05929 1.33333 7.99996 1.33333C10.9406 1.33333 13.3333 3.726 13.3333 6.66667C13.3333 9.60733 10.9406 12 7.99996 12ZM7.99996 2.66667C5.79396 2.66667 3.99996 4.46067 3.99996 6.66667C3.99996 8.87267 5.79396 10.6667 7.99996 10.6667C10.206 10.6667 12 8.87267 12 6.66667C12 4.46067 10.206 2.66667 7.99996 2.66667Z" fill="currentColor"/>
<path d="M7.99996 2.66667C5.79396 2.66667 3.99996 4.46067 3.99996 6.66667C3.99996 8.87267 5.79396 10.6667 7.99996 10.6667C10.206 10.6667 12 8.87267 12 6.66667C12 4.46067 10.206 2.66667 7.99996 2.66667Z" fill="currentColor"/>
<path d="M4.97999 15.1373L3.50865 12.742L0.894653 11.7087L3.48932 8.61667L4.51065 9.47334L3.10532 11.1487L4.41265 11.6653L5.14799 12.8627L6.79132 10.9047L7.81265 11.762L4.97999 15.1373Z" fill="currentColor"/>
<path d="M11.1706 15.1373L8.00464 11.364L9.02664 10.5073L11.0026 12.8627L11.7386 11.6653L13.046 11.1487L11.4893 9.294L12.5106 8.43666L15.256 11.7087L12.642 12.742L11.1706 15.1373Z" fill="currentColor"/>
<path d="M10.6667 13.3333L9 10.6667L11.3333 8.66666L14 11.3333L12 12L10.6667 13.3333Z" fill="currentColor"/>
<path d="M2 11.3333L4.33333 9L7.33333 10.6667L5 13.6667L3.66667 12L2 11.3333Z" fill="currentColor"/>
<path d="M8 9.33333C7.632 9.33333 7.33334 9.03467 7.33334 8.66667V6C7.16267 6 6.992 5.93467 6.862 5.80467C6.60134 5.544 6.60134 5.12267 6.862 4.862L7.52867 4.19533C7.71934 4.00467 8.00534 3.94733 8.25534 4.05067C8.504 4.154 8.66667 4.39733 8.66667 4.66667V8.66667C8.66667 9.03467 8.368 9.33333 8 9.33333Z" fill="white"/>
<path d="M9.33329 8H6.66663V9.33333H9.33329V8Z" fill="white"/>
</svg>
