<svg width="16" height="16" viewBox="0 0 16 16" fill="none" xmlns="http://www.w3.org/2000/svg">
<path d="M7.99999 1.31732L1.28333 2.80999L1.33333 3.39332C1.40466 4.17666 2.09266 11.0867 4.29399 12.5547C5.39059 13.3 6.5284 13.9829 7.70199 14.6L7.99999 14.7487L8.29799 14.6C9.4706 13.9839 10.6075 13.3021 11.7033 12.558C13.9047 11.0867 14.5927 4.17666 14.6667 3.39332L14.7193 2.80999L7.99999 1.31732ZM2.72333 3.85532L7.33333 2.83132V12.874C6.76466 12.5467 5.97666 12.074 5.03666 11.4453C3.86066 10.6613 3.03133 6.59999 2.72333 3.85532ZM10.9633 11.4453C10.0233 12.072 9.23533 12.5467 8.66666 12.874V2.83132L13.2767 3.85532C12.9687 6.59999 12.1393 10.6613 10.9633 11.4453Z" fill="currentColor"/>
<path d="M2.72333 3.85532L7.33333 2.83132V12.874C6.76466 12.5467 5.97666 12.074 5.03666 11.4453C3.86066 10.6613 3.03133 6.59999 2.72333 3.85532Z" fill="currentColor"/>
<path d="M10.9633 11.4453C10.0233 12.072 9.23533 12.5467 8.66666 12.874V2.83132L13.2767 3.85532C12.9687 6.59999 12.1393 10.6613 10.9633 11.4453Z" fill="currentColor"/>
<path d="M7.33337 2.66668L8.00004 2.33334L8.66671 2.66668V13.3333L8.00004 13.6667L7.33337 13.3333V2.66668Z" fill="white"/>
</svg>
