<svg width="16" height="16" viewBox="0 0 16 16" fill="none" xmlns="http://www.w3.org/2000/svg">
<path d="M14 7.33333H12.6133C12.4686 6.33804 12.0062 5.41613 11.2951 4.70495C10.5839 3.99376 9.66196 3.53138 8.66667 3.38667V2H7.33333V3.38667C6.33804 3.53138 5.41613 3.99376 4.70495 4.70495C3.99376 5.41613 3.53138 6.33804 3.38667 7.33333H2V8.66667H3.38667C3.53138 9.66196 3.99376 10.5839 4.70495 11.2951C5.41613 12.0062 6.33804 12.4686 7.33333 12.6133V14H8.66667V12.6133C9.66196 12.4686 10.5839 12.0062 11.2951 11.2951C12.0062 10.5839 12.4686 9.66196 12.6133 8.66667H14V7.33333ZM8.66667 11.2667V10H7.33333V11.2667C6.69332 11.1347 6.10598 10.8182 5.64391 10.3561C5.18183 9.89402 4.86527 9.30668 4.73333 8.66667H6V7.33333H4.73333C4.86527 6.69332 5.18183 6.10598 5.64391 5.64391C6.10598 5.18183 6.69332 4.86527 7.33333 4.73333V6H8.66667V4.73333C9.30668 4.86527 9.89402 5.18183 10.3561 5.64391C10.8182 6.10598 11.1347 6.69332 11.2667 7.33333H10V8.66667H11.2667C11.1347 9.30668 10.8182 9.89402 10.3561 10.3561C9.89402 10.8182 9.30668 11.1347 8.66667 11.2667Z" fill="currentColor"/>
<path d="M8.66667 11.2667V10H7.33333V11.2667C6.69332 11.1347 6.10598 10.8182 5.64391 10.3561C5.18183 9.89402 4.86527 9.30668 4.73333 8.66667H6V7.33333H4.73333C4.86527 6.69332 5.18183 6.10598 5.64391 5.64391C6.10598 5.18183 6.69332 4.86527 7.33333 4.73333V6H8.66667V4.73333C9.30668 4.86527 9.89402 5.18183 10.3561 5.64391C10.8182 6.10598 11.1347 6.69332 11.2667 7.33333H10V8.66667H11.2667C11.1347 9.30668 10.8182 9.89402 10.3561 10.3561C9.89402 10.8182 9.30668 11.1347 8.66667 11.2667Z" fill="currentColor"/>
<path d="M8.66671 7.33334H7.33337V8.66667H8.66671V7.33334Z" fill="white"/>
</svg>
