<svg width="17" height="16" viewBox="0 0 17 16" fill="none" xmlns="http://www.w3.org/2000/svg">
<path d="M10.9963 6.66665H14.9963V2.66665H13.6629V4.22599C12.8139 3.17612 11.6356 2.44331 10.3185 2.14606C9.00142 1.8488 7.62258 2.00448 6.40493 2.58791C5.18728 3.17134 4.20202 4.14842 3.60845 5.36116C3.01488 6.57389 2.8477 7.95139 3.13396 9.2709C3.42021 10.5904 4.14316 11.7748 5.18591 12.6326C6.22865 13.4903 7.53023 13.9713 8.88018 13.9977C10.2301 14.0241 11.5495 13.5944 12.625 12.7781C13.7005 11.9618 14.4693 10.8066 14.8069 9.49932L13.5163 9.16599C13.2542 10.2028 12.6454 11.1188 11.7908 11.7619C10.9363 12.4049 9.88751 12.7362 8.81866 12.7008C7.7498 12.6654 6.72521 12.2654 5.91509 11.5673C5.10496 10.8692 4.55805 9.91487 4.3652 8.86296C4.17234 7.81105 4.34516 6.72482 4.85493 5.78469C5.3647 4.84456 6.18075 4.10712 7.16754 3.69485C8.15432 3.28258 9.25245 3.2203 10.2795 3.51836C11.3066 3.81641 12.2008 4.45686 12.8136 5.33332H10.9963V6.66665Z" fill="currentColor"/>
</svg>
