<svg width="16" height="16" viewBox="0 0 16 16" fill="none" xmlns="http://www.w3.org/2000/svg">
<path d="M8.00004 1.33334C6.6815 1.33334 5.39257 1.72434 4.29624 2.45688C3.19991 3.18942 2.34543 4.23061 1.84085 5.44879C1.33626 6.66696 1.20424 8.00741 1.46148 9.30061C1.71871 10.5938 2.35365 11.7817 3.286 12.7141C4.21835 13.6464 5.40624 14.2813 6.69944 14.5386C7.99265 14.7958 9.33309 14.6638 10.5513 14.1592C11.7694 13.6546 12.8106 12.8001 13.5432 11.7038C14.2757 10.6075 14.6667 9.31855 14.6667 8.00001C14.6648 6.2325 13.9618 4.53793 12.7119 3.28811C11.4621 2.03829 9.76756 1.33528 8.00004 1.33334ZM8.00004 13.3333C6.94521 13.3333 5.91406 13.0205 5.037 12.4345C4.15994 11.8485 3.47635 11.0155 3.07269 10.041C2.66902 9.06645 2.5634 7.99409 2.76919 6.95953C2.97498 5.92496 3.48293 4.97465 4.22881 4.22877C4.97469 3.48289 5.925 2.97494 6.95956 2.76916C7.99413 2.56337 9.06648 2.66899 10.041 3.07265C11.0156 3.47632 11.8485 4.15991 12.4345 5.03697C13.0206 5.91403 13.3334 6.94518 13.3334 8.00001C13.3318 9.41401 12.7694 10.7696 11.7695 11.7695C10.7697 12.7693 9.41404 13.3318 8.00004 13.3333Z" fill="currentColor"/>
<path d="M8.00004 13.3333C6.94521 13.3333 5.91406 13.0205 5.037 12.4345C4.15994 11.8485 3.47635 11.0155 3.07269 10.041C2.66902 9.06645 2.5634 7.99409 2.76919 6.95953C2.97498 5.92496 3.48293 4.97465 4.22881 4.22877C4.97469 3.48289 5.925 2.97494 6.95956 2.76916C7.99413 2.56337 9.06648 2.66899 10.041 3.07265C11.0156 3.47632 11.8485 4.15991 12.4345 5.03697C13.0206 5.91403 13.3334 6.94518 13.3334 8.00001C13.3318 9.41401 12.7694 10.7696 11.7695 11.7695C10.7697 12.7693 9.41404 13.3318 8.00004 13.3333Z" fill="currentColor"/>
<path d="M4.86206 7.52869L5.80473 8.47135L7.33339 6.94269V10.6667H8.66673V6.94269L10.1954 8.47135L11.1381 7.52869L8.00006 4.39069L4.86206 7.52869Z" fill="white"/>
</svg>
