<svg width="16" height="16" viewBox="0 0 16 16" fill="none" xmlns="http://www.w3.org/2000/svg">
<path d="M12.6667 7.05734L10 9.72401V8.00001H3.72404L1.33337 10.3907V14.6667H10.9427L15.6094 10L12.6667 7.05734ZM10.3907 13.3333H2.66671V10.9427L4.27604 9.33334H8.66671V10.6667H6.00004V12H9.60938L12.6667 8.94268L13.724 10L10.3907 13.3333Z" fill="currentColor"/>
<path d="M10.3907 13.3333H2.66671V10.9427L4.27604 9.33334H8.66671V10.6667H6.00004V12H9.60938L12.6667 8.94268L13.724 10L10.3907 13.3333Z" fill="currentColor"/>
<path d="M9.52831 1.52915L5.52844 5.52902L6.47125 6.47183L10.4711 2.47196L9.52831 1.52915Z" fill="currentColor"/>
<path d="M10.0001 5.33334H8.66675V6.66668H10.0001V5.33334Z" fill="currentColor"/>
<path d="M7.33333 1.33334H6V2.66668H7.33333V1.33334Z" fill="currentColor"/>
</svg>
