<svg width="16" height="16" viewBox="0 0 16 16" fill="none" xmlns="http://www.w3.org/2000/svg">
<path d="M14.6666 7.33334H9.33325V8.66668H14.6666V7.33334Z" fill="currentColor"/>
<path d="M7.33325 8.66669H4.66659C2.82859 8.66669 1.33325 10.162 1.33325 12V14H10.6666V12C10.6666 10.162 9.17125 8.66669 7.33325 8.66669ZM9.33325 12.6667H2.66659V12C2.66659 10.8974 3.56392 10 4.66659 10H7.33325C8.43592 10 9.33325 10.8974 9.33325 12V12.6667Z" fill="currentColor"/>
<path d="M5.99984 8.00001C7.83784 8.00001 9.33317 6.50468 9.33317 4.66668C9.33317 2.82868 7.83784 1.33334 5.99984 1.33334C4.16184 1.33334 2.6665 2.82868 2.6665 4.66668C2.6665 6.50468 4.16184 8.00001 5.99984 8.00001ZM5.99984 2.66668C7.1025 2.66668 7.99984 3.56401 7.99984 4.66668C7.99984 5.76934 7.1025 6.66668 5.99984 6.66668C4.89717 6.66668 3.99984 5.76934 3.99984 4.66668C3.99984 3.56401 4.89717 2.66668 5.99984 2.66668Z" fill="currentColor"/>
</svg>
