<svg width="16" height="16" viewBox="0 0 16 16" fill="none" xmlns="http://www.w3.org/2000/svg">
<path d="M14 13.0573V4.66666H12V2.66666C12 2.31304 11.8595 1.9739 11.6095 1.72385C11.3594 1.4738 11.0203 1.33333 10.6667 1.33333H5.33335C4.97973 1.33333 4.64059 1.4738 4.39054 1.72385C4.1405 1.9739 4.00002 2.31304 4.00002 2.66666V3.05733L2.47135 1.52866L1.52869 2.47133L3.72402 4.66666H2.00002V14H13.0574L13.5287 14.4713L14.4714 13.5287L14 13.0573ZM12.6667 11.724L9.29069 8.348C9.23222 8.11298 9.11085 7.89833 8.9396 7.72708C8.76836 7.55583 8.5537 7.43446 8.31869 7.376L6.94269 6H12.6667V11.724ZM5.33335 2.66666H10.6667V4.66666H5.60935L5.33335 4.39066V2.66666ZM3.33335 12.6667V6H5.05735L6.93335 7.87533C6.82037 8.02487 6.74059 8.1968 6.69936 8.37964C6.65812 8.56247 6.65637 8.752 6.69424 8.93557C6.7321 9.11913 6.80869 9.2925 6.91891 9.4441C7.02912 9.5957 7.17042 9.72203 7.33335 9.81466V11.3333H8.66669V9.81466C8.70962 9.78996 8.75123 9.76304 8.79135 9.734L11.7247 12.6673L3.33335 12.6667Z" fill="currentColor"/>
<path d="M3.33335 12.6667V6H5.05735L6.93335 7.87533C6.82037 8.02487 6.74059 8.1968 6.69936 8.37964C6.65812 8.56247 6.65637 8.752 6.69424 8.93557C6.7321 9.11913 6.80869 9.2925 6.91891 9.4441C7.02912 9.5957 7.17042 9.72203 7.33335 9.81466V11.3333H8.66669V9.81466C8.70962 9.78996 8.75123 9.76304 8.79135 9.734L11.7247 12.6673L3.33335 12.6667Z" fill="currentColor"/>
<path d="M12.6667 11.724L9.29069 8.348C9.23222 8.11298 9.11085 7.89833 8.9396 7.72708C8.76836 7.55583 8.5537 7.43446 8.31869 7.376L6.94269 6H12.6667V11.724Z" fill="currentColor"/>
<path d="M7.33329 9.82136V11.34H8.66663V9.82136C8.92082 9.67461 9.11948 9.44808 9.2318 9.17691C9.34412 8.90574 9.36383 8.60508 9.28786 8.32157C9.21189 8.03806 9.0445 7.78754 8.81164 7.60886C8.57878 7.43018 8.29347 7.33333 7.99996 7.33333C7.70645 7.33333 7.42114 7.43018 7.18828 7.60886C6.95542 7.78754 6.78803 8.03806 6.71206 8.32157C6.63609 8.60508 6.6558 8.90574 6.76812 9.17691C6.88044 9.44808 7.0791 9.67461 7.33329 9.82136Z" fill="white"/>
</svg>
