<svg width="16" height="16" viewBox="0 0 16 16" fill="none" xmlns="http://www.w3.org/2000/svg">
<path d="M14 12.6667H2V9.33333H2.66667C3.402 9.33333 4 8.73533 4 8C4 7.26467 3.402 6.66667 2.66667 6.66667H2V3.33333H14V12.6667ZM3.33333 11.3333H12.6667V4.66667H3.33333V5.41733C4.48267 5.71467 5.33333 6.76 5.33333 8C5.33333 9.24 4.48267 10.2853 3.33333 10.5827V11.3333Z" fill="currentColor"/>
<path d="M3.33333 11.3333H12.6667V4.66667H3.33333V5.41733C4.48267 5.71467 5.33333 6.76 5.33333 8C5.33333 9.24 4.48267 10.2853 3.33333 10.5827V11.3333Z" fill="currentColor"/>
<path d="M7.33334 10C7.16267 10 6.992 9.93466 6.862 9.80467C6.60134 9.544 6.60134 9.12267 6.862 8.862L9.52867 6.19533C9.78934 5.93467 10.2107 5.93467 10.4713 6.19533C10.732 6.456 10.732 6.87733 10.4713 7.138L7.80467 9.80467C7.67467 9.93466 7.504 10 7.33334 10Z" fill="white"/>
<path d="M7.33329 7.33333C7.70148 7.33333 7.99996 7.03486 7.99996 6.66667C7.99996 6.29848 7.70148 6 7.33329 6C6.9651 6 6.66663 6.29848 6.66663 6.66667C6.66663 7.03486 6.9651 7.33333 7.33329 7.33333Z" fill="white"/>
<path d="M10 10C10.3682 10 10.6667 9.70152 10.6667 9.33333C10.6667 8.96514 10.3682 8.66667 10 8.66667C9.63185 8.66667 9.33337 8.96514 9.33337 9.33333C9.33337 9.70152 9.63185 10 10 10Z" fill="white"/>
</svg>
