<svg width="16" height="16" viewBox="0 0 16 16" fill="none" xmlns="http://www.w3.org/2000/svg">
<path d="M14.628 10.6147L14.6667 10.6113L14.0487 3.22267C14.0192 2.89005 13.8666 2.58041 13.6209 2.35429C13.3752 2.12818 13.054 2.00184 12.72 2H10V3.33333H12.72L13.1427 8.404C12.6946 8.14243 12.1856 8.00312 11.6667 8C11.0483 8.00198 10.4457 8.19528 9.94149 8.55336C9.43731 8.91144 9.05629 9.41677 8.85071 10H7.14938C6.9438 9.41677 6.56278 8.91144 6.0586 8.55336C5.55441 8.19528 4.95178 8.00198 4.33338 8C3.81449 8.00312 3.30552 8.14243 2.85738 8.404L3.28005 3.33333H6.00005V2H3.28005C2.94612 2.00184 2.6249 2.12818 2.37918 2.35429C2.13346 2.58041 1.98092 2.89005 1.95138 3.22267L1.33338 10.6113L1.37005 10.6147C1.34969 10.7422 1.33744 10.8709 1.33338 11C1.33193 11.7656 1.62402 12.5027 2.14955 13.0594C2.67508 13.6162 3.39404 13.9503 4.15846 13.993C4.92289 14.0357 5.6746 13.7838 6.25888 13.289C6.84315 12.7943 7.21554 12.0943 7.29938 11.3333H8.69938C8.78017 12.0969 9.15143 12.8002 9.73633 13.2977C10.3212 13.7951 11.075 14.0487 11.8416 14.0058C12.6083 13.963 13.3291 13.6271 13.855 13.0676C14.3808 12.5081 14.6715 11.7678 14.6667 11C14.662 10.8709 14.6491 10.7422 14.628 10.6147ZM4.33338 12.6667C4.00374 12.6667 3.68151 12.5689 3.40743 12.3858C3.13335 12.2026 2.91973 11.9423 2.79358 11.6378C2.66743 11.3333 2.63443 10.9981 2.69874 10.6748C2.76305 10.3515 2.92178 10.0546 3.15487 9.82149C3.38796 9.5884 3.68493 9.42967 4.00823 9.36536C4.33153 9.30105 4.66664 9.33405 4.97118 9.4602C5.27573 9.58635 5.53603 9.79997 5.71916 10.074C5.9023 10.3481 6.00005 10.6704 6.00005 11C6.00005 11.442 5.82445 11.8659 5.51189 12.1785C5.19933 12.4911 4.77541 12.6667 4.33338 12.6667ZM11.6667 12.6667C11.3371 12.6667 11.0148 12.5689 10.7408 12.3858C10.4667 12.2026 10.2531 11.9423 10.1269 11.6378C10.0008 11.3333 9.96776 10.9981 10.0321 10.6748C10.0964 10.3515 10.2551 10.0546 10.4882 9.82149C10.7213 9.5884 11.0183 9.42967 11.3416 9.36536C11.6649 9.30105 12 9.33405 12.3045 9.4602C12.6091 9.58635 12.8694 9.79997 13.0525 10.074C13.2356 10.3481 13.3334 10.6704 13.3334 11C13.3334 11.442 13.1578 11.8659 12.8452 12.1785C12.5327 12.4911 12.1087 12.6667 11.6667 12.6667Z" fill="currentColor"/>
<path d="M4.33338 12.6667C4.00374 12.6667 3.68151 12.5689 3.40743 12.3858C3.13335 12.2026 2.91973 11.9423 2.79358 11.6378C2.66743 11.3333 2.63443 10.9981 2.69874 10.6748C2.76305 10.3515 2.92178 10.0546 3.15487 9.82149C3.38796 9.5884 3.68493 9.42967 4.00823 9.36536C4.33153 9.30105 4.66664 9.33405 4.97118 9.4602C5.27573 9.58635 5.53603 9.79997 5.71916 10.074C5.9023 10.3481 6.00005 10.6704 6.00005 11C6.00005 11.442 5.82445 11.8659 5.51189 12.1785C5.19933 12.4911 4.77541 12.6667 4.33338 12.6667Z" fill="currentColor"/>
<path d="M11.6667 12.6667C11.3371 12.6667 11.0148 12.5689 10.7408 12.3858C10.4667 12.2026 10.2531 11.9423 10.1269 11.6378C10.0008 11.3333 9.96776 10.9981 10.0321 10.6748C10.0964 10.3515 10.2551 10.0546 10.4882 9.82149C10.7213 9.5884 11.0183 9.42967 11.3416 9.36536C11.6649 9.30105 12 9.33405 12.3045 9.4602C12.6091 9.58635 12.8694 9.79997 13.0525 10.074C13.2356 10.3481 13.3334 10.6704 13.3334 11C13.3334 11.442 13.1578 11.8659 12.8452 12.1785C12.5327 12.4911 12.1087 12.6667 11.6667 12.6667Z" fill="currentColor"/>
</svg>
