<svg width="16" height="16" viewBox="0 0 16 16" fill="none" xmlns="http://www.w3.org/2000/svg">
<path d="M7.99992 1.33334C6.68138 1.33334 5.39245 1.72434 4.29612 2.45688C3.19979 3.18942 2.34531 4.23061 1.84072 5.44879C1.33614 6.66696 1.20412 8.00741 1.46135 9.30061C1.71859 10.5938 2.35353 11.7817 3.28588 12.7141C4.21823 13.6464 5.40611 14.2813 6.69932 14.5386C7.99253 14.7958 9.33297 14.6638 10.5511 14.1592C11.7693 13.6546 12.8105 12.8001 13.5431 11.7038C14.2756 10.6075 14.6666 9.31855 14.6666 8.00001C14.6646 6.2325 13.9616 4.53793 12.7118 3.28811C11.462 2.03829 9.76744 1.33528 7.99992 1.33334ZM7.99992 13.3333C6.94509 13.3333 5.91394 13.0205 5.03688 12.4345C4.15982 11.8485 3.47623 11.0155 3.07256 10.041C2.6689 9.06645 2.56328 7.99409 2.76907 6.95953C2.97485 5.92496 3.48281 4.97465 4.22869 4.22877C4.97457 3.48289 5.92487 2.97494 6.95944 2.76916C7.99401 2.56337 9.06636 2.66899 10.0409 3.07265C11.0154 3.47632 11.8484 4.15991 12.4344 5.03697C13.0205 5.91403 13.3333 6.94518 13.3333 8.00001C13.3317 9.41401 12.7693 10.7696 11.7694 11.7695C10.7696 12.7693 9.41392 13.3318 7.99992 13.3333Z" fill="currentColor"/>
<path d="M8.47129 5.80467L7.52863 4.862L4.39062 8L7.52863 11.138L8.47129 10.1953L6.94262 8.66667H10.6666V7.33333H6.94262L8.47129 5.80467Z" fill="currentColor"/>
</svg>
