<svg width="16" height="16" viewBox="0 0 16 16" fill="none" xmlns="http://www.w3.org/2000/svg">
<path d="M12.0001 1.33333H4.00008C3.64646 1.33333 3.30732 1.4738 3.05727 1.72385C2.80722 1.9739 2.66675 2.31304 2.66675 2.66666V13.3333C2.66675 13.687 2.80722 14.0261 3.05727 14.2761C3.30732 14.5262 3.64646 14.6667 4.00008 14.6667H12.0001C12.3537 14.6667 12.6928 14.5262 12.9429 14.2761C13.1929 14.0261 13.3334 13.687 13.3334 13.3333V2.66666C13.3334 2.31304 13.1929 1.9739 12.9429 1.72385C12.6928 1.4738 12.3537 1.33333 12.0001 1.33333ZM4.00008 13.3333V2.66666H12.0001V13.3333H4.00008Z" fill="currentColor"/>
<path d="M6.66683 4H5.3335V5.33333H6.66683V4Z" fill="currentColor"/>
<path d="M8.66683 4H7.3335V5.33333H8.66683V4Z" fill="currentColor"/>
<path d="M10.6668 4H9.3335V5.33333H10.6668V4Z" fill="currentColor"/>
<path d="M6.66683 6H5.3335V7.33333H6.66683V6Z" fill="currentColor"/>
<path d="M8.66683 6H7.3335V7.33333H8.66683V6Z" fill="currentColor"/>
<path d="M10.6668 6H9.3335V7.33333H10.6668V6Z" fill="currentColor"/>
<path d="M6.66683 8H5.3335V9.33333H6.66683V8Z" fill="currentColor"/>
<path d="M8.66683 8H7.3335V9.33333H8.66683V8Z" fill="currentColor"/>
<path d="M10.6668 8H9.3335V9.33333H10.6668V8Z" fill="currentColor"/>
<path d="M9.33341 10.6667H6.66675V12H9.33341V10.6667Z" fill="currentColor"/>
</svg>
