<svg width="16" height="16" viewBox="0 0 16 16" fill="none" xmlns="http://www.w3.org/2000/svg">
<path d="M12.6667 14.6667C12.2981 14.6667 12.0001 14.368 12.0001 14V3.33333H4.00008V14C4.00008 14.368 3.70208 14.6667 3.33341 14.6667C2.96475 14.6667 2.66675 14.368 2.66675 14V2H13.3334V14C13.3334 14.368 13.0354 14.6667 12.6667 14.6667Z" fill="currentColor"/>
<path d="M12.6666 14.6667C12.4959 14.6667 12.3253 14.6013 12.1953 14.4713L10.0719 12.348L8.53327 14.4C8.28194 14.7353 7.71794 14.736 7.4666 14.4L5.92727 12.3487L3.80394 14.4713C3.54327 14.732 3.12194 14.732 2.86127 14.4713C2.6006 14.2107 2.6006 13.7887 2.86127 13.5287L5.52794 10.8627C5.6646 10.726 5.84727 10.656 6.0466 10.6687C6.23927 10.6827 6.4166 10.7793 6.5326 10.9333L7.99927 12.8887L9.46594 10.9327C9.58194 10.778 9.75861 10.6813 9.95194 10.668C10.1519 10.6553 10.3339 10.7247 10.4706 10.862L13.1373 13.5287C13.3979 13.7893 13.3979 14.2107 13.1373 14.4713C13.0079 14.6013 12.8373 14.6667 12.6666 14.6667Z" fill="currentColor"/>
<path d="M10.6666 4.66667H5.33325V6H10.6666V4.66667Z" fill="currentColor"/>
<path d="M10 7.33333H6V8.66667H10V7.33333Z" fill="currentColor"/>
</svg>
