<svg width="16" height="16" viewBox="0 0 16 16" fill="none" xmlns="http://www.w3.org/2000/svg">
<path d="M13.9999 4.66667V4.00001H12.6666V4.66667H11.8139L11.1473 2.66667H4.85259L4.18592 4.66667H1.33325V14H14.6666V4.66667H13.9999ZM13.3333 12.6667H2.66659V6H5.14725L5.81392 4.00001H10.1859L10.8526 6H13.3333V12.6667Z" fill="currentColor"/>
<path d="M8 6C7.40666 6 6.82664 6.17595 6.33329 6.50559C5.83994 6.83524 5.45543 7.30377 5.22836 7.85195C5.0013 8.40013 4.94189 9.00333 5.05765 9.58527C5.1734 10.1672 5.45912 10.7018 5.87868 11.1213C6.29824 11.5409 6.83279 11.8266 7.41473 11.9424C7.99667 12.0581 8.59987 11.9987 9.14805 11.7716C9.69623 11.5446 10.1648 11.1601 10.4944 10.6667C10.8241 10.1734 11 9.59334 11 9C10.9991 8.20462 10.6828 7.44207 10.1203 6.87965C9.55793 6.31724 8.79538 6.00088 8 6ZM8 10.6667C7.67037 10.6667 7.34813 10.5689 7.07405 10.3858C6.79997 10.2026 6.58635 9.94235 6.4602 9.63781C6.33406 9.33326 6.30105 8.99815 6.36536 8.67485C6.42967 8.35155 6.5884 8.05458 6.82149 7.82149C7.05458 7.5884 7.35155 7.42967 7.67485 7.36536C7.99815 7.30105 8.33326 7.33405 8.63781 7.4602C8.94235 7.58635 9.20265 7.79997 9.38578 8.07405C9.56892 8.34813 9.66667 8.67036 9.66667 9C9.66667 9.44203 9.49107 9.86595 9.17851 10.1785C8.86595 10.4911 8.44203 10.6667 8 10.6667Z" fill="currentColor"/>
</svg>
