<svg width="16" height="16" viewBox="0 0 16 16" fill="none" xmlns="http://www.w3.org/2000/svg">
<path d="M8.00017 1.33333C6.68162 1.33333 5.39269 1.72432 4.29636 2.45686C3.20004 3.18941 2.34555 4.2306 1.84097 5.44877C1.33638 6.66695 1.20436 8.00739 1.4616 9.3006C1.71883 10.5938 2.35377 11.7817 3.28612 12.714C4.21847 13.6464 5.40636 14.2813 6.69956 14.5386C7.99277 14.7958 9.33321 14.6638 10.5514 14.1592C11.7696 13.6546 12.8108 12.8001 13.5433 11.7038C14.2758 10.6075 14.6668 9.31854 14.6668 8C14.6649 6.23248 13.9619 4.53792 12.7121 3.28809C11.4622 2.03827 9.76768 1.33527 8.00017 1.33333ZM8.00017 13.3333C6.94533 13.3333 5.91419 13.0205 5.03712 12.4345C4.16006 11.8485 3.47648 11.0155 3.07281 10.041C2.66914 9.06643 2.56352 7.99408 2.76931 6.95951C2.9751 5.92495 3.48305 4.97464 4.22893 4.22876C4.97481 3.48288 5.92512 2.97493 6.95968 2.76914C7.99425 2.56335 9.0666 2.66897 10.0411 3.07264C11.0157 3.47631 11.8486 4.15989 12.4347 5.03695C13.0207 5.91402 13.3335 6.94516 13.3335 8C13.3319 9.414 12.7695 10.7696 11.7696 11.7695C10.7698 12.7693 9.41417 13.3317 8.00017 13.3333Z" fill="currentColor"/>
<path d="M8.66683 11.3333H7.3335V6.66666H8.66683V11.3333Z" fill="currentColor"/>
<path d="M8.66683 6H7.3335V4.66667H8.66683V6Z" fill="currentColor"/>
</svg>
