<svg width="16" height="16" viewBox="0 0 16 16" fill="none" xmlns="http://www.w3.org/2000/svg">
<path d="M14.4713 13.5287L11.4453 10.5027C12.3432 9.36431 12.7723 7.92588 12.6446 6.48163C12.517 5.03739 11.8423 3.69649 10.7587 2.73326C9.67503 1.77003 8.26428 1.25726 6.81503 1.29985C5.36578 1.34244 3.98758 1.93718 2.96237 2.9624C1.93715 3.98761 1.34241 5.36581 1.29982 6.81506C1.25723 8.26431 1.77 9.67506 2.73323 10.7587C3.69646 11.8424 5.03736 12.517 6.4816 12.6447C7.92585 12.7723 9.36428 12.3433 10.5026 11.4453L13.5286 14.4713L14.4713 13.5287ZM6.99997 11.3333C6.14292 11.3333 5.30511 11.0792 4.5925 10.603C3.87989 10.1269 3.32447 9.45011 2.99649 8.65829C2.66851 7.86648 2.5827 6.99519 2.7499 6.15461C2.9171 5.31402 3.32981 4.5419 3.93584 3.93587C4.54187 3.32984 5.31399 2.91713 6.15458 2.74993C6.99516 2.58273 7.86645 2.66854 8.65826 2.99652C9.45008 3.3245 10.1269 3.87992 10.603 4.59253C11.0792 5.30514 11.3333 6.14295 11.3333 7C11.3319 8.14884 10.8749 9.25022 10.0625 10.0626C9.25019 10.8749 8.14881 11.3319 6.99997 11.3333Z" fill="currentColor"/>
<path d="M6.56331 7.62L5.13798 6.19534L4.19531 7.138L6.76998 9.71334L9.88798 5.03667L8.77865 4.29667L6.56331 7.62Z" fill="currentColor"/>
</svg>
