<svg width="16" height="16" viewBox="0 0 16 16" fill="none" xmlns="http://www.w3.org/2000/svg">
<path d="M13.1853 2.81467C12.4749 2.11188 11.5272 1.70042 10.5288 1.66126C9.53028 1.62209 8.5533 1.95807 7.79009 2.60306C7.02689 3.24806 6.53273 4.15535 6.40488 5.14639C6.27703 6.13743 6.52474 7.14043 7.09926 7.958L5.17126 9.886L4.2286 10.8287L2.34326 12.714L3.28593 13.6567L3.75726 13.1853L5.17126 14.6L6.11393 13.6573L4.69993 12.2427L5.17126 11.7713L6.11459 12.714L7.05726 11.7713L6.11459 10.8287L8.04193 8.90067C8.8595 9.47519 9.8625 9.7229 10.8535 9.59505C11.8446 9.4672 12.7519 8.97304 13.3969 8.20984C14.0419 7.44663 14.3778 6.46965 14.3387 5.47116C14.2995 4.47268 13.8881 3.52501 13.1853 2.81467ZM12.2426 7.52867C11.8696 7.9016 11.3945 8.15556 10.8772 8.25844C10.3599 8.36132 9.82377 8.30851 9.3365 8.10667C8.84924 7.90483 8.43277 7.56304 8.13976 7.12451C7.84675 6.68598 7.69036 6.17041 7.69036 5.643C7.69036 5.11559 7.84675 4.60002 8.13976 4.1615C8.43277 3.72297 8.84924 3.38117 9.3365 3.17934C9.82377 2.9775 10.3599 2.92468 10.8772 3.02756C11.3945 3.13045 11.8696 3.38441 12.2426 3.75734C12.4902 4.00496 12.6867 4.29894 12.8207 4.62248C12.9547 4.94603 13.0237 5.2928 13.0237 5.643C13.0237 5.99321 12.9547 6.33998 12.8207 6.66352C12.6867 6.98707 12.4902 7.28104 12.2426 7.52867Z" fill="currentColor"/>
</svg>
