<svg width="16" height="16" viewBox="0 0 16 16" fill="none" xmlns="http://www.w3.org/2000/svg">
<path d="M8.00011 1.31732L1.28345 2.80999L1.33345 3.39332C1.40478 4.17666 2.09278 11.0867 4.29411 12.5547C5.39071 13.3 6.52852 13.9829 7.70211 14.6L8.00011 14.7487L8.29811 14.6C9.47072 13.9839 10.6076 13.3021 11.7034 12.558C13.9048 11.0867 14.5928 4.17666 14.6668 3.39332L14.7194 2.80999L8.00011 1.31732ZM2.72345 3.85532L7.33345 2.83132V12.874C6.76478 12.5467 5.97678 12.074 5.03678 11.4453C3.86078 10.6613 3.03145 6.59999 2.72345 3.85532ZM10.9634 11.4453C10.0234 12.072 9.23545 12.5467 8.66678 12.874V2.83132L13.2768 3.85532C12.9688 6.59999 12.1394 10.6613 10.9634 11.4453Z" fill="currentColor"/>
</svg>
