<svg width="16" height="16" viewBox="0 0 16 16" fill="none" xmlns="http://www.w3.org/2000/svg">
<path d="M12.6667 10H5.05733L3.33333 11.724V3.33333H10V2H2V14.9427L5.60933 11.3333H14V6.66667H12.6667V10Z" fill="currentColor"/>
<path d="M3.33325 2V12.6667L5.30354 10.475H13.9999V2H3.33325Z" fill="currentColor"/>
<path d="M10.6666 4.66667H5.33325V6.00001H10.6666V4.66667Z" fill="white"/>
<path d="M9.33325 7.33334H5.33325V8.66667H9.33325V7.33334Z" fill="white"/>
<path d="M13.3333 1.33334C12.2306 1.33334 11.3333 2.23067 11.3333 3.33334C11.3333 4.436 12.2306 5.33334 13.3333 5.33334C14.4359 5.33334 15.3333 4.436 15.3333 3.33334C15.3333 2.23067 14.4359 1.33334 13.3333 1.33334ZM13.3333 4C12.9659 4 12.6666 3.70134 12.6666 3.33334C12.6666 2.96534 12.9659 2.66667 13.3333 2.66667C13.7006 2.66667 13.9999 2.96534 13.9999 3.33334C13.9999 3.70134 13.7006 4 13.3333 4Z" fill="white"/>
</svg>
