<svg width="16" height="16" viewBox="0 0 16 16" fill="none" xmlns="http://www.w3.org/2000/svg">
<path d="M13.3333 8.00001C13.3333 9.05484 13.0205 10.086 12.4344 10.9631C11.8484 11.8401 11.0154 12.5237 10.0409 12.9274C9.06636 13.331 7.99401 13.4367 6.95944 13.2309C5.92487 13.0251 4.97457 12.5171 4.22869 11.7712C3.48281 11.0254 2.97485 10.0751 2.76907 9.04049C2.56328 8.00593 2.6689 6.93357 3.07256 5.95903C3.47623 4.98449 4.15982 4.15154 5.03688 3.56551C5.91394 2.97947 6.94509 2.66668 7.99992 2.66668V1.33334C6.68138 1.33334 5.39245 1.72434 4.29612 2.45688C3.19979 3.18942 2.34531 4.23061 1.84072 5.44879C1.33614 6.66696 1.20412 8.00741 1.46135 9.30061C1.71859 10.5938 2.35353 11.7817 3.28588 12.7141C4.21823 13.6464 5.40611 14.2813 6.69932 14.5386C7.99253 14.7958 9.33297 14.6638 10.5511 14.1592C11.7693 13.6546 12.8105 12.8001 13.5431 11.7038C14.2756 10.6075 14.6666 9.31855 14.6666 8.00001H13.3333Z" fill="currentColor"/>
<path d="M7.33325 4V8.276L10.1953 11.138L11.1379 10.1953L8.66659 7.724V4H7.33325Z" fill="currentColor"/>
<path d="M11.3333 6H12.6667V4.66667H14V3.33333H12.6667V2H11.3333V3.33333H10V4.66667H11.3333V6Z" fill="currentColor"/>
</svg>
