<svg width="16" height="16" viewBox="0 0 16 16" fill="none" xmlns="http://www.w3.org/2000/svg">
<path d="M14.4713 13.5286L12.0133 11.0706C12.8439 10.032 13.3333 8.73131 13.3333 7.33331C13.3333 4.02531 10.6419 1.33331 7.33325 1.33331C4.02459 1.33331 1.33325 4.02531 1.33325 7.33331H2.66659C2.66659 4.75998 4.76059 2.66665 7.33325 2.66665C9.90592 2.66665 11.9999 4.75998 11.9999 7.33331C11.9999 9.24465 10.8546 10.944 9.08325 11.6613L9.58325 12.8973C10.1326 12.6753 10.6319 12.376 11.0779 12.0213L13.5286 14.472L14.4713 13.5286Z" fill="currentColor"/>
<path d="M6.8619 8.19531L4.66656 10.3906L2.47123 8.19531L1.52856 9.13798L3.7239 11.3333L1.52856 13.5286L2.47123 14.4713L4.66656 12.276L6.8619 14.4713L7.80456 13.5286L5.60923 11.3333L7.80456 9.13798L6.8619 8.19531Z" fill="currentColor"/>
</svg>
