<svg width="16" height="16" viewBox="0 0 16 16" fill="none" xmlns="http://www.w3.org/2000/svg">
<path d="M13.3334 4.66666V4H12V4.66666H10.4807L9.81404 2.66666H3.51937L2.85271 4.66666H1.33337V14H14.6667V4.66666H13.3334ZM2.66671 6H3.81404L4.48071 4H8.85271L9.51937 6H10.6667V12.6667H2.66671V6ZM13.3334 12.6667H12V6H13.3334V12.6667Z" fill="currentColor"/>
<path d="M2.66671 6H3.81404L4.48071 4H8.85271L9.51937 6H10.6667V12.6667H2.66671V6Z" fill="currentColor"/>
<path d="M13.3334 12.6667H12V6H13.3334V12.6667Z" fill="white"/>
<path d="M6.66675 6C6.07341 6 5.49339 6.17595 5.00004 6.50559C4.50669 6.83524 4.12217 7.30377 3.89511 7.85195C3.66805 8.40013 3.60864 9.00333 3.72439 9.58527C3.84015 10.1672 4.12587 10.7018 4.54543 11.1213C4.96499 11.5409 5.49954 11.8266 6.08148 11.9424C6.66342 12.0581 7.26662 11.9987 7.8148 11.7716C8.36298 11.5446 8.83152 11.1601 9.16116 10.6667C9.4908 10.1734 9.66675 9.59334 9.66675 9C9.66587 8.20462 9.34951 7.44207 8.7871 6.87965C8.22468 6.31724 7.46213 6.00088 6.66675 6ZM6.66675 10.6667C6.33711 10.6667 6.01488 10.5689 5.7408 10.3858C5.46672 10.2026 5.2531 9.94235 5.12695 9.63781C5.0008 9.33326 4.9678 8.99815 5.03211 8.67485C5.09642 8.35155 5.25515 8.05458 5.48824 7.82149C5.72133 7.5884 6.0183 7.42967 6.3416 7.36536C6.6649 7.30105 7.00001 7.33405 7.30456 7.4602C7.6091 7.58635 7.8694 7.79997 8.05253 8.07405C8.23567 8.34813 8.33342 8.67036 8.33342 9C8.33342 9.44203 8.15782 9.86595 7.84526 10.1785C7.5327 10.4911 7.10878 10.6667 6.66675 10.6667Z" fill="white"/>
</svg>
