<svg width="16" height="16" viewBox="0 0 16 16" fill="none" xmlns="http://www.w3.org/2000/svg">
<path d="M12.7139 3.28601C11.7815 2.35365 10.5937 1.7187 9.30044 1.46145C8.00723 1.20421 6.66678 1.33622 5.4486 1.8408C4.23042 2.34538 3.18922 3.19987 2.45667 4.2962C1.72413 5.39253 1.33313 6.68147 1.33313 8.00001C1.33313 9.31856 1.72413 10.6075 2.45667 11.7038C3.18922 12.8002 4.23042 13.6546 5.4486 14.1592C6.66678 14.6638 8.00723 14.7958 9.30044 14.5386C10.5937 14.2813 11.7815 13.6464 12.7139 12.714C13.9623 11.4628 14.6634 9.76751 14.6634 8.00001C14.6634 6.23252 13.9623 4.5372 12.7139 3.28601ZM11.7712 11.7713C11.0253 12.5172 10.075 13.0251 9.04046 13.2309C8.0059 13.4367 6.93356 13.331 5.95904 12.9273C4.98452 12.5237 4.15158 11.8401 3.56556 10.963C2.97954 10.086 2.66675 9.05484 2.66675 8.00001C2.66675 6.94519 2.97954 5.91406 3.56556 5.037C4.15158 4.15994 4.98452 3.47636 5.95904 3.07268C6.93356 2.66901 8.0059 2.56337 9.04046 2.76914C10.075 2.9749 11.0253 3.48283 11.7712 4.22868C12.7698 5.22975 13.3307 6.58602 13.3307 8.00001C13.3307 9.41401 12.7698 10.7703 11.7712 11.7713Z" fill="currentColor"/>
<path d="M11.7712 11.7713C11.0253 12.5172 10.075 13.0251 9.04046 13.2309C8.0059 13.4367 6.93356 13.331 5.95904 12.9273C4.98452 12.5237 4.15158 11.8401 3.56556 10.963C2.97954 10.086 2.66675 9.05484 2.66675 8.00001C2.66675 6.94519 2.97954 5.91406 3.56556 5.037C4.15158 4.15994 4.98452 3.47636 5.95904 3.07268C6.93356 2.66901 8.0059 2.56337 9.04046 2.76914C10.075 2.9749 11.0253 3.48283 11.7712 4.22868C12.7698 5.22975 13.3307 6.58602 13.3307 8.00001C13.3307 9.41401 12.7698 10.7703 11.7712 11.7713Z" fill="currentColor"/>
<path d="M5.9999 6.66668H8.39056L5.52856 9.52868L6.47123 10.4713L9.33323 7.60934V10H10.6666V5.33334H5.9999V6.66668Z" fill="white"/>
</svg>
