<svg width="16" height="16" viewBox="0 0 16 16" fill="none" xmlns="http://www.w3.org/2000/svg">
<path d="M14.6279 10.6147L14.6666 10.6113L14.0486 3.22267C14.0191 2.89005 13.8665 2.58041 13.6208 2.35429C13.3751 2.12818 13.0538 2.00184 12.7199 2H9.99992V3.33333H12.7199L13.1426 8.404C12.6944 8.14243 12.1855 8.00312 11.6666 8C11.0482 8.00198 10.4456 8.19528 9.94137 8.55336C9.43719 8.91144 9.05617 9.41677 8.85059 10H7.14926C6.94368 9.41677 6.56266 8.91144 6.05847 8.55336C5.55429 8.19528 4.95166 8.00198 4.33326 8C3.81437 8.00312 3.3054 8.14243 2.85726 8.404L3.27992 3.33333H5.99992V2H3.27992C2.946 2.00184 2.62478 2.12818 2.37906 2.35429C2.13334 2.58041 1.98079 2.89005 1.95126 3.22267L1.33326 10.6113L1.36992 10.6147C1.34957 10.7422 1.33732 10.8709 1.33326 11C1.3318 11.7656 1.6239 12.5027 2.14943 13.0594C2.67495 13.6162 3.39392 13.9503 4.15834 13.993C4.92277 14.0357 5.67448 13.7838 6.25876 13.289C6.84303 12.7943 7.21542 12.0943 7.29926 11.3333H8.69926C8.78005 12.0969 9.15131 12.8002 9.73621 13.2977C10.3211 13.7951 11.0749 14.0487 11.8415 14.0058C12.6082 13.963 13.329 13.6271 13.8549 13.0676C14.3807 12.5081 14.6713 11.7678 14.6666 11C14.6619 10.8709 14.649 10.7422 14.6279 10.6147ZM4.33326 12.6667C4.00362 12.6667 3.68139 12.5689 3.40731 12.3858C3.13323 12.2026 2.9196 11.9423 2.79346 11.6378C2.66731 11.3333 2.63431 10.9981 2.69862 10.6748C2.76292 10.3515 2.92166 10.0546 3.15475 9.82149C3.38783 9.5884 3.68481 9.42967 4.00811 9.36536C4.33141 9.30105 4.66652 9.33405 4.97106 9.4602C5.27561 9.58635 5.5359 9.79997 5.71904 10.074C5.90218 10.3481 5.99992 10.6704 5.99992 11C5.99992 11.442 5.82433 11.8659 5.51177 12.1785C5.19921 12.4911 4.77529 12.6667 4.33326 12.6667ZM11.6666 12.6667C11.337 12.6667 11.0147 12.5689 10.7406 12.3858C10.4666 12.2026 10.2529 11.9423 10.1268 11.6378C10.0006 11.3333 9.96764 10.9981 10.0319 10.6748C10.0963 10.3515 10.255 10.0546 10.4881 9.82149C10.7212 9.5884 11.0181 9.42967 11.3414 9.36536C11.6647 9.30105 11.9999 9.33405 12.3044 9.4602C12.6089 9.58635 12.8692 9.79997 13.0524 10.074C13.2355 10.3481 13.3333 10.6704 13.3333 11C13.3333 11.442 13.1577 11.8659 12.8451 12.1785C12.5325 12.4911 12.1086 12.6667 11.6666 12.6667Z" fill="currentColor"/>
</svg>
