<svg width="16" height="16" viewBox="0 0 16 16" fill="none" xmlns="http://www.w3.org/2000/svg">
<path d="M12 14.6667C11.8986 14.6667 11.7966 14.6433 11.702 14.5967L7.99996 12.7453L4.29796 14.596C4.05529 14.718 3.76263 14.6793 3.55863 14.4993C3.35463 14.3193 3.28063 14.034 3.37129 13.7773L4.62663 10.22L1.59063 7.86C1.37263 7.69067 1.28196 7.404 1.36196 7.13933C1.44196 6.87467 1.67729 6.688 1.95263 6.668L5.99063 6.38267L7.36996 2.446C7.46463 2.17933 7.71663 2 7.99929 2H7.99996C8.28263 2 8.53463 2.178 8.62863 2.44467L10.0186 6.38333L14.0473 6.66867C14.3226 6.688 14.558 6.876 14.638 7.14C14.7186 7.404 14.6273 7.69067 14.4093 7.86067L11.3733 10.222L12.6286 13.7793C12.7193 14.036 12.6446 14.3213 12.4413 14.5013C12.3166 14.61 12.1593 14.6667 12 14.6667ZM7.99996 11.3333C8.10196 11.3333 8.20463 11.3567 8.29796 11.4033L10.822 12.6653L9.95596 10.2113C9.85996 9.94067 9.94863 9.63933 10.1753 9.46267L12.2166 7.87467L9.48796 7.68133C9.22329 7.66267 8.99463 7.48867 8.90663 7.238L8.00196 4.67467L7.10396 7.236C7.01596 7.48733 6.78729 7.662 6.52129 7.68067L3.78263 7.874L5.82396 9.46133C6.05063 9.638 6.13929 9.93867 6.04329 10.21L5.17729 12.664L7.70129 11.402C7.79529 11.3567 7.89796 11.3333 7.99996 11.3333Z" fill="currentColor"/>
<path d="M7.99996 11.3333C8.10196 11.3333 8.20463 11.3567 8.29796 11.4033L10.822 12.6653L9.95596 10.2113C9.85996 9.94067 9.94863 9.63933 10.1753 9.46267L12.2166 7.87467L9.48796 7.68133C9.22329 7.66267 8.99463 7.48867 8.90663 7.238L8.00196 4.67467L7.10396 7.236C7.01596 7.48733 6.78729 7.662 6.52129 7.68067L3.78263 7.874L5.82396 9.46133C6.05063 9.638 6.13929 9.93867 6.04329 10.21L5.17729 12.664L7.70129 11.402C7.79529 11.3567 7.89796 11.3333 7.99996 11.3333Z" fill="currentColor"/>
</svg>
