<svg width="16" height="16" viewBox="0 0 16 16" fill="none" xmlns="http://www.w3.org/2000/svg">
<path d="M7.99992 14.6667C4.32392 14.6667 1.33325 11.676 1.33325 8.00001C1.33325 4.32401 4.32392 1.33334 7.99992 1.33334C11.6759 1.33334 14.6666 4.32401 14.6666 8.00001C14.6666 11.676 11.6759 14.6667 7.99992 14.6667ZM7.99992 2.66668C5.05925 2.66668 2.66659 5.05934 2.66659 8.00001C2.66659 10.9407 5.05925 13.3333 7.99992 13.3333C10.9406 13.3333 13.3333 10.9407 13.3333 8.00001C13.3333 5.05934 10.9406 2.66668 7.99992 2.66668Z" fill="currentColor"/>
<path d="M8.86212 11.138L5.72412 8L8.86212 4.862L9.80479 5.80467L7.60945 8L9.80479 10.1953L8.86212 11.138Z" fill="currentColor"/>
</svg>
