<svg width="16" height="16" viewBox="0 0 16 16" fill="none" xmlns="http://www.w3.org/2000/svg">
<path d="M0.666748 2.66666V13.3333H15.3334V2.66666H0.666748ZM14.0001 5.21066C13.7212 5.11106 13.468 4.95079 13.2586 4.74142C13.0493 4.53206 12.889 4.27882 12.7894 3.99999H14.0001V5.21066ZM11.4001 12H4.60008C4.46815 11.36 4.15158 10.7726 3.68951 10.3106C3.22743 9.84849 2.6401 9.53192 2.00008 9.39999V6.59999C2.6401 6.46806 3.22743 6.15149 3.68951 5.68942C4.15158 5.22734 4.46815 4.64001 4.60008 3.99999H11.4001C11.532 4.64001 11.8486 5.22734 12.3107 5.68942C12.7727 6.15149 13.3601 6.46806 14.0001 6.59999V9.39999C13.3601 9.53192 12.7727 9.84849 12.3107 10.3106C11.8486 10.7726 11.532 11.36 11.4001 12ZM3.21075 3.99999C3.11115 4.27882 2.95088 4.53206 2.74152 4.74142C2.53215 4.95079 2.27891 5.11106 2.00008 5.21066V3.99999H3.21075ZM2.00008 10.7893C2.27891 10.8889 2.53215 11.0492 2.74152 11.2586C2.95088 11.4679 3.11115 11.7212 3.21075 12H2.00008V10.7893ZM12.7894 12C12.889 11.7212 13.0493 11.4679 13.2586 11.2586C13.468 11.0492 13.7212 10.8889 14.0001 10.7893V12H12.7894Z" fill="currentColor"/>
<path d="M11.4001 12H4.60008C4.46815 11.36 4.15158 10.7726 3.68951 10.3106C3.22743 9.84849 2.6401 9.53192 2.00008 9.39999V6.59999C2.6401 6.46806 3.22743 6.15149 3.68951 5.68942C4.15158 5.22734 4.46815 4.64001 4.60008 3.99999H11.4001C11.532 4.64001 11.8486 5.22734 12.3107 5.68942C12.7727 6.15149 13.3601 6.46806 14.0001 6.59999V9.39999C13.3601 9.53192 12.7727 9.84849 12.3107 10.3106C11.8486 10.7726 11.532 11.36 11.4001 12Z" fill="currentColor"/>
<path d="M8.66667 4.66666H7.33333V5.33332H6V8.66666H8.66667V9.33332H6V10.6667H7.33333V11.3333H8.66667V10.6667H10V7.33332H7.33333V6.66666H10V5.33332H8.66667V4.66666Z" fill="white"/>
</svg>
