<svg width="16" height="16" viewBox="0 0 16 16" fill="none" xmlns="http://www.w3.org/2000/svg">
<path d="M8.00008 12C5.05941 12 2.66675 9.60733 2.66675 6.66667C2.66675 3.726 5.05941 1.33333 8.00008 1.33333C10.9407 1.33333 13.3334 3.726 13.3334 6.66667C13.3334 9.60733 10.9407 12 8.00008 12ZM8.00008 2.66667C5.79408 2.66667 4.00008 4.46067 4.00008 6.66667C4.00008 8.87267 5.79408 10.6667 8.00008 10.6667C10.2061 10.6667 12.0001 8.87267 12.0001 6.66667C12.0001 4.46067 10.2061 2.66667 8.00008 2.66667Z" fill="currentColor"/>
<path d="M4.98011 15.1373L3.50878 12.742L0.894775 11.7087L3.48944 8.61667L4.51078 9.47334L3.10544 11.1487L4.41278 11.6653L5.14811 12.8627L6.79144 10.9047L7.81277 11.762L4.98011 15.1373Z" fill="currentColor"/>
<path d="M11.1706 15.1373L8.00464 11.364L9.02597 10.5073L11.0026 12.8627L11.738 11.6653L13.0453 11.1487L11.4893 9.294L12.5106 8.43667L15.2566 11.7087L12.642 12.742L11.1706 15.1373Z" fill="currentColor"/>
<path d="M8.66659 4H7.33325V6H8.66659V4Z" fill="currentColor"/>
<path d="M8.66659 7.33333H7.33325V9.33333H8.66659V7.33333Z" fill="currentColor"/>
<path d="M10.6667 6H8.66675V7.33333H10.6667V6Z" fill="currentColor"/>
<path d="M7.33325 6H5.33325V7.33333H7.33325V6Z" fill="currentColor"/>
</svg>
