<svg width="16" height="16" viewBox="0 0 16 16" fill="none" xmlns="http://www.w3.org/2000/svg">
<path d="M14.7168 2.81L8.00011 1.31734L3.30345 2.36067L2.47145 1.52867L1.52878 2.47134L1.76078 2.704L1.28345 2.81L1.33345 3.39334C1.40478 4.17667 2.09278 11.0867 4.29411 12.5547C5.39071 13.3001 6.52852 13.9829 7.70211 14.6L8.00011 14.7487L8.29811 14.6C9.45094 13.9937 10.5693 13.324 11.6481 12.594L13.5288 14.4747L14.4714 13.532L12.5561 11.6133C14.0861 9.22267 14.6001 4.06667 14.6668 3.39334L14.7168 2.81ZM8.00011 13.2467C7.50678 12.98 6.43345 12.38 5.03678 11.4467C3.86078 10.6613 3.03145 6.6 2.72345 3.85534L2.87811 3.82134L10.6854 11.628C9.42611 12.454 8.46011 13 8.00011 13.2467ZM11.6001 10.6593L4.42078 3.478L8.00011 2.68267L13.2768 3.85534C13.0281 6.07267 12.4388 9.14534 11.6001 10.6593Z" fill="currentColor"/>
<path d="M11.6001 10.6593L4.42078 3.478L8.00011 2.68267L13.2768 3.85534C13.0281 6.07267 12.4388 9.14534 11.6001 10.6593Z" fill="currentColor"/>
<path d="M8.00011 13.2467C7.50678 12.98 6.43345 12.38 5.03678 11.4467C3.86078 10.6613 3.03145 6.6 2.72345 3.85534L2.87811 3.82134L10.6854 11.628C9.42611 12.454 8.46011 13 8.00011 13.2467Z" fill="currentColor"/>
<rect x="1.95459" y="0.785049" width="17.9319" height="1.45494" transform="rotate(45.1662 1.95459 0.785049)" fill="white"/>
</svg>
