<svg width="16" height="16" viewBox="0 0 16 16" fill="none" xmlns="http://www.w3.org/2000/svg">
<path d="M4.11792 9.60467C2.36125 7.218 2.01125 4.56067 3.28592 3.28534C3.58125 2.99067 3.92392 2.77601 4.30725 2.64734L5.25392 4.85601L4.51659 5.22534C4.19192 5.38734 3.95259 5.66734 3.84192 6.01334C3.73059 6.36067 3.76459 6.73067 3.93659 7.05401C4.17192 7.49667 4.46325 7.948 4.80192 8.39534L5.86459 7.58934C5.56859 7.19867 5.31592 6.808 5.11325 6.41867L6.97525 5.48801L5.11125 1.13867L4.60459 1.21201C3.72725 1.33934 2.96659 1.72001 2.34325 2.34334C0.570586 4.11601 0.858586 7.42734 3.04459 10.3953L4.11792 9.60467Z" fill="currentColor"/>
<path d="M14.7939 10.326L14.7686 9.77467L10.4466 9.15734L9.5699 10.8727C8.8879 10.502 8.20856 10.004 7.54256 9.39934L14.4712 2.47134L13.5286 1.52867L1.52856 13.5287L2.47123 14.4713L4.71923 12.2233C6.59856 13.9133 8.7459 14.826 10.5959 14.8253C11.7946 14.8253 12.8672 14.4467 13.6572 13.6567C14.4639 12.85 14.8572 11.6987 14.7939 10.326ZM12.7139 12.714C11.2766 14.1513 8.14856 13.4813 5.65723 11.2847L6.5999 10.3427C7.3599 11.0387 8.14123 11.6147 8.93256 12.0453C9.2559 12.22 9.64056 12.258 9.98856 12.1493C10.3352 12.04 10.6152 11.8013 10.7779 11.476L11.2092 10.6133L13.4539 10.934C13.4086 11.53 13.2239 12.204 12.7139 12.714Z" fill="currentColor"/>
<path d="M12.7139 12.714C11.1786 14.2473 6.49125 14.2213 3.93659 11.6667C1.38125 9.11133 1.75256 4.81934 3.28589 3.28601C3.58122 2.99134 3.92389 2.77668 4.30722 2.64801L5.25389 4.85668L4.51589 5.22534C4.19189 5.38734 3.95256 5.66734 3.84189 6.01334C3.73056 6.36068 3.76456 6.73068 3.93656 7.05401C5.66656 7.05401 5.99989 7.66667 6.99989 9C7.90922 9.91 7.97256 11.5227 8.93322 12.0447C9.25522 12.2207 9.64122 12.2587 9.98856 12.1493C10.3359 12.0407 10.6159 11.802 10.7792 11.476L11.2099 10.6133L13.4546 10.934C13.4086 11.53 13.2246 12.204 12.7139 12.714Z" fill="currentColor"/>
</svg>
