<svg width="16" height="16" viewBox="0 0 16 16" fill="none" xmlns="http://www.w3.org/2000/svg">
<path d="M14.7939 10.326L14.7686 9.77467L10.4466 9.15734L9.57061 10.8727C8.72261 10.412 7.87661 9.76201 7.05728 8.94201C6.19795 8.08267 5.54328 7.23601 5.11128 6.418L6.97528 5.48667L5.11061 1.13867L4.60395 1.21201C3.72795 1.33867 2.96728 1.71934 2.34261 2.34267C0.227946 4.45734 1.05595 8.59867 4.22795 11.7713C6.21528 13.758 8.58328 14.826 10.5953 14.826C11.7946 14.826 12.8666 14.4467 13.6566 13.6567C14.4639 12.85 14.8573 11.6987 14.7939 10.326ZM12.7139 12.714C11.1806 14.246 7.72728 13.384 5.17128 10.8287C2.61661 8.27334 1.75261 4.81934 3.28595 3.28667C3.58128 2.99134 3.92395 2.77667 4.30728 2.64801L5.25395 4.85667L4.51595 5.22534C4.19195 5.38734 3.95261 5.66734 3.84195 6.01334C3.73128 6.36134 3.76461 6.73067 3.93661 7.05401C4.42861 7.98001 5.16195 8.93267 6.11528 9.88601C7.02461 10.796 7.97328 11.5227 8.93395 12.0447C9.25661 12.2207 9.64195 12.2587 9.98928 12.1493C10.3366 12.0407 10.6166 11.802 10.7799 11.476L11.2106 10.6133L13.4553 10.934C13.4086 11.53 13.2246 12.204 12.7139 12.714Z" fill="currentColor"/>
<path d="M12.7139 12.714C11.1806 14.246 7.72728 13.384 5.17128 10.8287C2.61661 8.27334 1.75261 4.81934 3.28595 3.28667C3.58128 2.99134 3.92395 2.77667 4.30728 2.64801L5.25395 4.85667L4.51595 5.22534C4.19195 5.38734 3.95261 5.66734 3.84195 6.01334C3.73128 6.36134 3.76461 6.73067 3.93661 7.05401C4.42861 7.98001 5.16195 8.93267 6.11528 9.88601C7.02461 10.796 7.97328 11.5227 8.93395 12.0447C9.25661 12.2207 9.64195 12.2587 9.98928 12.1493C10.3366 12.0407 10.6166 11.802 10.7799 11.476L11.2106 10.6133L13.4553 10.934C13.4086 11.53 13.2246 12.204 12.7139 12.714Z" fill="currentColor"/>
<path d="M13.3333 8.00001H14.6667C14.6667 4.32401 11.676 1.33334 8 1.33334V2.66668C10.9407 2.66668 13.3333 5.05934 13.3333 8.00001Z" fill="currentColor"/>
<path d="M10.6667 8H12C12 5.794 10.206 4 8 4V5.33333C9.47067 5.33333 10.6667 6.52933 10.6667 8Z" fill="currentColor"/>
</svg>
