<svg width="16" height="16" viewBox="0 0 16 16" fill="none" xmlns="http://www.w3.org/2000/svg">
<path d="M12.0001 3.99999V1.33333H4.66675C4.13632 1.33333 3.62761 1.54404 3.25253 1.91911C2.87746 2.29419 2.66675 2.8029 2.66675 3.33333V13.3333C2.66675 13.687 2.80722 14.0261 3.05727 14.2761C3.30732 14.5262 3.64646 14.6667 4.00008 14.6667H12.6667V3.99999H12.0001ZM4.66675 2.66666H10.6667V3.99999H4.66675C4.48994 3.99999 4.32037 3.92976 4.19534 3.80473C4.07032 3.67971 4.00008 3.51014 4.00008 3.33333C4.00008 3.15652 4.07032 2.98695 4.19534 2.86192C4.32037 2.7369 4.48994 2.66666 4.66675 2.66666ZM11.3334 13.3333H4.00008V5.21066C4.21359 5.28962 4.43912 5.33112 4.66675 5.33333H11.3334V13.3333Z" fill="currentColor"/>
<path d="M10.0002 6.66666H5.3335V7.99999H10.0002V6.66666Z" fill="currentColor"/>
<path d="M9.33333 8.66666H6V9.99999H9.33333V8.66666Z" fill="currentColor"/>
</svg>
