<svg width="16" height="16" viewBox="0 0 16 16" fill="none" xmlns="http://www.w3.org/2000/svg">
<path d="M12 4.66666V2.66666C12 2.31304 11.8595 1.9739 11.6095 1.72385C11.3594 1.4738 11.0203 1.33333 10.6667 1.33333H5.33333C4.97971 1.33333 4.64057 1.4738 4.39052 1.72385C4.14048 1.9739 4 2.31304 4 2.66666V4.66666H2V14H14V4.66666H12ZM5.33333 2.66666H10.6667V4.66666H5.33333V2.66666ZM12.6667 12.6667H3.33333V6H12.6667V12.6667Z" fill="currentColor"/>
<path d="M12.6667 12.6667H3.33333V6H12.6667V12.6667Z" fill="currentColor"/>
<path d="M7.33329 9.81466V11.3333H8.66663V9.81466C8.92081 9.66791 9.11948 9.44138 9.2318 9.17021C9.34412 8.89904 9.36383 8.59838 9.28786 8.31487C9.21189 8.03136 9.0445 7.78084 8.81164 7.60216C8.57878 7.42348 8.29347 7.32663 7.99996 7.32663C7.70645 7.32663 7.42114 7.42348 7.18828 7.60216C6.95542 7.78084 6.78803 8.03136 6.71206 8.31487C6.63609 8.59838 6.6558 8.89904 6.76812 9.17021C6.88044 9.44138 7.0791 9.66791 7.33329 9.81466Z" fill="white"/>
</svg>
