<svg width="16" height="16" viewBox="0 0 16 16" fill="none" xmlns="http://www.w3.org/2000/svg">
<path d="M12.6666 7.05734L9.99992 9.72401V8.00001H3.72392L1.33325 10.3907V14.6667H10.9426L15.6093 10L12.6666 7.05734ZM10.3906 13.3333H2.66659V10.9427L4.27592 9.33334H8.66659V10.6667H5.99992V12H9.60925L12.6666 8.94268L13.7239 10L10.3906 13.3333Z" fill="currentColor"/>
<path d="M7.99992 6.66668C8.52734 6.66668 9.04291 6.51028 9.48144 6.21726C9.91997 5.92425 10.2618 5.50777 10.4636 5.0205C10.6654 4.53323 10.7182 3.99705 10.6153 3.47977C10.5125 2.96249 10.2585 2.48733 9.88554 2.11439C9.5126 1.74145 9.03744 1.48748 8.52016 1.38458C8.00288 1.28169 7.4667 1.3345 6.97943 1.53633C6.49216 1.73817 6.07568 2.07996 5.78267 2.51849C5.48965 2.95702 5.33325 3.47259 5.33325 4.00001C5.33325 4.70726 5.6142 5.38553 6.1143 5.88563C6.6144 6.38573 7.29267 6.66668 7.99992 6.66668ZM7.99992 2.66668C8.26363 2.66668 8.52141 2.74488 8.74068 2.89139C8.95994 3.03789 9.13084 3.24613 9.23176 3.48977C9.33267 3.7334 9.35908 4.00149 9.30763 4.26013C9.25619 4.51877 9.1292 4.75635 8.94273 4.94282C8.75626 5.12929 8.51868 5.25628 8.26004 5.30773C8.0014 5.35917 7.73331 5.33277 7.48967 5.23185C7.24604 5.13093 7.0378 4.96004 6.89129 4.74077C6.74478 4.52151 6.66659 4.26372 6.66659 4.00001C6.66659 3.64639 6.80706 3.30725 7.05711 3.0572C7.30716 2.80715 7.6463 2.66668 7.99992 2.66668Z" fill="currentColor"/>
</svg>
