<svg width="16" height="16" viewBox="0 0 16 16" fill="none" xmlns="http://www.w3.org/2000/svg">
<path d="M11.5288 3.52824L3.52856 11.5284L4.47137 12.4713L12.4716 4.47105L11.5288 3.52824Z" fill="currentColor"/>
<path d="M7.33342 4.99999C7.33342 4.5385 7.19657 4.08738 6.94018 3.70366C6.68379 3.31995 6.31937 3.02088 5.89301 2.84427C5.46665 2.66767 4.99749 2.62146 4.54487 2.71149C4.09225 2.80152 3.67649 3.02375 3.35017 3.35008C3.02384 3.6764 2.80162 4.09216 2.71158 4.54478C2.62155 4.9974 2.66776 5.46656 2.84436 5.89292C3.02097 6.31928 3.32004 6.6837 3.70375 6.94009C4.08747 7.19648 4.53859 7.33332 5.00008 7.33332C5.61892 7.33332 6.21241 7.08749 6.65 6.64991C7.08758 6.21232 7.33342 5.61883 7.33342 4.99999ZM4.00008 4.99999C4.00008 4.80221 4.05873 4.60887 4.16861 4.44442C4.27849 4.27997 4.43467 4.1518 4.6174 4.07611C4.80013 4.00042 5.00119 3.98062 5.19517 4.01921C5.38915 4.05779 5.56734 4.15303 5.70719 4.29288C5.84704 4.43274 5.94228 4.61092 5.98087 4.8049C6.01945 4.99888 5.99965 5.19995 5.92396 5.38267C5.84827 5.5654 5.7201 5.72158 5.55565 5.83146C5.3912 5.94134 5.19786 5.99999 5.00008 5.99999C4.73487 5.99999 4.48051 5.89463 4.29298 5.7071C4.10544 5.51956 4.00008 5.26521 4.00008 4.99999Z" fill="currentColor"/>
<path d="M4.00008 4.99999C4.00008 4.80221 4.05873 4.60887 4.16861 4.44442C4.27849 4.27997 4.43467 4.1518 4.6174 4.07611C4.80013 4.00042 5.00119 3.98062 5.19517 4.01921C5.38915 4.05779 5.56734 4.15303 5.70719 4.29288C5.84704 4.43274 5.94228 4.61092 5.98087 4.8049C6.01945 4.99888 5.99965 5.19995 5.92396 5.38267C5.84827 5.5654 5.7201 5.72158 5.55565 5.83146C5.3912 5.94134 5.19786 5.99999 5.00008 5.99999C4.73487 5.99999 4.48051 5.89463 4.29298 5.7071C4.10544 5.51956 4.00008 5.26521 4.00008 4.99999Z" fill="currentColor"/>
<path d="M11.0001 8.66666C10.5386 8.66666 10.0875 8.8035 9.70375 9.05989C9.32004 9.31628 9.02097 9.6807 8.84436 10.1071C8.66776 10.5334 8.62155 11.0026 8.71158 11.4552C8.80162 11.9078 9.02384 12.3236 9.35017 12.6499C9.67649 12.9762 10.0922 13.1985 10.5449 13.2885C10.9975 13.3785 11.4666 13.3323 11.893 13.1557C12.3194 12.9791 12.6838 12.68 12.9402 12.2963C13.1966 11.9126 13.3334 11.4615 13.3334 11C13.3334 10.3812 13.0876 9.78766 12.65 9.35007C12.2124 8.91249 11.6189 8.66666 11.0001 8.66666ZM11.0001 12C10.8023 12 10.609 11.9413 10.4445 11.8315C10.2801 11.7216 10.1519 11.5654 10.0762 11.3827C10.0005 11.1999 9.98071 10.9989 10.0193 10.8049C10.0579 10.6109 10.1531 10.4327 10.293 10.2929C10.4328 10.153 10.611 10.0578 10.805 10.0192C10.999 9.98062 11.2 10.0004 11.3828 10.0761C11.5655 10.1518 11.7217 10.28 11.8316 10.4444C11.9414 10.6089 12.0001 10.8022 12.0001 11C12.0001 11.2652 11.8947 11.5196 11.7072 11.7071C11.5197 11.8946 11.2653 12 11.0001 12Z" fill="currentColor"/>
<path d="M11.0001 12C10.8023 12 10.609 11.9413 10.4445 11.8315C10.2801 11.7216 10.1519 11.5654 10.0762 11.3827C10.0005 11.1999 9.98071 10.9989 10.0193 10.8049C10.0579 10.6109 10.1531 10.4327 10.293 10.2929C10.4328 10.153 10.611 10.0578 10.805 10.0192C10.999 9.98062 11.2 10.0004 11.3828 10.0761C11.5655 10.1518 11.7217 10.28 11.8316 10.4444C11.9414 10.6089 12.0001 10.8022 12.0001 11C12.0001 11.2652 11.8947 11.5196 11.7072 11.7071C11.5197 11.8946 11.2653 12 11.0001 12Z" fill="currentColor"/>
</svg>
