<svg width="16" height="16" viewBox="0 0 16 16" fill="none" xmlns="http://www.w3.org/2000/svg">
<path d="M8 1.25C4.278 1.25 1.25 4.278 1.25 8C1.25 11.722 4.278 14.75 8 14.75C11.722 14.75 14.75 11.722 14.75 8C14.75 4.278 11.722 1.25 8 1.25Z" fill="currentColor"/>
<path d="M11.2704 6.60493L10.9378 4.22684C10.9105 4.03187 10.6758 3.95085 10.5386 4.09101L10.0542 4.58578C9.43136 4.20198 8.72421 4 7.99707 4C5.81035 4 4.05473 5.74821 4.00007 7.97993C3.9971 8.10191 4.08391 8.20654 4.20196 8.2239L5.14177 8.36113C5.28188 8.38202 5.41222 8.26966 5.41027 8.11998C5.39078 6.64707 6.55545 5.44136 7.99707 5.44136C8.34616 5.44136 8.69113 5.51384 9.00993 5.65249L8.54301 6.12941C8.40665 6.2687 8.48404 6.50907 8.67598 6.53714L11.0042 6.87684C11.1576 6.90046 11.2924 6.76419 11.2704 6.60493Z" fill="white"/>
<path d="M11.7983 7.77549L10.8605 7.63786C10.7393 7.6221 10.5923 7.72877 10.5923 7.89757C10.5923 9.36125 9.43338 10.5521 8.00883 10.5521C7.66204 10.5521 7.31914 10.4799 7.00195 10.3421L7.45333 9.8783C7.5895 9.73838 7.51222 9.49692 7.32053 9.46872L4.99551 9.12724C4.8428 9.10483 4.70757 9.23939 4.72968 9.40038L5.06177 11.7893C5.08911 11.9854 5.3232 12.0662 5.4604 11.9257L5.95583 11.4169C6.57487 11.7989 7.28061 12 8.00883 12C10.182 12 11.935 10.2525 11.9999 8.02176C12.0034 7.89898 11.9167 7.79293 11.7983 7.77549Z" fill="white"/>
</svg>
