<svg width="16" height="16" viewBox="0 0 16 16" fill="none" xmlns="http://www.w3.org/2000/svg">
<path d="M8.00004 14.6667C4.32404 14.6667 1.33337 11.676 1.33337 8.00001C1.33337 4.32401 4.32404 1.33334 8.00004 1.33334C11.676 1.33334 14.6667 4.32401 14.6667 8.00001C14.6667 11.676 11.676 14.6667 8.00004 14.6667ZM8.00004 2.66668C5.05937 2.66668 2.66671 5.05934 2.66671 8.00001C2.66671 10.9407 5.05937 13.3333 8.00004 13.3333C10.9407 13.3333 13.3334 10.9407 13.3334 8.00001C13.3334 5.05934 10.9407 2.66668 8.00004 2.66668Z" fill="currentColor"/>
<path d="M8.00004 2.66668C5.05937 2.66668 2.66671 5.05934 2.66671 8.00001C2.66671 10.9407 5.05937 13.3333 8.00004 13.3333C10.9407 13.3333 13.3334 10.9407 13.3334 8.00001C13.3334 5.05934 10.9407 2.66668 8.00004 2.66668Z" fill="currentColor"/>
<path d="M8.862 11.138L5.724 8L8.862 4.862L9.80467 5.80467L7.60933 8L9.80467 10.1953L8.862 11.138Z" fill="white"/>
</svg>
