<svg width="16" height="16" viewBox="0 0 16 16" fill="none" xmlns="http://www.w3.org/2000/svg">
<path d="M12.714 3.28599C11.6234 2.19538 10.1884 1.51667 8.65342 1.36551C7.11848 1.21435 5.57861 1.60008 4.29618 2.45699C3.01376 3.3139 2.06813 4.58896 1.62042 6.06492C1.17271 7.54088 1.25062 9.12642 1.84088 10.5514C2.43113 11.9763 3.49721 13.1525 4.85747 13.8796C6.21773 14.6066 7.788 14.8396 9.30073 14.5386C10.8135 14.2377 12.175 13.4216 13.1535 12.2293C14.132 11.037 14.6667 9.54236 14.6667 7.99999C14.666 6.23202 13.9637 4.53659 12.714 3.28599ZM11.7714 11.7713C10.8989 12.6438 9.75089 13.1868 8.52295 13.3078C7.295 13.4288 6.06309 13.1203 5.03713 12.4348C4.01116 11.7493 3.25462 10.7293 2.89641 9.54852C2.53819 8.36777 2.60047 7.09934 3.07262 5.95936C3.54478 4.81938 4.3976 3.87837 5.48577 3.29669C6.57395 2.715 7.83016 2.52862 9.04035 2.7693C10.2505 3.00997 11.3398 3.66283 12.1226 4.61661C12.9055 5.57039 13.3333 6.7661 13.3334 7.99999C13.3327 9.41435 12.7709 10.7707 11.7714 11.7713Z" fill="currentColor"/>
<path d="M11.7714 11.7713C10.8989 12.6438 9.75089 13.1868 8.52295 13.3078C7.295 13.4288 6.06309 13.1203 5.03713 12.4348C4.01116 11.7493 3.25462 10.7293 2.89641 9.54852C2.53819 8.36777 2.60047 7.09934 3.07262 5.95936C3.54478 4.81938 4.3976 3.87837 5.48577 3.29669C6.57395 2.715 7.83016 2.52862 9.04035 2.7693C10.2505 3.00997 11.3398 3.66283 12.1226 4.61661C12.9055 5.57039 13.3333 6.7661 13.3334 7.99999C13.3327 9.41435 12.7709 10.7707 11.7714 11.7713Z" fill="currentColor"/>
<path d="M9.52871 5.52866L6.66671 8.39066V5.99999H5.33337V10.6667H10V9.33332H7.60937L10.4714 6.47132L9.52871 5.52866Z" fill="white"/>
</svg>
