<svg width="16" height="16" viewBox="0 0 16 16" fill="none" xmlns="http://www.w3.org/2000/svg">
<path d="M4 11.3333L4.48152 9.32825L4.50249 5.51516C4.50249 4.31225 5.44317 3.33334 6.59911 3.33334H9.3946C10.5505 3.33334 11.4912 4.31225 11.4912 5.51516V9.15153L12 11.3333H4Z" fill="currentColor"/>
<path d="M12.6667 9.25134V6.00001H11.3333V9.33334L11.8193 11.3333H4.18667L4.64667 9.49534L4.66667 6.66668C4.66648 6.13335 4.79427 5.60777 5.0393 5.13406C5.28434 4.66036 5.63945 4.25236 6.07484 3.94434C6.51022 3.63632 7.01316 3.43727 7.54141 3.36389C8.06967 3.29052 8.60782 3.34497 9.11067 3.52268L9.556 2.26668C9.26715 2.16757 8.96928 2.09702 8.66667 2.05601V1.33334H7.33333V2.05334C6.22395 2.21431 5.20946 2.7689 4.47509 3.61587C3.74073 4.46284 3.33548 5.54568 3.33333 6.66668V9.25134L2.81333 11.3333H2V12.6667H5.428C5.57351 13.2384 5.90537 13.7453 6.37114 14.1074C6.83692 14.4695 7.41005 14.6661 8 14.6661C8.58995 14.6661 9.16308 14.4695 9.62886 14.1074C10.0946 13.7453 10.4265 13.2384 10.572 12.6667H14V11.3333H13.1867L12.6667 9.25134ZM8 13.3333C7.76699 13.3326 7.53827 13.2707 7.33677 13.1537C7.13528 13.0366 6.96809 12.8687 6.852 12.6667H9.148C9.03191 12.8687 8.86472 13.0366 8.66323 13.1537C8.46173 13.2707 8.23301 13.3326 8 13.3333Z" fill="currentColor"/>
<path d="M14 3.33334H10V4.66668H14V3.33334Z" fill="currentColor"/>
</svg>
