<svg width="16" height="16" viewBox="0 0 16 16" fill="none" xmlns="http://www.w3.org/2000/svg">
<path d="M8.00003 14C7.77069 14 7.55736 13.882 7.43536 13.688L4.79669 9.48467C4.65936 9.26667 4.52803 9.04334 4.41069 8.81467C3.56603 7.15934 2.67669 4.72534 4.69869 2.702C5.57203 1.828 6.74403 1.34667 8.00003 1.34667C9.25536 1.34667 10.428 1.828 11.3014 2.70134C13.3347 4.736 12.4254 7.192 11.5647 8.862C11.4634 9.05934 11.3494 9.25267 11.2314 9.44134L8.56469 13.688C8.44269 13.882 8.22936 14 8.00003 14ZM8.00003 2.68C7.10003 2.68 6.26269 3.022 5.64136 3.644C4.54069 4.746 4.52736 6.11134 5.59803 8.208C5.69669 8.402 5.80936 8.59067 5.92536 8.77534L8.00003 12.08L10.1014 8.73267C10.1987 8.57667 10.2947 8.416 10.3787 8.25134C11.4727 6.13 11.466 4.752 10.3587 3.644C9.73669 3.022 8.90003 2.68 8.00003 2.68Z" fill="currentColor"/>
<path d="M8.00003 2.68C7.10003 2.68 6.26269 3.022 5.64136 3.644C4.54069 4.746 4.52736 6.11134 5.59803 8.208C5.69669 8.402 5.80936 8.59067 5.92536 8.77534L8.00003 12.08L10.1014 8.73267C10.1987 8.57667 10.2947 8.416 10.3787 8.25134C11.4727 6.13 11.466 4.752 10.3587 3.644C9.73669 3.022 8.90003 2.68 8.00003 2.68Z" fill="currentColor"/>
<path d="M8 8C6.89733 8 6 7.10267 6 6C6 4.89733 6.89733 4 8 4C9.10267 4 10 4.89733 10 6C10 7.10267 9.10267 8 8 8ZM8 5.33333C7.63267 5.33333 7.33333 5.63267 7.33333 6C7.33333 6.36733 7.63267 6.66667 8 6.66667C8.36733 6.66667 8.66667 6.36733 8.66667 6C8.66667 5.63267 8.36733 5.33333 8 5.33333Z" fill="white"/>
<path d="M11.3333 12.6667H4.66663V14H11.3333V12.6667Z" fill="currentColor"/>
</svg>
