<svg width="16" height="16" viewBox="0 0 16 16" fill="none" xmlns="http://www.w3.org/2000/svg">
<path d="M12.2426 5.64333L11.2999 6.586L12.0472 7.33333H8.66657V3.952L9.41457 4.7L10.3572 3.75733L7.9999 1.40067L5.64257 3.75733L6.58524 4.7L7.33324 3.952V7.33333H3.95257L4.6999 6.586L3.75724 5.64333L1.3999 8L3.75724 10.3567L4.6999 9.414L3.95257 8.66667H7.33324V12.048L6.58524 11.3L5.64257 12.2427L7.9999 14.5993L10.3572 12.2427L9.41457 11.3L8.66657 12.048V8.66667H12.0472L11.2999 9.414L12.2426 10.3567L14.5999 8L12.2426 5.64333Z" fill="currentColor"/>
</svg>
