<svg width="16" height="16" viewBox="0 0 16 16" fill="none" xmlns="http://www.w3.org/2000/svg">
<path d="M6.33333 7C6.33333 6.08133 7.08133 5.33333 8 5.33333C8.91933 5.33333 9.66667 6.08133 9.66667 7C9.66667 7.91867 8.91933 8.66667 8 8.66667C7.08133 8.66667 6.33333 7.91867 6.33333 7Z" fill="currentColor"/>
<path d="M4.734 12.6667C5.044 11.1473 6.39 10 8 10C9.61 10 10.956 11.1473 11.266 12.6667H12.6667V14H3.38667V12.6667H4.734Z" fill="currentColor"/>
<path d="M12.6667 12.6667H12.6133C12.3913 11.126 11.4173 9.82933 10.0733 9.15867C10.642 8.61267 11 7.84867 11 7C11 5.346 9.654 4 8 4C6.346 4 5 5.346 5 7C5 7.84867 5.358 8.61267 5.926 9.15867C4.58267 9.82933 3.60867 11.126 3.38667 12.6667V14H2V2H14V14H12.6667V12.6667Z" fill="currentColor"/>
</svg>
