<svg width="16" height="16" viewBox="0 0 16 16" fill="none" xmlns="http://www.w3.org/2000/svg">
<path d="M9.37595 1.47134C7.20328 1.034 5.04395 1.638 3.44995 3.126C1.85661 4.61334 1.10661 6.71667 1.39128 8.89534C1.77528 11.8287 4.18395 14.232 7.11928 14.6093C7.40861 14.6467 7.69728 14.6647 7.98528 14.6647C9.62728 14.6647 11.2159 14.0673 12.4439 12.968L11.5546 11.9747C10.3826 13.0227 8.86795 13.4893 7.28928 13.2867C4.94528 12.986 3.02061 11.0667 2.71328 8.72267C2.48528 6.976 3.08595 5.292 4.36061 4.10067C5.63595 2.91 7.36995 2.428 9.11328 2.77867C11.8106 3.32067 13.6086 5.872 13.2973 8.712C13.1806 9.776 12.1899 10 11.9999 10C11.6439 10 11.4993 9.88467 11.4213 9.79734C10.9839 9.30867 11.1339 7.954 11.2239 7.14534C11.2486 6.92334 11.2706 6.72134 11.2826 6.55267C11.3253 5.934 10.9459 5.372 10.3593 5.18667C10.2586 5.15467 10.1479 5.11734 10.0299 5.076C8.97595 4.71534 7.01261 4.04267 5.52861 5.528C4.58528 6.47134 3.97461 8.106 4.73661 9.63067C5.58795 11.3333 7.27795 11.3333 7.99995 11.3333C8.85395 11.3333 9.62795 11.0273 10.2499 10.4573C10.3033 10.5373 10.3626 10.614 10.4279 10.6873C10.6919 10.982 11.1793 11.3333 11.9999 11.3333C12.9479 11.3333 14.4373 10.5467 14.6233 8.858C15.0106 5.326 12.7546 2.15067 9.37595 1.47134ZM9.89861 6.99867C9.83195 7.59934 9.75261 8.31534 9.80661 8.99534L9.76861 8.97067C9.32595 9.65334 8.73128 10 7.99995 10C7.19661 10 6.37461 9.926 5.92995 9.03534C5.39795 7.97134 6.01995 6.92334 6.47128 6.47134C6.86261 6.08067 7.30861 5.93534 7.79861 5.93534C8.34795 5.93534 8.95261 6.11734 9.59795 6.338C9.72595 6.382 9.84661 6.42334 9.95128 6.46067C9.94128 6.614 9.92128 6.79667 9.89861 6.99867Z" fill="currentColor"/>
</svg>
