<svg width="16" height="16" viewBox="0 0 16 16" fill="none" xmlns="http://www.w3.org/2000/svg">
<path d="M12.7139 3.28599C11.6233 2.19538 10.1882 1.51667 8.6533 1.36551C7.11836 1.21435 5.57848 1.60008 4.29606 2.45699C3.01364 3.3139 2.06801 4.58896 1.6203 6.06492C1.17259 7.54088 1.2505 9.12642 1.84075 10.5514C2.43101 11.9763 3.49709 13.1525 4.85735 13.8796C6.2176 14.6066 7.78788 14.8396 9.3006 14.5386C10.8133 14.2377 12.1749 13.4216 13.1534 12.2293C14.1318 11.037 14.6666 9.54236 14.6666 7.99999C14.6659 6.23202 13.9636 4.53659 12.7139 3.28599ZM11.7713 11.7713C10.8988 12.6438 9.75077 13.1868 8.52282 13.3078C7.29487 13.4288 6.06297 13.1203 5.037 12.4348C4.01104 11.7493 3.2545 10.7293 2.89628 9.54852C2.53807 8.36777 2.60034 7.09934 3.0725 5.95936C3.54465 4.81938 4.39747 3.87838 5.48565 3.29669C6.57383 2.715 7.83003 2.52862 9.04023 2.7693C10.2504 3.00998 11.3397 3.66283 12.1225 4.61661C12.9053 5.57039 13.3332 6.7661 13.3333 7.99999C13.3326 9.41435 12.7708 10.7707 11.7713 11.7713Z" fill="currentColor"/>
<path d="M9.52858 5.52866L6.66659 8.39066V5.99999H5.33325V10.6667H9.99992V9.33332H7.60925L10.4713 6.47132L9.52858 5.52866Z" fill="currentColor"/>
</svg>
