<svg width="16" height="16" viewBox="0 0 16 16" fill="none" xmlns="http://www.w3.org/2000/svg">
<path d="M13.3333 3.33334H2.66659C2.31296 3.33334 1.97382 3.47382 1.72378 3.72387C1.47373 3.97392 1.33325 4.31305 1.33325 4.66668V11.3333C1.33325 11.687 1.47373 12.0261 1.72378 12.2762C1.97382 12.5262 2.31296 12.6667 2.66659 12.6667H13.3333C13.6869 12.6667 14.026 12.5262 14.2761 12.2762C14.5261 12.0261 14.6666 11.687 14.6666 11.3333V4.66668C14.6666 4.31305 14.5261 3.97392 14.2761 3.72387C14.026 3.47382 13.6869 3.33334 13.3333 3.33334ZM2.66659 11.3333V4.66668H13.3333V11.3333H2.66659Z" fill="currentColor"/>
<path d="M9.33337 5.33336C8.86582 5.33537 8.40716 5.46119 8.00403 5.69803C7.59928 5.46041 7.13899 5.33383 6.66965 5.33107C6.20031 5.32831 5.73856 5.44947 5.33104 5.68232C4.92352 5.91516 4.58468 6.25143 4.34874 6.65716C4.1128 7.0629 3.98812 7.52371 3.98731 7.99306C3.98649 8.4624 4.10957 8.92365 4.34409 9.3302C4.57862 9.73675 4.9163 10.0742 5.323 10.3085C5.72971 10.5427 6.19104 10.6655 6.66038 10.6644C7.12973 10.6632 7.59046 10.5382 7.99603 10.302C8.34999 10.509 8.7469 10.6316 9.15592 10.6602C9.56494 10.6888 9.97506 10.6227 10.3544 10.4671C10.7337 10.3114 11.072 10.0704 11.3431 9.76272C11.6141 9.45505 11.8105 9.08902 11.9171 8.69309C12.0237 8.29716 12.0375 7.88199 11.9575 7.47984C11.8775 7.0777 11.7059 6.69941 11.4559 6.37438C11.206 6.04936 10.8845 5.78635 10.5163 5.6058C10.1482 5.42525 9.74339 5.33202 9.33337 5.33336ZM9.33337 9.33336C9.22069 9.33186 9.10867 9.31595 9.00003 9.28603C9.07142 9.15812 9.13164 9.02429 9.18003 8.88603L7.9227 8.44203C7.8416 8.67283 7.69857 8.87687 7.50926 9.03182C7.31995 9.18677 7.09166 9.28664 6.84939 9.32052C6.60711 9.35439 6.36018 9.32096 6.13563 9.22388C5.91109 9.12679 5.71758 8.9698 5.57629 8.77009C5.435 8.57039 5.35138 8.33565 5.33458 8.0916C5.31777 7.84754 5.36844 7.60356 5.48103 7.38638C5.59362 7.16919 5.7638 6.98717 5.97292 6.86023C6.18205 6.7333 6.42207 6.66634 6.6667 6.6667C6.77938 6.6682 6.89139 6.68411 7.00003 6.71403C6.92892 6.84208 6.86871 6.97588 6.82003 7.11403L8.07737 7.55803C8.15846 7.32723 8.3015 7.12319 8.49081 6.96824C8.68012 6.81329 8.9084 6.71342 9.15068 6.67954C9.39296 6.64567 9.63989 6.6791 9.86444 6.77618C10.089 6.87327 10.2825 7.03026 10.4238 7.22997C10.5651 7.42967 10.6487 7.66441 10.6655 7.90846C10.6823 8.15252 10.6316 8.3965 10.519 8.61368C10.4064 8.83087 10.2363 9.01289 10.0271 9.13983C9.81802 9.26676 9.578 9.33372 9.33337 9.33336Z" fill="currentColor"/>
</svg>
