<svg width="16" height="16" viewBox="0 0 16 16" fill="none" xmlns="http://www.w3.org/2000/svg">
<path d="M11.69 14H5.84267L4.50933 13.3333H2V12H4.824L6.15733 12.6667H10.9767L12.0327 11.0827L12.6573 7.33333H7.812L8.66667 3.918V3.33333H7.14733L6.59667 4.96467L5.07867 8H2V6.66667H4.25467L5.38267 4.41067L6.186 2H8.66667C9.402 2 10 2.598 10 3.33333L9.98 4.162L9.52067 6H12.6667C13.402 6 14 6.598 14 7.33333L13.9907 7.44333L13.3007 11.584L11.69 14Z" fill="currentColor"/>
<path d="M3.33333 6H2V14H3.33333V6Z" fill="currentColor"/>
</svg>
