<svg width="16" height="16" viewBox="0 0 16 16" fill="none" xmlns="http://www.w3.org/2000/svg">
<path d="M14 1.942L4.66663 2.72V10.8773C4.23667 10.7348 3.78626 10.6636 3.33329 10.6667C1.78796 10.6667 0.666626 11.3673 0.666626 12.3333C0.666626 13.2993 1.78796 14 3.33329 14C4.87863 14 5.99996 13.2993 5.99996 12.3333C5.9994 12.2205 5.98302 12.1083 5.95129 12H5.99996V6.61333L12.6666 6.058V10.2107C12.2367 10.0681 11.7863 9.99692 11.3333 10C9.78796 10 8.66663 10.7007 8.66663 11.6667C8.66663 12.6327 9.78796 13.3333 11.3333 13.3333C12.8786 13.3333 14 12.6327 14 11.6667C13.9994 11.5538 13.983 11.4416 13.9513 11.3333H14V1.942ZM3.33329 12.6667C2.87765 12.6942 2.4249 12.5776 2.03929 12.3333C2.4249 12.089 2.87765 11.9724 3.33329 12C3.78893 11.9724 4.24169 12.089 4.62729 12.3333C4.24169 12.5776 3.78893 12.6942 3.33329 12.6667ZM5.99996 5.27533V3.94667L12.6666 3.39133V4.72L5.99996 5.27533ZM11.3333 12C10.8777 12.0276 10.4249 11.911 10.0393 11.6667C10.4249 11.4224 10.8777 11.3058 11.3333 11.3333C11.7889 11.3058 12.2417 11.4224 12.6273 11.6667C12.2417 11.911 11.7889 12.0276 11.3333 12Z" fill="currentColor"/>
<path d="M5.99996 5.27533V3.94667L12.6666 3.39133V4.72L5.99996 5.27533Z" fill="currentColor"/>
<path d="M3.33329 12.6667C2.87765 12.6942 2.4249 12.5776 2.03929 12.3333C2.4249 12.089 2.87765 11.9724 3.33329 12C3.78893 11.9724 4.24169 12.089 4.62729 12.3333C4.24169 12.5776 3.78893 12.6942 3.33329 12.6667Z" fill="currentColor"/>
<path d="M11.3333 12C10.8777 12.0276 10.4249 11.911 10.0393 11.6667C10.4249 11.4224 10.8777 11.3058 11.3333 11.3333C11.7889 11.3058 12.2417 11.4224 12.6273 11.6667C12.2417 11.911 11.7889 12.0276 11.3333 12Z" fill="currentColor"/>
</svg>
