<svg width="16" height="16" viewBox="0 0 16 16" fill="none" xmlns="http://www.w3.org/2000/svg">
<path d="M2.66659 2.66667H5.99992V1.33334H1.33325V6H2.66659V2.66667Z" fill="currentColor"/>
<path d="M2.66659 10H1.33325V14.6667H5.99992V13.3333H2.66659V10Z" fill="currentColor"/>
<path d="M10 1.33334V2.66667H13.3333V6H14.6667V1.33334H10Z" fill="currentColor"/>
<path d="M13.3333 13.3333H10V14.6667H14.6667V10H13.3333V13.3333Z" fill="currentColor"/>
<path d="M5.99984 5.33334H4.6665V6.66667H5.99984V5.33334Z" fill="currentColor"/>
<path d="M11.3333 5.33334H10V6.66667H11.3333V5.33334Z" fill="currentColor"/>
<path d="M7.40325 9.03534L8.59659 9.63133L9.03992 8.74467C9.14091 8.5349 9.18161 8.30119 9.15748 8.06963C9.13335 7.83807 9.04533 7.61777 8.90325 7.43334C8.71894 6.74927 8.63915 6.04126 8.66659 5.33334H7.33325C7.33325 5.98667 7.37925 7.56 7.81659 8.20934L7.40325 9.03534Z" fill="currentColor"/>
<path d="M9.53654 10.188C9.09815 10.5264 8.55288 10.6963 7.99987 10.6667C7.44792 10.6959 6.90382 10.5261 6.46654 10.188L5.5332 11.138C6.21545 11.7293 7.09782 12.0377 7.99987 12C8.90351 12.0389 9.78776 11.7304 10.4712 11.138L9.53654 10.188Z" fill="currentColor"/>
</svg>
