<svg width="16" height="16" viewBox="0 0 16 16" fill="none" xmlns="http://www.w3.org/2000/svg">
<path d="M2.66659 2.66666H5.99992V1.33333H1.33325V5.99999H2.66659V2.66666Z" fill="currentColor"/>
<path d="M2.66659 10H1.33325V14.6667H5.99992V13.3333H2.66659V10Z" fill="currentColor"/>
<path d="M10 1.33333V2.66666H13.3333V5.99999H14.6667V1.33333H10Z" fill="currentColor"/>
<path d="M13.3333 13.3333H10V14.6667H14.6667V10H13.3333V13.3333Z" fill="currentColor"/>
<path d="M4 7.33333H7.33333V4H4V7.33333ZM5.33333 5.33333H6V6H5.33333V5.33333Z" fill="currentColor"/>
<path d="M11.9998 4H8.6665V7.33333H11.9998V4ZM10.6665 6H9.99984V5.33333H10.6665V6Z" fill="currentColor"/>
<path d="M11.9998 8.66666H8.6665V12H11.9998V8.66666ZM10.6665 10.6667H9.99984V9.99999H10.6665V10.6667Z" fill="currentColor"/>
<path d="M4 12H7.33333V8.66666H4V12ZM5.33333 9.99999H6V10.6667H5.33333V9.99999Z" fill="currentColor"/>
</svg>
