<svg width="16" height="16" viewBox="0 0 16 16" fill="none" xmlns="http://www.w3.org/2000/svg">
<path d="M8 2.78667V10.8773C7.57005 10.7348 7.11963 10.6636 6.66667 10.6667C5.12133 10.6667 4 11.3673 4 12.3333C4 13.2993 5.12133 14 6.66667 14C8.212 14 9.33333 13.2993 9.33333 12.3333C9.33278 12.2205 9.3164 12.1083 9.28467 12H9.33333V6.54667L12.6667 5.88V1.85333L8 2.78667ZM6.66667 12.6667C6.21103 12.6942 5.75827 12.5776 5.37267 12.3333C5.75827 12.089 6.21103 11.9724 6.66667 12C7.12231 11.9724 7.57506 12.089 7.96067 12.3333C7.57506 12.5776 7.12231 12.6942 6.66667 12.6667ZM11.3333 4.78667L9.33333 5.18667V3.88L11.3333 3.48V4.78667Z" fill="currentColor"/>
<path d="M11.3333 4.78667L9.33333 5.18667V3.88L11.3333 3.48V4.78667Z" fill="currentColor"/>
<path d="M6.66667 12.6667C6.21103 12.6942 5.75827 12.5776 5.37267 12.3333C5.75827 12.089 6.21103 11.9724 6.66667 12C7.12231 11.9724 7.57506 12.089 7.96067 12.3333C7.57506 12.5776 7.12231 12.6942 6.66667 12.6667Z" fill="currentColor"/>
</svg>
