<svg width="17" height="16" viewBox="0 0 17 16" fill="none" xmlns="http://www.w3.org/2000/svg">
<path d="M6.99634 5.33332H5.17967C5.74616 4.51797 6.55836 3.90495 7.49778 3.58368C8.4372 3.26242 9.45469 3.24973 10.4018 3.54746C11.349 3.84518 12.1762 4.43775 12.7629 5.23872C13.3495 6.03969 13.6649 7.00716 13.663 7.99999H14.9963C14.9969 6.75899 14.6127 5.54834 13.8965 4.53481C13.1804 3.52129 12.1676 2.75477 10.9976 2.34083C9.82771 1.92689 8.5582 1.88591 7.36401 2.22353C6.16982 2.56115 5.10969 3.26076 4.32967 4.22599V2.66665H2.99634V6.66665H6.99634V5.33332Z" fill="currentColor"/>
<path d="M10.9963 10.6667H12.813C12.2465 11.482 11.4343 12.095 10.4949 12.4163C9.55548 12.7376 8.53798 12.7503 7.59084 12.4525C6.6437 12.1548 5.81647 11.5622 5.22981 10.7613C4.64316 9.9603 4.32777 8.99283 4.32967 8H2.99634C2.99577 9.241 3.38002 10.4517 4.09616 11.4652C4.8123 12.4787 5.8251 13.2452 6.99503 13.6592C8.16497 14.0731 9.43447 14.1141 10.6287 13.7765C11.8229 13.4388 12.883 12.7392 13.663 11.774V13.3333H14.9963V9.33333H10.9963V10.6667Z" fill="currentColor"/>
</svg>
