<svg width="17" height="16" viewBox="0 0 17 16" fill="none" xmlns="http://www.w3.org/2000/svg">
<path d="M8.99634 1.99999C8.10141 1.9977 7.2174 2.19655 6.40965 2.58185C5.6019 2.96714 4.89106 3.52903 4.32967 4.22599V2.66666H2.99634V6.66666H6.99634V5.33332H5.179C5.78977 4.46553 6.67872 3.83248 7.69853 3.53909C8.71835 3.2457 9.8078 3.30959 10.7863 3.72016C11.7649 4.13073 12.5737 4.86334 13.0789 5.79657C13.584 6.7298 13.7551 7.80763 13.5638 8.85142C13.3725 9.89521 12.8303 10.8423 12.0271 11.5357C11.2238 12.2292 10.2077 12.6273 9.14714 12.6642C8.0866 12.701 7.0453 12.3744 6.19582 11.7384C5.34633 11.1025 4.73966 10.1953 4.47634 9.16732L3.18567 9.50066C3.46632 10.5871 4.04602 11.5731 4.85892 12.3466C5.67182 13.1201 6.68535 13.6502 7.78438 13.8766C8.88342 14.103 10.0239 14.0167 11.0764 13.6274C12.1288 13.2381 13.051 12.5616 13.7382 11.6745C14.4254 10.7874 14.8501 9.72541 14.964 8.6091C15.0779 7.49278 14.8765 6.36689 14.3826 5.3593C13.8888 4.3517 13.1222 3.50279 12.1701 2.90898C11.218 2.31516 10.1185 2.00024 8.99634 1.99999Z" fill="currentColor"/>
</svg>
