<svg width="16" height="16" viewBox="0 0 16 16" fill="none" xmlns="http://www.w3.org/2000/svg">
<path d="M12 4.66666V4H10.6667V4.66666H6.66671V2.66666H2.66671V4.66666H1.33337V14H14.6667V4.66666H12ZM4.00004 4H5.33337V4.66666H4.00004V4ZM13.3334 12.6667H2.66671V6H13.3334V12.6667Z" fill="currentColor"/>
<path d="M13.3334 12.6667H2.66671V6H13.3334V12.6667Z" fill="currentColor"/>
<path d="M9.33341 12C9.86083 12 10.3764 11.8436 10.8149 11.5506C11.2535 11.2576 11.5953 10.8411 11.7971 10.3538C11.9989 9.86655 12.0517 9.33037 11.9488 8.81309C11.8459 8.29581 11.592 7.82065 11.219 7.44771C10.8461 7.07477 10.3709 6.8208 9.85366 6.7179C9.33637 6.61501 8.80019 6.66782 8.31293 6.86965C7.82566 7.07149 7.40918 7.41328 7.11616 7.85181C6.82315 8.29034 6.66675 8.80592 6.66675 9.33333C6.66675 10.0406 6.9477 10.7189 7.4478 11.2189C7.94789 11.719 8.62617 12 9.33341 12ZM9.33341 8C9.59712 8 9.85491 8.0782 10.0742 8.22471C10.2934 8.37121 10.4643 8.57945 10.5653 8.82309C10.6662 9.06672 10.6926 9.33481 10.6411 9.59345C10.5897 9.85209 10.4627 10.0897 10.2762 10.2761C10.0898 10.4626 9.85218 10.5896 9.59354 10.641C9.33489 10.6925 9.06681 10.6661 8.82317 10.5652C8.57954 10.4643 8.3713 10.2934 8.22479 10.0741C8.07828 9.85483 8.00008 9.59704 8.00008 9.33333C8.00008 8.97971 8.14056 8.64057 8.39061 8.39052C8.64065 8.14047 8.97979 8 9.33341 8Z" fill="white"/>
<path d="M5.33333 6.66666H4V8H5.33333V6.66666Z" fill="white"/>
</svg>
