<svg width="16" height="16" viewBox="0 0 16 16" fill="none" xmlns="http://www.w3.org/2000/svg">
<path d="M8.00002 14.78C7.48802 14.78 6.97602 14.5853 6.58602 14.1953L3.75736 11.3667C2.48602 10.0953 1.85536 8.33867 2.02736 6.54667C2.20002 4.75533 3.16869 3.14067 4.68602 2.11733C6.66869 0.780667 9.33202 0.780667 11.314 2.11733C12.8314 3.14133 13.8 4.75533 13.9727 6.54667C14.1447 8.33867 13.514 10.0953 12.2427 11.3667L9.41402 14.1953C9.02402 14.5853 8.51202 14.78 8.00002 14.78ZM8.00002 2.44533C7.10002 2.44533 6.20002 2.704 5.43136 3.22267C4.24602 4.02267 3.48869 5.28067 3.35469 6.67467C3.22069 8.06867 3.71069 9.43533 4.70002 10.4247L7.52869 13.2533C7.78069 13.5047 8.21936 13.5047 8.47136 13.2533L11.3 10.4247C12.2887 9.436 12.7794 8.06867 12.6454 6.67467C12.5114 5.28133 11.7547 4.02267 10.5687 3.22267C9.80002 2.70467 8.90002 2.44533 8.00002 2.44533Z" fill="currentColor"/>
<path d="M8.00002 2.44533C7.10002 2.44533 6.20002 2.704 5.43136 3.22267C4.24602 4.02267 3.48869 5.28067 3.35469 6.67467C3.22069 8.06867 3.71069 9.43533 4.70002 10.4247L7.52869 13.2533C7.78069 13.5047 8.21936 13.5047 8.47136 13.2533L11.3 10.4247C12.2887 9.436 12.7794 8.06867 12.6454 6.67467C12.5114 5.28133 11.7547 4.02267 10.5687 3.22267C9.80002 2.70467 8.90002 2.44533 8.00002 2.44533Z" fill="currentColor"/>
<path d="M8.00004 9.33333C6.52937 9.33333 5.33337 8.13733 5.33337 6.66667C5.33337 5.196 6.52937 4 8.00004 4C9.47071 4 10.6667 5.196 10.6667 6.66667C10.6667 8.13733 9.47071 9.33333 8.00004 9.33333ZM8.00004 5.33333C7.26471 5.33333 6.66671 5.93133 6.66671 6.66667C6.66671 7.402 7.26471 8 8.00004 8C8.73537 8 9.33337 7.402 9.33337 6.66667C9.33337 5.93133 8.73537 5.33333 8.00004 5.33333Z" fill="white"/>
</svg>
