<svg width="16" height="16" viewBox="0 0 16 16" fill="none" xmlns="http://www.w3.org/2000/svg">
<path d="M12 1.33334H3.99996C3.64634 1.33334 3.3072 1.47381 3.05715 1.72386C2.8071 1.97391 2.66663 2.31305 2.66663 2.66667V13.3333C2.66663 13.687 2.8071 14.0261 3.05715 14.2761C3.3072 14.5262 3.64634 14.6667 3.99996 14.6667H12C12.3536 14.6667 12.6927 14.5262 12.9428 14.2761C13.1928 14.0261 13.3333 13.687 13.3333 13.3333V2.66667C13.3333 2.31305 13.1928 1.97391 12.9428 1.72386C12.6927 1.47381 12.3536 1.33334 12 1.33334ZM3.99996 13.3333V2.66667H12V13.3333H3.99996Z" fill="currentColor"/>
<path d="M3.99996 13.3333V2.66667H12V13.3333H3.99996Z" fill="currentColor"/>
<path d="M6.66658 4H5.33325V5.33333H6.66658V4Z" fill="white"/>
<path d="M8.66659 4H7.33325V5.33333H8.66659V4Z" fill="white"/>
<path d="M10.6666 4H9.33325V5.33333H10.6666V4Z" fill="white"/>
<path d="M6.66658 6H5.33325V7.33333H6.66658V6Z" fill="white"/>
<path d="M8.66659 6H7.33325V7.33333H8.66659V6Z" fill="white"/>
<path d="M10.6666 6H9.33325V7.33333H10.6666V6Z" fill="white"/>
<path d="M6.66658 8H5.33325V9.33333H6.66658V8Z" fill="white"/>
<path d="M8.66659 8H7.33325V9.33333H8.66659V8Z" fill="white"/>
<path d="M10.6666 8H9.33325V9.33333H10.6666V8Z" fill="white"/>
<path d="M9.33329 10.6667H6.66663V12H9.33329V10.6667Z" fill="white"/>
</svg>
