<svg width="16" height="16" viewBox="0 0 16 16" fill="none" xmlns="http://www.w3.org/2000/svg">
<path d="M2.66675 2V14H13.3334V2H2.66675ZM12.0001 3.33333V5.33333H4.00008V3.33333H12.0001ZM11.3334 12.6667V11.3333H10.0001V12.6667H8.66675V11.3333H7.33341V12.6667H6.00008V11.3333H4.66675V12.6667H4.00008V6.66667H12.0001V12.6667H11.3334Z" fill="currentColor"/>
<path d="M12.0001 3.33333V5.33333H4.00008V3.33333H12.0001Z" fill="white"/>
<path d="M11.3334 12.6667V11.3333H10.0001V12.6667H8.66675V11.3333H7.33341V12.6667H6.00008V11.3333H4.66675V12.6667H4.00008V6.66667H12.0001V12.6667H11.3334Z" fill="currentColor"/>
<path d="M6.00008 7.33334H4.66675V8.66668H6.00008V7.33334Z" fill="white"/>
<path d="M8.66683 7.33334H7.3335V8.66668H8.66683V7.33334Z" fill="white"/>
<path d="M11.3333 7.33334H10V8.66668H11.3333V7.33334Z" fill="white"/>
<path d="M6.00008 9.33334H4.66675V10.6667H6.00008V9.33334Z" fill="white"/>
<path d="M8.66683 9.33334H7.3335V10.6667H8.66683V9.33334Z" fill="white"/>
<path d="M11.3333 9.33334H10V10.6667H11.3333V9.33334Z" fill="white"/>
</svg>
