<svg width="16" height="16" viewBox="0 0 16 16" fill="none" xmlns="http://www.w3.org/2000/svg">
<path d="M1.33325 2.66667V13.3333H8.66659V12H2.66659V5.91267L7.99992 9.46867L13.3333 5.91267V8H14.6666V2.66667H1.33325ZM7.99992 7.86534L2.66659 4.31001V4.00001H13.3333V4.31001L7.99992 7.86534Z" fill="currentColor"/>
<path d="M13.3333 12C13.3333 12.7353 12.7353 13.3333 11.9999 13.3333C11.2646 13.3333 10.6666 12.7353 10.6666 12V9.66667C10.6666 9.48333 10.8159 9.33333 10.9999 9.33333C11.1839 9.33333 11.3333 9.48333 11.3333 9.66667V12H12.6666V9.66667C12.6666 8.74733 11.9186 8 10.9999 8C10.0813 8 9.33325 8.74733 9.33325 9.66667V12C9.33325 13.4707 10.5293 14.6667 11.9999 14.6667C13.4706 14.6667 14.6666 13.4707 14.6666 12V10H13.3333V12Z" fill="currentColor"/>
</svg>
