<svg width="16" height="16" viewBox="0 0 16 16" fill="none" xmlns="http://www.w3.org/2000/svg">
<path d="M7.99996 12C5.05929 12 2.66663 9.60733 2.66663 6.66667C2.66663 3.726 5.05929 1.33333 7.99996 1.33333C10.9406 1.33333 13.3333 3.726 13.3333 6.66667C13.3333 9.60733 10.9406 12 7.99996 12ZM7.99996 2.66667C5.79396 2.66667 3.99996 4.46067 3.99996 6.66667C3.99996 8.87267 5.79396 10.6667 7.99996 10.6667C10.206 10.6667 12 8.87267 12 6.66667C12 4.46067 10.206 2.66667 7.99996 2.66667Z" fill="currentColor"/>
<path d="M7.99996 2.66667C5.79396 2.66667 3.99996 4.46067 3.99996 6.66667C3.99996 8.87267 5.79396 10.6667 7.99996 10.6667C10.206 10.6667 12 8.87267 12 6.66667C12 4.46067 10.206 2.66667 7.99996 2.66667Z" fill="currentColor"/>
<path d="M4.97999 15.1373L3.50865 12.742L0.894653 11.7087L3.48932 8.61667L4.51065 9.47334L3.10532 11.1487L4.41265 11.6653L5.14799 12.8627L6.79132 10.9047L7.81265 11.762L4.97999 15.1373Z" fill="currentColor"/>
<path d="M11.1706 15.1373L8.00464 11.364L9.02597 10.5073L11.0026 12.8627L11.738 11.6653L13.0453 11.1487L11.4893 9.294L12.5106 8.43667L15.2566 11.7087L12.642 12.742L11.1706 15.1373Z" fill="currentColor"/>
<path d="M2.66663 11.6667C2.88885 11 3.46663 9.53333 3.99996 9L11.3333 8.66667C12 9.11111 13.4666 10.1333 14 10.6667C14.5333 11.2 13.1111 11.7778 12.3333 12L10.6666 13.3333L7.99996 10.6667L4.99996 13.3333L3.99996 12L2.66663 11.6667Z" fill="currentColor"/>
<path d="M8.66671 4H7.33337V6H8.66671V4Z" fill="white"/>
<path d="M8.66671 7.33333H7.33337V9.33333H8.66671V7.33333Z" fill="white"/>
<path d="M10.6666 6H8.66663V7.33333H10.6666V6Z" fill="white"/>
<path d="M7.33337 6H5.33337V7.33333H7.33337V6Z" fill="white"/>
</svg>
