<svg width="16" height="16" viewBox="0 0 16 16" fill="none" xmlns="http://www.w3.org/2000/svg">
<path d="M13.5286 14.4713L14.4712 13.5287L13.6092 12.6667H13.9999V11.3333H13.1872L12.6666 9.25134V6.66668C12.6653 5.54545 12.2603 4.46217 11.5258 3.61503C10.7913 2.76789 9.7763 2.21352 8.66656 2.05334V1.33334H7.33323V2.05334C6.24404 2.21081 5.24587 2.7491 4.5159 3.57268L2.47123 1.52868L1.52856 2.47134L3.76856 4.71134C3.4824 5.32351 3.33381 5.99093 3.33323 6.66668V9.25134L2.81256 11.3333H1.9999V12.6667H5.4279C5.57341 13.2384 5.90527 13.7453 6.37104 14.1074C6.83681 14.4695 7.40995 14.6661 7.9999 14.6661C8.58985 14.6661 9.16298 14.4695 9.62875 14.1074C10.0945 13.7453 10.4264 13.2384 10.5719 12.6667H11.7239L13.5286 14.4713ZM7.9999 3.33334C8.88363 3.3344 9.73086 3.68593 10.3558 4.31082C10.9806 4.93572 11.3322 5.78295 11.3332 6.66668V9.33334L11.6719 10.7293L5.46656 4.52468C5.77633 4.15328 6.16362 3.85418 6.60126 3.64838C7.0389 3.44257 7.51628 3.33504 7.9999 3.33334ZM7.9999 13.3333C7.76689 13.3326 7.53817 13.2707 7.33667 13.1537C7.13517 13.0366 6.96799 12.8687 6.8519 12.6667H9.1479C9.03181 12.8687 8.86462 13.0366 8.66313 13.1537C8.46163 13.2707 8.23291 13.3326 7.9999 13.3333ZM4.18723 11.3333L4.64656 9.49534L4.66656 6.66668C4.67107 6.35678 4.71933 6.04908 4.8099 5.75268L10.3906 11.3333H4.18723Z" fill="currentColor"/>
</svg>
