<svg width="16" height="16" viewBox="0 0 16 16" fill="none" xmlns="http://www.w3.org/2000/svg">
<path d="M13.5286 14.4713L14.4712 13.5287L10.5746 9.632C11.3458 9.59074 12.0885 9.32687 12.7129 8.87232C13.3373 8.41777 13.8166 7.79201 14.0928 7.07076C14.369 6.34951 14.4303 5.56368 14.2692 4.80833C14.1081 4.05299 13.7316 3.36051 13.1852 2.81467C12.6396 2.26769 11.9471 1.89066 11.1916 1.72925C10.4361 1.56784 9.64993 1.62899 8.92845 1.90528C8.20696 2.18157 7.58107 2.66114 7.12661 3.28591C6.67214 3.91068 6.4086 4.65383 6.3679 5.42534L2.47123 1.52867L1.52856 2.47134L7.05723 8L5.17123 9.886L4.22856 10.8287L2.34323 12.714L3.2859 13.6567L3.75723 13.1853L5.17123 14.6L6.1139 13.6573L4.6999 12.2427L5.17123 11.7713L6.11456 12.714L7.05723 11.7713L6.11456 10.8287L7.9999 8.94267L13.5286 14.4713ZM8.47123 3.75734C8.84418 3.38441 9.31933 3.13045 9.83661 3.02757C10.3539 2.92468 10.8901 2.9775 11.3773 3.17934C11.8646 3.38118 12.2811 3.72297 12.5741 4.1615C12.8671 4.60003 13.0235 5.11559 13.0235 5.643C13.0235 6.17042 12.8671 6.68598 12.5741 7.12451C12.2811 7.56304 11.8646 7.90483 11.3773 8.10667C10.8901 8.30851 10.3539 8.36132 9.83661 8.25844C9.31933 8.15556 8.84418 7.9016 8.47123 7.52867C8.22264 7.28158 8.02535 6.98778 7.89073 6.66416C7.75611 6.34055 7.6868 5.99351 7.6868 5.643C7.6868 5.2925 7.75611 4.94546 7.89073 4.62185C8.02535 4.29823 8.22264 4.00443 8.47123 3.75734Z" fill="currentColor"/>
</svg>
