<svg width="16" height="16" viewBox="0 0 16 16" fill="none" xmlns="http://www.w3.org/2000/svg">
<path d="M13.5287 14.4713L14.4714 13.5287L10.5747 9.632C11.3459 9.59074 12.0886 9.32687 12.713 8.87232C13.3374 8.41777 13.8167 7.79201 14.0929 7.07076C14.3691 6.34951 14.4304 5.56368 14.2693 4.80833C14.1083 4.05299 13.7317 3.36051 13.1854 2.81467C12.6397 2.26769 11.9472 1.89066 11.1917 1.72925C10.4362 1.56784 9.65005 1.62899 8.92857 1.90528C8.20708 2.18157 7.5812 2.66114 7.12673 3.28591C6.67226 3.91068 6.40872 4.65383 6.36802 5.42534L2.47135 1.52867L1.52869 2.47134L7.05735 8L5.17135 9.886L4.22869 10.8287L2.34335 12.714L3.28602 13.6567L3.75735 13.1853L5.17135 14.6L6.11402 13.6573L4.70002 12.2427L5.17135 11.7713L6.11469 12.714L7.05735 11.7713L6.11469 10.8287L8.00002 8.94267L13.5287 14.4713ZM8.47135 3.75734C8.8443 3.38441 9.31945 3.13045 9.83673 3.02757C10.354 2.92468 10.8902 2.9775 11.3774 3.17934C11.8647 3.38118 12.2812 3.72297 12.5742 4.1615C12.8672 4.60003 13.0236 5.11559 13.0236 5.643C13.0236 6.17042 12.8672 6.68598 12.5742 7.12451C12.2812 7.56304 11.8647 7.90483 11.3774 8.10667C10.8902 8.30851 10.354 8.36132 9.83673 8.25844C9.31945 8.15556 8.8443 7.9016 8.47135 7.52867C8.22276 7.28158 8.02548 6.98778 7.89085 6.66416C7.75623 6.34055 7.68692 5.99351 7.68692 5.643C7.68692 5.2925 7.75623 4.94546 7.89085 4.62185C8.02548 4.29823 8.22276 4.00443 8.47135 3.75734Z" fill="currentColor"/>
<path d="M8.47135 3.75734C8.8443 3.38441 9.31945 3.13045 9.83673 3.02757C10.354 2.92468 10.8902 2.9775 11.3774 3.17934C11.8647 3.38118 12.2812 3.72297 12.5742 4.1615C12.8672 4.60003 13.0236 5.11559 13.0236 5.643C13.0236 6.17042 12.8672 6.68598 12.5742 7.12451C12.2812 7.56304 11.8647 7.90483 11.3774 8.10667C10.8902 8.30851 10.354 8.36132 9.83673 8.25844C9.31945 8.15556 8.8443 7.9016 8.47135 7.52867C8.22276 7.28158 8.02548 6.98778 7.89085 6.66416C7.75623 6.34055 7.68692 5.99351 7.68692 5.643C7.68692 5.2925 7.75623 4.94546 7.89085 4.62185C8.02548 4.29823 8.22276 4.00443 8.47135 3.75734Z" fill="currentColor"/>
</svg>
