<svg width="16" height="16" viewBox="0 0 16 16" fill="none" xmlns="http://www.w3.org/2000/svg">
<path d="M2.66671 3.33334H13.3334C13.687 3.33334 14.0261 3.47382 14.2762 3.72387C14.5262 3.97392 14.6667 4.31306 14.6667 4.66668V11.3333C14.6667 11.687 14.5262 12.0261 14.2762 12.2762C14.0261 12.5262 13.687 12.6667 13.3334 12.6667H2.66671C2.31309 12.6667 1.97395 12.5262 1.7239 12.2762C1.47385 12.0261 1.33337 11.687 1.33337 11.3333V4.66668C1.33337 4.31306 1.47385 3.97392 1.7239 3.72387C1.97395 3.47382 2.31309 3.33334 2.66671 3.33334Z" fill="currentColor"/>
<path d="M9.33337 5.33333C8.86582 5.33534 8.40716 5.46116 8.00403 5.698C7.59928 5.46038 7.13899 5.3338 6.66965 5.33104C6.20031 5.32828 5.73856 5.44944 5.33104 5.68228C4.92352 5.91513 4.58468 6.2514 4.34874 6.65713C4.1128 7.06286 3.98812 7.52368 3.98731 7.99303C3.98649 8.46237 4.10957 8.92362 4.34409 9.33017C4.57862 9.73672 4.9163 10.0742 5.323 10.3084C5.72971 10.5427 6.19104 10.6654 6.66038 10.6643C7.12973 10.6632 7.59046 10.5382 7.99603 10.302C8.34999 10.509 8.7469 10.6315 9.15592 10.6601C9.56494 10.6888 9.97506 10.6227 10.3544 10.467C10.7337 10.3114 11.072 10.0704 11.3431 9.76269C11.6141 9.45502 11.8105 9.08899 11.9171 8.69306C12.0237 8.29713 12.0375 7.88196 11.9575 7.47981C11.8775 7.07766 11.7059 6.69938 11.4559 6.37435C11.206 6.04933 10.8845 5.78632 10.5163 5.60577C10.1482 5.42522 9.74339 5.33199 9.33337 5.33333ZM9.33337 9.33333C9.22069 9.33183 9.10867 9.31592 9.00003 9.286C9.07142 9.15809 9.13164 9.02426 9.18003 8.886L7.9227 8.442C7.8416 8.6728 7.69857 8.87684 7.50926 9.03179C7.31995 9.18674 7.09166 9.28661 6.84939 9.32049C6.60711 9.35436 6.36018 9.32093 6.13563 9.22384C5.91109 9.12676 5.71758 8.96977 5.57629 8.77006C5.435 8.57035 5.35138 8.33562 5.33458 8.09157C5.31777 7.84751 5.36844 7.60353 5.48103 7.38635C5.59362 7.16916 5.7638 6.98714 5.97292 6.8602C6.18205 6.73326 6.42207 6.66631 6.6667 6.66667C6.77938 6.66817 6.89139 6.68408 7.00003 6.714C6.92892 6.84205 6.86871 6.97585 6.82003 7.114L8.07737 7.558C8.15846 7.3272 8.3015 7.12316 8.49081 6.96821C8.68012 6.81326 8.9084 6.71339 9.15068 6.67951C9.39296 6.64564 9.63989 6.67907 9.86444 6.77615C10.089 6.87324 10.2825 7.03023 10.4238 7.22993C10.5651 7.42964 10.6487 7.66438 10.6655 7.90843C10.6823 8.15249 10.6316 8.39647 10.519 8.61365C10.4064 8.83084 10.2363 9.01286 10.0271 9.1398C9.81802 9.26673 9.578 9.33369 9.33337 9.33333Z" fill="white"/>
</svg>
