<svg width="16" height="16" viewBox="0 0 16 16" fill="none" xmlns="http://www.w3.org/2000/svg">
<path d="M14.5533 7.628C14.4353 7.45266 11.6273 3.33333 7.99995 3.33333C4.37262 3.33333 1.56462 7.45266 1.44662 7.628L1.19995 8L1.44928 8.372C1.56462 8.54733 4.37262 12.6667 7.99995 12.6667C11.6273 12.6667 14.4353 8.54733 14.5533 8.372L14.8 8L14.5533 7.628ZM7.99995 11.3333C5.64595 11.3333 3.55728 8.94 2.82795 8C3.55728 7.06 5.64595 4.66666 7.99995 4.66666C10.354 4.66666 12.4426 7.06 13.172 8C12.4426 8.94 10.354 11.3333 7.99995 11.3333Z" fill="currentColor"/>
<path d="M7.99995 11.3333C5.64595 11.3333 3.55728 8.94 2.82795 8C3.55728 7.06 5.64595 4.66666 7.99995 4.66666C10.354 4.66666 12.4426 7.06 13.172 8C12.4426 8.94 10.354 11.3333 7.99995 11.3333Z" fill="currentColor"/>
<path d="M7.99992 5.33333C7.4725 5.33333 6.95693 5.48973 6.5184 5.78274C6.07987 6.07576 5.73807 6.49224 5.53624 6.97951C5.33441 7.46677 5.2816 8.00295 5.38449 8.52024C5.48739 9.03752 5.74136 9.51267 6.1143 9.88561C6.48724 10.2586 6.9624 10.5125 7.47968 10.6154C7.99696 10.7183 8.53314 10.6655 9.02041 10.4637C9.50768 10.2618 9.92415 9.92005 10.2172 9.48151C10.5102 9.04298 10.6666 8.52741 10.6666 7.99999C10.6666 7.29275 10.3856 6.61447 9.88554 6.11438C9.38544 5.61428 8.70716 5.33333 7.99992 5.33333ZM7.99992 9.33333C7.73621 9.33333 7.47843 9.25513 7.25916 9.10862C7.03989 8.96211 6.869 8.75387 6.76808 8.51024C6.66716 8.2666 6.64076 7.99852 6.69221 7.73987C6.74365 7.48123 6.87064 7.24366 7.05711 7.05719C7.24358 6.87072 7.48116 6.74373 7.7398 6.69228C7.99844 6.64083 8.26653 6.66724 8.51016 6.76816C8.7538 6.86907 8.96204 7.03997 9.10855 7.25923C9.25505 7.4785 9.33325 7.73629 9.33325 7.99999C9.33325 8.35362 9.19278 8.69275 8.94273 8.9428C8.69268 9.19285 8.35354 9.33333 7.99992 9.33333Z" fill="white"/>
</svg>
