<svg width="16" height="16" viewBox="0 0 16 16" fill="none" xmlns="http://www.w3.org/2000/svg">
<path d="M3.33333 6H4.66667V4.66667H6V3.33333H4.66667V2H3.33333V3.33333H2V4.66667H3.33333V6Z" fill="currentColor"/>
<path d="M14 3.33334H10V4.66668H14V3.33334Z" fill="currentColor"/>
<path d="M4.86198 10.1953L3.99998 11.0573L3.13798 10.1953L2.19531 11.138L3.05731 12L2.19531 12.862L3.13798 13.8047L3.99998 12.9427L4.86198 13.8047L5.80465 12.862L4.94265 12L5.80465 11.138L4.86198 10.1953Z" fill="currentColor"/>
<path d="M12.6666 10H11.3333V11.3333H12.6666V10Z" fill="currentColor"/>
<path d="M12.6666 12H11.3333V13.3333H12.6666V12Z" fill="currentColor"/>
<path d="M8.66667 2H7.33333V7.33333H2V8.66667H7.33333V14H8.66667V8.66667H14V7.33333H8.66667V2Z" fill="currentColor"/>
</svg>
