<svg width="16" height="16" viewBox="0 0 16 16" fill="none" xmlns="http://www.w3.org/2000/svg">
<path d="M5.7723 15L6.07447 8.97581H4L4.4629 2H10.7035L9.24404 5.21122L12 5.34537L5.7723 15ZM5.14224 7.92777H7.19743L7.04099 11.0677L10.1163 6.30329L7.63032 6.18172L9.05331 3.04805H5.46799L5.14224 7.92777Z" fill="currentColor"/>
<path fill-rule="evenodd" clip-rule="evenodd" d="M5.8495 7.69925C3.29654 5.56072 1.06236 3.66484 0.642019 3.24451L1.34913 2.5374C1.72879 2.91706 3.91127 4.77118 6.49164 6.93266C9.05728 9.0818 11.9807 11.5055 13.8122 13.004L13.179 13.7779C11.3437 12.2764 8.41719 9.8501 5.8495 7.69925Z" fill="currentColor"/>
</svg>
