<svg width="16" height="16" viewBox="0 0 16 16" fill="none" xmlns="http://www.w3.org/2000/svg">
<path d="M13.8532 6.91667C13.7265 6.75867 13.5352 6.66667 13.3332 6.66667H11.0785L8.59588 1.70201C8.36988 1.25001 7.62921 1.25001 7.40321 1.70201L4.92121 6.66667H2.66655C2.46455 6.66667 2.27321 6.75867 2.14655 6.91667C2.02055 7.07401 1.97188 7.28067 2.01588 7.47801L3.34921 13.478C3.41655 13.7827 3.68721 14 3.99988 14H11.9999C12.3125 14 12.5832 13.7827 12.6505 13.478L13.9839 7.47801C14.0279 7.28067 13.9799 7.07401 13.8532 6.91667ZM7.99988 3.49067L9.58788 6.66667H6.41188L7.99988 3.49067ZM11.4652 12.6667H4.53455L3.49721 8.00001H12.5019L11.4652 12.6667Z" fill="currentColor"/>
</svg>
