<svg width="16" height="16" viewBox="0 0 16 16" fill="none" xmlns="http://www.w3.org/2000/svg">
<path d="M7.91667 1.25C4.24062 1.25 1.25 4.24062 1.25 7.91667C1.25 11.5927 4.24062 14.5833 7.91667 14.5833C11.5927 14.5833 14.5833 11.5927 14.5833 7.91667C14.5833 4.24062 11.5927 1.25 7.91667 1.25ZM7.91667 13.1019C5.05774 13.1019 2.73148 10.7756 2.73148 7.91667C2.73148 5.05774 5.05774 2.73148 7.91667 2.73148C10.7763 2.73148 13.1019 5.05774 13.1019 7.91667C13.1019 10.7756 10.7763 13.1019 7.91667 13.1019Z" fill="currentColor"/>
<path d="M7.91667 13.1019C5.05774 13.1019 2.73148 10.7756 2.73148 7.91667C2.73148 5.05774 5.05774 2.73148 7.91667 2.73148C10.7763 2.73148 13.1019 5.05774 13.1019 7.91667C13.1019 10.7756 10.7763 13.1019 7.91667 13.1019Z" fill="currentColor"/>
<path d="M11.2089 7.25824H4.62451V8.57511H11.2089V7.25824Z" fill="white"/>
</svg>
