<svg width="16" height="16" viewBox="0 0 16 16" fill="none" xmlns="http://www.w3.org/2000/svg">
<path d="M14.9847 8L13.3334 3.87133V1.33333H2.66671V3.87133L1.01538 8H2.66671V14.6667H13.3334V8H14.9847ZM3.78471 4.66667H5.85138L5.45138 6.66667H2.98471L3.78471 4.66667ZM7.21338 4.66667H8.78671L9.18671 6.66667H6.81338L7.21338 4.66667ZM10.5467 6.66667L10.1467 4.66667H12.2134L13.0134 6.66667H10.5467ZM4.00005 2.66667H12V3.33333H4.00005V2.66667ZM7.33338 13.3333V10.6667H8.66671V13.3333H7.33338ZM12 13.3333H10V9.33333H6.00005V13.3333H4.00005V8H12V13.3333Z" fill="currentColor"/>
<path d="M3.78471 4.66667H5.85138L5.45138 6.66667H2.98471L3.78471 4.66667Z" fill="currentColor"/>
<path d="M7.21338 4.66667H8.78671L9.18671 6.66667H6.81338L7.21338 4.66667Z" fill="currentColor"/>
<path d="M10.5467 6.66667L10.1467 4.66667H12.2134L13.0134 6.66667H10.5467Z" fill="currentColor"/>
<path d="M4.00005 2.66667H12V3.33333H4.00005V2.66667Z" fill="currentColor"/>
<path d="M12 13.3333H10V9.33333H6.00005V13.3333H4.00005V8H12V13.3333Z" fill="currentColor"/>
</svg>
