<svg width="16" height="16" viewBox="0 0 16 16" fill="none" xmlns="http://www.w3.org/2000/svg">
<path d="M9.33329 2H6.66663C5.60608 2.00106 4.58928 2.42283 3.83937 3.17274C3.08945 3.92266 2.66768 4.93946 2.66663 6V12C2.66663 12.5304 2.87734 13.0391 3.25241 13.4142C3.62749 13.7893 4.13619 14 4.66663 14C5.19706 14 5.70577 13.7893 6.08084 13.4142C6.45591 13.0391 6.66663 12.5304 6.66663 12V10C6.66663 9.46957 6.45591 8.96086 6.08084 8.58579C5.70577 8.21071 5.19706 8 4.66663 8H3.99996V6C3.99996 5.29276 4.28091 4.61448 4.78101 4.11438C5.2811 3.61428 5.95938 3.33333 6.66663 3.33333H9.33329C10.0405 3.33333 10.7188 3.61428 11.2189 4.11438C11.719 4.61448 12 5.29276 12 6V8H11.3333C10.8029 8 10.2942 8.21071 9.91908 8.58579C9.544 8.96086 9.33329 9.46957 9.33329 10V12C9.33329 12.5304 9.544 13.0391 9.91908 13.4142C10.2942 13.7893 10.8029 14 11.3333 14C11.8637 14 12.3724 13.7893 12.7475 13.4142C13.1226 13.0391 13.3333 12.5304 13.3333 12V6C13.3322 4.93946 12.9105 3.92266 12.1605 3.17274C11.4106 2.42283 10.3938 2.00106 9.33329 2ZM5.33329 10V12C5.33329 12.1768 5.26305 12.3464 5.13803 12.4714C5.01301 12.5964 4.84344 12.6667 4.66663 12.6667C4.48981 12.6667 4.32025 12.5964 4.19522 12.4714C4.0702 12.3464 3.99996 12.1768 3.99996 12V9.33333H4.66663C4.84344 9.33333 5.01301 9.40357 5.13803 9.5286C5.26305 9.65362 5.33329 9.82319 5.33329 10ZM12 12C12 12.1768 11.9297 12.3464 11.8047 12.4714C11.6797 12.5964 11.5101 12.6667 11.3333 12.6667C11.1565 12.6667 10.9869 12.5964 10.8619 12.4714C10.7369 12.3464 10.6666 12.1768 10.6666 12V10C10.6666 9.82319 10.7369 9.65362 10.8619 9.5286C10.9869 9.40357 11.1565 9.33333 11.3333 9.33333H12V12Z" fill="currentColor"/>
<path d="M5.33329 10V12C5.33329 12.1768 5.26305 12.3464 5.13803 12.4714C5.01301 12.5964 4.84344 12.6667 4.66663 12.6667C4.48981 12.6667 4.32025 12.5964 4.19522 12.4714C4.0702 12.3464 3.99996 12.1768 3.99996 12V9.33333H4.66663C4.84344 9.33333 5.01301 9.40357 5.13803 9.5286C5.26305 9.65362 5.33329 9.82319 5.33329 10Z" fill="currentColor"/>
<path d="M12 12C12 12.1768 11.9297 12.3464 11.8047 12.4714C11.6797 12.5964 11.5101 12.6667 11.3333 12.6667C11.1565 12.6667 10.9869 12.5964 10.8619 12.4714C10.7369 12.3464 10.6666 12.1768 10.6666 12V10C10.6666 9.82319 10.7369 9.65362 10.8619 9.5286C10.9869 9.40357 11.1565 9.33333 11.3333 9.33333H12V12Z" fill="currentColor"/>
</svg>
