<svg width="16" height="16" viewBox="0 0 16 16" fill="none" xmlns="http://www.w3.org/2000/svg">
<path d="M8.00004 1.33334C6.6815 1.33334 5.39257 1.72434 4.29624 2.45688C3.19991 3.18942 2.34543 4.23061 1.84085 5.44879C1.33626 6.66696 1.20424 8.00741 1.46148 9.30061C1.71871 10.5938 2.35365 11.7817 3.286 12.7141C4.21835 13.6464 5.40624 14.2813 6.69944 14.5386C7.99265 14.7958 9.33309 14.6638 10.5513 14.1592C11.7694 13.6546 12.8106 12.8001 13.5432 11.7038C14.2757 10.6075 14.6667 9.31855 14.6667 8.00001C14.6648 6.2325 13.9618 4.53793 12.7119 3.28811C11.4621 2.03829 9.76756 1.33528 8.00004 1.33334Z" fill="currentColor"/>
<path d="M7.52871 5.80467L9.05737 7.33333H5.33337V8.66667H9.05737L7.52871 10.1953L8.47137 11.138L11.6094 8L8.47137 4.862L7.52871 5.80467Z" fill="white"/>
</svg>
