<svg width="16" height="16" viewBox="0 0 16 16" fill="none" xmlns="http://www.w3.org/2000/svg">
<path d="M14 12.6667H2V9.33333H2.66667C3.402 9.33333 4 8.73533 4 8C4 7.26467 3.402 6.66667 2.66667 6.66667H2V3.33333H14V12.6667ZM3.33333 11.3333H12.6667V4.66667H3.33333V5.41733C4.48267 5.71467 5.33333 6.76 5.33333 8C5.33333 9.24 4.48267 10.2853 3.33333 10.5827V11.3333Z" fill="currentColor"/>
<path d="M7.33334 10C7.16267 10 6.992 9.93467 6.862 9.80467C6.60134 9.544 6.60134 9.12267 6.862 8.862L9.52867 6.19533C9.78934 5.93467 10.2107 5.93467 10.4713 6.19533C10.732 6.456 10.732 6.87733 10.4713 7.138L7.80467 9.80467C7.67467 9.93467 7.504 10 7.33334 10Z" fill="currentColor"/>
<path d="M7.33341 7.33333C7.7016 7.33333 8.00008 7.03486 8.00008 6.66667C8.00008 6.29848 7.7016 6 7.33341 6C6.96522 6 6.66675 6.29848 6.66675 6.66667C6.66675 7.03486 6.96522 7.33333 7.33341 7.33333Z" fill="currentColor"/>
<path d="M9.99992 10C10.3681 10 10.6666 9.70152 10.6666 9.33333C10.6666 8.96514 10.3681 8.66667 9.99992 8.66667C9.63173 8.66667 9.33325 8.96514 9.33325 9.33333C9.33325 9.70152 9.63173 10 9.99992 10Z" fill="currentColor"/>
</svg>
