<svg width="16" height="16" viewBox="0 0 16 16" fill="none" xmlns="http://www.w3.org/2000/svg">
<path d="M10.5959 14.826C8.58389 14.826 6.21656 13.758 4.22856 11.7713C1.05656 8.59867 0.228557 4.45734 2.34322 2.34267C2.96789 1.71867 3.72789 1.33867 4.60456 1.21201L5.11122 1.13867L6.97589 5.48667L5.11122 6.41867C5.54322 7.23734 6.19789 8.08334 7.05722 8.94267C7.87656 9.762 8.72189 10.412 9.57056 10.8733L10.4466 9.15801L14.7686 9.77534L14.7939 10.3267C14.8572 11.6993 14.4639 12.8507 13.6566 13.6573C12.8672 14.4467 11.7946 14.826 10.5959 14.826ZM4.30722 2.64801C3.92389 2.77667 3.58122 2.99067 3.28589 3.28667C1.75256 4.81934 2.61656 8.27334 5.17122 10.8287C7.72722 13.384 11.1806 14.246 12.7139 12.714C13.2246 12.2033 13.4086 11.53 13.4539 10.934L11.2092 10.6133L10.7786 11.476C10.6159 11.8013 10.3352 12.0407 9.98789 12.1493C9.64056 12.2593 9.25522 12.22 8.93256 12.0447C7.97256 11.5227 7.02389 10.796 6.11389 9.88601C5.16056 8.93267 4.42789 7.98001 3.93522 7.05401C3.76389 6.73067 3.73122 6.36134 3.84189 6.01334C3.95256 5.66734 4.19189 5.38801 4.51656 5.22534L5.25389 4.85667L4.30722 2.64801Z" fill="currentColor"/>
<path d="M4.30722 2.64801C3.92389 2.77667 3.58122 2.99067 3.28589 3.28667C1.75256 4.81934 2.61656 8.27334 5.17122 10.8287C7.72722 13.384 11.1806 14.246 12.7139 12.714C13.2246 12.2033 13.4086 11.53 13.4539 10.934L11.2092 10.6133L10.7786 11.476C10.6159 11.8013 10.3352 12.0407 9.98789 12.1493C9.64056 12.2593 9.25522 12.22 8.93256 12.0447C7.97256 11.5227 7.02389 10.796 6.11389 9.88601C5.16056 8.93267 4.42789 7.98001 3.93522 7.05401C3.76389 6.73067 3.73122 6.36134 3.84189 6.01334C3.95256 5.66734 4.19189 5.38801 4.51656 5.22534L5.25389 4.85667L4.30722 2.64801Z" fill="currentColor"/>
</svg>
