<svg width="16" height="16" viewBox="0 0 16 16" fill="none" xmlns="http://www.w3.org/2000/svg">
<path d="M4 11.3333L4.48152 9.32825L4.50249 5.51516C4.50249 4.31225 5.44317 3.33334 6.59911 3.33334H9.3946C10.5505 3.33334 11.4912 4.31225 11.4912 5.51516V9.15153L12 11.3333H4Z" fill="currentColor"/>
<path d="M14 11.3333H13.1873L12.6667 9.25134V6.66668C12.6654 5.54545 12.2604 4.46217 11.5259 3.61503C10.7914 2.76789 9.7764 2.21352 8.66667 2.05334V1.33334H7.33333V2.05334C6.2236 2.21352 5.20864 2.76789 4.47412 3.61503C3.7396 4.46217 3.33465 5.54545 3.33333 6.66668V9.25134L2.81267 11.3333H2V12.6667H5.428C5.57351 13.2384 5.90537 13.7453 6.37114 14.1074C6.83692 14.4695 7.41005 14.6661 8 14.6661C8.58995 14.6661 9.16308 14.4695 9.62886 14.1074C10.0946 13.7453 10.4265 13.2384 10.572 12.6667H14V11.3333ZM4.64667 9.49534L4.66667 6.66668C4.66667 5.78262 5.01786 4.93478 5.64298 4.30965C6.2681 3.68453 7.11595 3.33334 8 3.33334C8.88406 3.33334 9.7319 3.68453 10.357 4.30965C10.9821 4.93478 11.3333 5.78262 11.3333 6.66668V9.33334L11.8187 11.3333H4.18733L4.64667 9.49534ZM8 13.3333C7.76699 13.3326 7.53827 13.2707 7.33677 13.1537C7.13528 13.0366 6.96809 12.8687 6.852 12.6667H9.148C9.03191 12.8687 8.86472 13.0366 8.66323 13.1537C8.46173 13.2707 8.23301 13.3326 8 13.3333Z" fill="currentColor"/>
</svg>
