<svg width="16" height="16" viewBox="0 0 16 16" fill="none" xmlns="http://www.w3.org/2000/svg">
<path d="M10.6666 4.66667V3.33333C10.6666 2.23067 9.76929 1.33333 8.66663 1.33333H7.33329C6.23063 1.33333 5.33329 2.23067 5.33329 3.33333V4.66667H2.66663V14H13.3333V4.66667H10.6666ZM6.66663 3.33333C6.66663 2.966 6.96529 2.66667 7.33329 2.66667H8.66663C9.03463 2.66667 9.33329 2.966 9.33329 3.33333V4.66667H6.66663V3.33333ZM12 12.6667H3.99996V6H5.33329V8H6.66663V6H9.33329V8H10.6666V6H12V12.6667Z" fill="currentColor"/>
<path d="M12 12.6667H3.99996V6H5.33329V8H6.66663V6H9.33329V8H10.6666V6H12V12.6667Z" fill="currentColor"/>
</svg>
