<svg width="16" height="16" viewBox="0 0 16 16" fill="none" xmlns="http://www.w3.org/2000/svg">
<path d="M3.33337 2.66667H12.6667V13.3333L10 11L8.00004 13.3333L6.00004 11L3.33337 13.3333V2.66667Z" fill="currentColor"/>
<path d="M12.6666 14.6667C12.298 14.6667 12 14.368 12 14V3.33333H3.99996V14C3.99996 14.368 3.70196 14.6667 3.33329 14.6667C2.96463 14.6667 2.66663 14.368 2.66663 14V2H13.3333V14C13.3333 14.368 13.0353 14.6667 12.6666 14.6667Z" fill="currentColor"/>
<path d="M12.6667 14.6667C12.4961 14.6667 12.3254 14.6013 12.1954 14.4713L10.0721 12.348L8.53339 14.4C8.28206 14.7353 7.71806 14.736 7.46673 14.4L5.92739 12.3487L3.80406 14.4713C3.54339 14.732 3.12206 14.732 2.86139 14.4713C2.60073 14.2107 2.60073 13.7887 2.86139 13.5287L5.52806 10.8627C5.66473 10.726 5.84739 10.656 6.04673 10.6687C6.23939 10.6827 6.41673 10.7793 6.53273 10.9333L7.99939 12.8887L9.46606 10.9327C9.58206 10.778 9.75873 10.6813 9.95206 10.668C10.1521 10.6553 10.3341 10.7247 10.4707 10.862L13.1374 13.5287C13.3981 13.7893 13.3981 14.2107 13.1374 14.4713C13.0081 14.6013 12.8374 14.6667 12.6667 14.6667Z" fill="currentColor"/>
<path d="M10.6667 4.66667H5.33337V6H10.6667V4.66667Z" fill="white"/>
<path d="M10 7.33333H6V8.66667H10V7.33333Z" fill="white"/>
</svg>
