<svg width="16" height="16" viewBox="0 0 16 16" fill="none" xmlns="http://www.w3.org/2000/svg">
<path d="M14.6667 8.66666V8C14.6667 6.23189 13.9643 4.53619 12.7141 3.28595C11.4638 2.03571 9.76815 1.33333 8.00004 1.33333C6.23193 1.33333 4.53624 2.03571 3.286 3.28595C2.03575 4.53619 1.33337 6.23189 1.33337 8V8.66666H7.33337V13.3333C7.33337 13.687 7.47385 14.0261 7.7239 14.2761C7.97395 14.5262 8.31309 14.6667 8.66671 14.6667H9.33337C9.687 14.6667 10.0261 14.5262 10.2762 14.2761C10.5262 14.0261 10.6667 13.687 10.6667 13.3333V12.6667H9.33337V13.3333H8.66671V8.66666H14.6667ZM8.00004 2.66666C9.29863 2.6684 10.5521 3.1431 11.5261 4.00199C12.5001 4.86089 13.1279 6.04515 13.292 7.33333H2.70804C2.87221 6.04515 3.49998 4.86089 4.47397 4.00199C5.44795 3.1431 6.70145 2.6684 8.00004 2.66666Z" fill="currentColor"/>
<path d="M8.00004 2.66666C9.29863 2.6684 10.5521 3.1431 11.5261 4.00199C12.5001 4.86089 13.1279 6.04515 13.292 7.33333H2.70804C2.87221 6.04515 3.49998 4.86089 4.47397 4.00199C5.44795 3.1431 6.70145 2.6684 8.00004 2.66666Z" fill="currentColor"/>
</svg>
