<svg width="16" height="16" viewBox="0 0 16 16" fill="none" xmlns="http://www.w3.org/2000/svg">
<path d="M14.8474 8.53333C14.7841 8.44957 14.7111 8.3735 14.6301 8.30667L14.0621 3.18933C14.0266 2.8626 13.8717 2.56049 13.6271 2.34098C13.3825 2.12148 13.0654 2.00005 12.7368 2H10.0001V3.33333H12.7368L13.2554 8H2.74476L3.26343 3.33333H6.0001V2H3.26343C2.93541 2.00012 2.61894 2.12116 2.37455 2.33997C2.13016 2.55877 1.97501 2.85998 1.93876 3.186L1.3701 8.30333C1.28907 8.37016 1.21613 8.44624 1.15276 8.53C1.02746 8.69439 0.942357 8.88581 0.904272 9.08897C0.866187 9.29214 0.876173 9.50139 0.933431 9.7L1.8861 13.0333C1.96651 13.3117 2.13509 13.5564 2.36652 13.7307C2.59794 13.9051 2.8797 13.9995 3.16943 14H6.1861C6.4662 14.0004 6.7393 13.9126 6.96667 13.749C7.19404 13.5854 7.36411 13.3544 7.45276 13.0887L7.8141 12H8.1861L8.54876 13.0887C8.63734 13.3541 8.80722 13.585 9.03432 13.7486C9.26142 13.9122 9.53423 14.0001 9.8141 14H12.8308C13.1202 13.9991 13.4015 13.9044 13.6325 13.7301C13.8635 13.5558 14.0318 13.3114 14.1121 13.0333L15.0648 9.7C15.1218 9.50203 15.1318 9.29349 15.0941 9.09097C15.0563 8.88844 14.9719 8.6975 14.8474 8.53333ZM12.8308 12.6667H9.8141L9.14743 10.6667H6.85276L6.1861 12.6667H3.16943L2.21743 9.33333H13.7828L12.8308 12.6667Z" fill="currentColor"/>
<path d="M12.8308 12.6667H9.8141L9.14743 10.6667H6.85276L6.1861 12.6667H3.16943L2.21743 9.33333H13.7828L12.8308 12.6667Z" fill="currentColor"/>
</svg>
