<svg width="16" height="16" viewBox="0 0 16 16" fill="none" xmlns="http://www.w3.org/2000/svg">
<path d="M14.794 10.326L14.7686 9.77467L10.4466 9.15734L9.56998 10.8727C8.72198 10.412 7.87598 9.76201 7.05664 8.94201C6.19731 8.08334 5.54331 7.23667 5.11064 6.418L6.97398 5.48667L5.11131 1.13867L4.60464 1.21201C3.72731 1.33934 2.96664 1.72001 2.34331 2.34334C0.228644 4.45801 1.05664 8.60001 4.22931 11.772C6.21664 13.7587 8.58464 14.8267 10.596 14.826C11.7946 14.826 12.8673 14.4473 13.6573 13.6573C14.464 12.85 14.8573 11.6987 14.794 10.326ZM12.714 12.714C11.1813 14.246 7.72664 13.3827 5.17131 10.8287C2.61598 8.27334 1.75264 4.81934 3.28598 3.28601C3.58131 2.99134 3.92398 2.77667 4.30731 2.64801L5.25398 4.85667L4.51598 5.22534C4.19198 5.38734 3.95264 5.66734 3.84198 6.01334C3.73064 6.36067 3.76464 6.73067 3.93664 7.05401C4.42931 7.98134 5.16198 8.93334 6.11464 9.88601C7.02398 10.796 7.97264 11.5227 8.93398 12.0453C9.25731 12.2207 9.64198 12.2587 9.98998 12.1493C10.3366 12.04 10.6166 11.8013 10.7793 11.476L11.2106 10.6133L13.4553 10.934C13.4086 11.53 13.224 12.204 12.714 12.714Z" fill="currentColor"/>
<path d="M12.714 12.714C11.1787 14.2473 7.726 13.3833 5.17133 10.8287C2.616 8.27334 1.75267 4.81934 3.286 3.28601C3.58133 2.99134 3.924 2.77668 4.30733 2.64801L5.254 4.85668L4.516 5.22534C4.192 5.38734 3.95267 5.66734 3.842 6.01334C3.73067 6.36068 3.76467 6.73068 3.93667 7.05401C4.42933 7.98134 5.162 8.93334 6.11467 9.88601C7.024 10.796 7.97267 11.5227 8.93333 12.0447C9.25533 12.2207 9.64133 12.2587 9.98867 12.1493C10.336 12.0407 10.616 11.802 10.7793 11.476L11.21 10.6133L13.4547 10.934C13.4087 11.53 13.2247 12.204 12.714 12.714Z" fill="currentColor"/>
<path d="M14 2H12.6666V7.33333H14V2Z" fill="currentColor"/>
<path d="M11.3333 2H10V7.33333H11.3333V2Z" fill="currentColor"/>
</svg>
