<svg width="16" height="16" viewBox="0 0 16 16" fill="none" xmlns="http://www.w3.org/2000/svg">
<path d="M6.66671 8.66668V7.33334H4.66671V5.33334H3.33337V7.33334H1.33337V8.66668H3.33337V10.6667H4.66671V8.66668H6.66671Z" fill="currentColor"/>
<path d="M11.3334 8.66666H8.66671C6.82871 8.66666 5.33337 10.162 5.33337 12V14H14.6667V12C14.6667 10.162 13.1714 8.66666 11.3334 8.66666ZM13.3334 12.6667H6.66671V12C6.66671 10.8973 7.56404 9.99999 8.66671 9.99999H11.3334C12.436 9.99999 13.3334 10.8973 13.3334 12V12.6667Z" fill="currentColor"/>
<path d="M13.3334 12.6667H6.66671V12C6.66671 10.8973 7.56404 9.99999 8.66671 9.99999H11.3334C12.436 9.99999 13.3334 10.8973 13.3334 12V12.6667Z" fill="currentColor"/>
<path d="M9.99996 8.00001C11.838 8.00001 13.3333 6.50468 13.3333 4.66668C13.3333 2.82868 11.838 1.33334 9.99996 1.33334C8.16196 1.33334 6.66663 2.82868 6.66663 4.66668C6.66663 6.50468 8.16196 8.00001 9.99996 8.00001ZM9.99996 2.66668C11.1026 2.66668 12 3.56401 12 4.66668C12 5.76934 11.1026 6.66668 9.99996 6.66668C8.89729 6.66668 7.99996 5.76934 7.99996 4.66668C7.99996 3.56401 8.89729 2.66668 9.99996 2.66668Z" fill="currentColor"/>
<path d="M9.99996 2.66668C11.1026 2.66668 12 3.56401 12 4.66668C12 5.76934 11.1026 6.66668 9.99996 6.66668C8.89729 6.66668 7.99996 5.76934 7.99996 4.66668C7.99996 3.56401 8.89729 2.66668 9.99996 2.66668Z" fill="currentColor"/>
</svg>
