<svg width="16" height="16" viewBox="0 0 16 16" fill="none" xmlns="http://www.w3.org/2000/svg">
<path d="M8.00008 14.6667C9.31862 14.6667 10.6076 14.2757 11.7039 13.5431C12.8002 12.8106 13.6547 11.7694 14.1593 10.5512C14.6639 9.33304 14.7959 7.99259 14.5386 6.69939C14.2814 5.40618 13.6465 4.21829 12.7141 3.28594C11.7818 2.35359 10.5939 1.71866 9.30068 1.46142C8.00747 1.20419 6.66703 1.33621 5.44885 1.84079C4.23068 2.34538 3.18949 3.19986 2.45695 4.29619C1.72441 5.39252 1.33341 6.68145 1.33341 7.99999C1.33535 9.7675 2.03835 11.4621 3.28818 12.7119C4.538 13.9617 6.23256 14.6647 8.00008 14.6667ZM8.00008 2.66666C9.05491 2.66666 10.0861 2.97945 10.9631 3.56549C11.8402 4.15152 12.5238 4.98447 12.9274 5.95901C13.3311 6.93355 13.4367 8.00591 13.2309 9.04047C13.0251 10.075 12.5172 11.0253 11.7713 11.7712C11.0254 12.5171 10.0751 13.0251 9.04056 13.2308C8.00599 13.4366 6.93364 13.331 5.9591 12.9273C4.98456 12.5237 4.15161 11.8401 3.56557 10.963C2.97954 10.086 2.66675 9.05482 2.66675 7.99999C2.66833 6.58599 3.23075 5.23036 4.2306 4.23051C5.23045 3.23066 6.58608 2.66824 8.00008 2.66666Z" fill="currentColor"/>
<path d="M8.00016 2.66664C9.05499 2.66664 10.0861 2.97944 10.9632 3.56547C11.8403 4.15151 12.5239 4.98446 12.9275 5.959C13.3312 6.93354 13.4368 8.00589 13.231 9.04046C13.0252 10.075 12.5173 11.0253 11.7714 11.7712C11.0255 12.5171 10.0752 13.025 9.04064 13.2308C8.00608 13.4366 6.93372 13.331 5.95918 12.9273C4.98464 12.5237 4.15169 11.8401 3.56566 10.963C2.97962 10.086 2.66683 9.05481 2.66683 7.99998C2.66842 6.58598 3.23083 5.23035 4.23068 4.2305C5.23053 3.23065 6.58616 2.66823 8.00016 2.66664Z" fill="currentColor"/>
<path d="M8.00018 8.94267L10.1955 11.138L11.1382 10.1953L8.00018 7.05733L4.86218 10.1953L5.80485 11.138L8.00018 8.94267Z" fill="white"/>
<path d="M8.00018 6.27598L10.1955 8.47131L11.1382 7.52865L8.00018 4.39065L4.86218 7.52865L5.80485 8.47131L8.00018 6.27598Z" fill="white"/>
</svg>
