<svg width="16" height="16" viewBox="0 0 16 16" fill="none" xmlns="http://www.w3.org/2000/svg">
<path d="M6.66658 8.66668V7.33334H4.66658V5.33334H3.33325V7.33334H1.33325V8.66668H3.33325V10.6667H4.66658V8.66668H6.66658Z" fill="currentColor"/>
<path d="M11.3333 8.66669H8.66659C6.82859 8.66669 5.33325 10.162 5.33325 12V14H14.6666V12C14.6666 10.162 13.1713 8.66669 11.3333 8.66669ZM13.3333 12.6667H6.66659V12C6.66659 10.8974 7.56392 10 8.66659 10H11.3333C12.4359 10 13.3333 10.8974 13.3333 12V12.6667Z" fill="currentColor"/>
<path d="M9.99984 8.00001C11.8378 8.00001 13.3332 6.50468 13.3332 4.66668C13.3332 2.82868 11.8378 1.33334 9.99984 1.33334C8.16184 1.33334 6.6665 2.82868 6.6665 4.66668C6.6665 6.50468 8.16184 8.00001 9.99984 8.00001ZM9.99984 2.66668C11.1025 2.66668 11.9998 3.56401 11.9998 4.66668C11.9998 5.76934 11.1025 6.66668 9.99984 6.66668C8.89717 6.66668 7.99984 5.76934 7.99984 4.66668C7.99984 3.56401 8.89717 2.66668 9.99984 2.66668Z" fill="currentColor"/>
</svg>
