<svg width="16" height="16" viewBox="0 0 16 16" fill="none" xmlns="http://www.w3.org/2000/svg">
<path d="M10.5288 1.66125C11.5272 1.70041 12.4749 2.11187 13.1853 2.81466C13.8881 3.52501 14.2995 4.47267 14.3387 5.47116C14.3778 6.46964 14.0419 7.44662 13.3969 8.20983C12.7519 8.97304 11.8446 9.46719 10.8535 9.59504C9.8625 9.7229 8.8595 9.47519 8.04193 8.90066L6.11459 10.8287L7.05726 11.7713L6.11459 12.714L5.17126 11.7713L4.69993 12.2427L6.11393 13.6573L5.17126 14.6L3.75726 13.1853L3.28593 13.6567L2.34326 12.714L4.2286 10.8287L5.17126 9.886L7.09926 7.958C6.52474 7.14042 6.27703 6.13742 6.40488 5.14638C6.53273 4.15535 7.02689 3.24805 7.79009 2.60306C8.5533 1.95806 9.53028 1.62209 10.5288 1.66125Z" fill="currentColor"/>
</svg>
