<svg width="16" height="16" viewBox="0 0 16 16" fill="none" xmlns="http://www.w3.org/2000/svg">
<path d="M5.33341 14.6667C4.96475 14.6667 4.66675 14.368 4.66675 14V5.33333C4.66675 4.96533 4.96475 4.66667 5.33341 4.66667C5.70208 4.66667 6.00008 4.96533 6.00008 5.33333V14C6.00008 14.368 5.70208 14.6667 5.33341 14.6667Z" fill="currentColor"/>
<path d="M13.3333 14.6667C12.9646 14.6667 12.6666 14.368 12.6666 14V4C12.6666 3.63267 12.3679 3.33333 11.9999 3.33333H3.99992C3.63125 3.33333 3.33325 3.03467 3.33325 2.66667C3.33325 2.29867 3.63125 2 3.99992 2H11.9999C13.1026 2 13.9999 2.89733 13.9999 4V14C13.9999 14.368 13.7019 14.6667 13.3333 14.6667Z" fill="currentColor"/>
<path d="M5.33397 14.6667C5.11864 14.6667 4.90664 14.5627 4.77864 14.37C4.57397 14.064 4.65664 13.6493 4.96331 13.4453L6.96331 12.112C7.18731 11.9627 7.47864 11.9627 7.70264 12.112L9.33331 13.1987L10.9633 12.1113C11.1873 11.962 11.4786 11.962 11.7026 12.1113L13.7026 13.4453C14.0093 13.65 14.092 14.0633 13.8873 14.37C13.6833 14.676 13.268 14.7587 12.9626 14.5547L11.3333 13.4673L9.70331 14.5547C9.47931 14.704 9.18797 14.704 8.96397 14.5547L7.33331 13.468L5.70331 14.5547C5.58931 14.6307 5.46064 14.6667 5.33397 14.6667Z" fill="currentColor"/>
<path d="M11.3333 4.66667H7.33325V6H11.3333V4.66667Z" fill="currentColor"/>
<path d="M9.99992 7.33333H7.33325V8.66667H9.99992V7.33333Z" fill="currentColor"/>
<path d="M6 8H2V4C2 2.89733 2.89733 2 4 2C5.10267 2 6 2.89733 6 4V8ZM3.33333 6.66667H4.66667V4C4.66667 3.63267 4.368 3.33333 4 3.33333C3.632 3.33333 3.33333 3.63267 3.33333 4V6.66667Z" fill="currentColor"/>
</svg>
