<svg width="16" height="16" viewBox="0 0 16 16" fill="none" xmlns="http://www.w3.org/2000/svg">
<path fill-rule="evenodd" clip-rule="evenodd" d="M5.84962 7.69925C3.29666 5.56072 1.06248 3.66484 0.642141 3.24451L1.34925 2.5374C1.72891 2.91706 3.91139 4.77118 6.49176 6.93266C9.05741 9.0818 11.9809 11.5055 13.8123 13.004L13.1791 13.7779C11.3439 12.2764 8.41732 9.8501 5.84962 7.69925Z" fill="currentColor"/>
<path fill-rule="evenodd" clip-rule="evenodd" d="M5.7723 15L6.07447 8.97581H4L4.15552 6.63213L8.75788 10.3715L5.7723 15ZM8.92147 10.1179L9.34837 9.45612L4.25005 5.20753L4.17986 6.26536L8.92147 10.1179ZM9.5122 9.20214L4.27461 4.83748L4.4629 2H10.7035L9.24404 5.21122L12 5.34537L9.5122 9.20214Z" fill="currentColor"/>
</svg>
