<svg width="16" height="16" viewBox="0 0 16 16" fill="none" xmlns="http://www.w3.org/2000/svg">
<path d="M14.7941 10.326L14.7688 9.77467L10.4468 9.15734L9.5701 10.8727C8.7221 10.412 7.8761 9.76201 7.05677 8.94201C6.19743 8.08334 5.54343 7.23667 5.11077 6.418L6.9741 5.48667L5.11143 1.13867L4.60477 1.21201C3.72743 1.33934 2.96677 1.72001 2.34343 2.34334C0.228766 4.45801 1.05677 8.60001 4.22943 11.772C6.21677 13.7587 8.58477 14.8267 10.5961 14.826C11.7948 14.826 12.8674 14.4473 13.6574 13.6573C14.4641 12.85 14.8574 11.6987 14.7941 10.326ZM12.7141 12.714C11.1814 14.246 7.72677 13.3827 5.17143 10.8287C2.6161 8.27334 1.75277 4.81934 3.2861 3.28601C3.58143 2.99134 3.9241 2.77667 4.30743 2.64801L5.2541 4.85667L4.5161 5.22534C4.1921 5.38734 3.95277 5.66734 3.8421 6.01334C3.73077 6.36067 3.76477 6.73067 3.93677 7.05401C4.42943 7.98134 5.1621 8.93334 6.11477 9.88601C7.0241 10.796 7.97277 11.5227 8.9341 12.0453C9.25743 12.2207 9.6421 12.2587 9.9901 12.1493C10.3368 12.04 10.6168 11.8013 10.7794 11.476L11.2108 10.6133L13.4554 10.934C13.4088 11.53 13.2241 12.204 12.7141 12.714Z" fill="currentColor"/>
<path d="M14.0001 2H12.6667V7.33333H14.0001V2Z" fill="currentColor"/>
<path d="M11.3333 2H10V7.33333H11.3333V2Z" fill="currentColor"/>
</svg>
