<svg width="16" height="16" viewBox="0 0 16 16" fill="none" xmlns="http://www.w3.org/2000/svg">
<path d="M8.00003 14.7453L7.70203 14.5967C6.52933 13.9808 5.3924 13.299 4.2967 12.5547C2.09536 11.0867 1.40736 4.17667 1.33336 3.39334L1.28003 2.81L8.00003 1.31734L14.7174 2.81L14.6667 3.39334C14.5954 4.17667 13.9074 11.0867 11.706 12.5547C10.6095 13.3002 9.47172 13.9831 8.29803 14.6L8.00003 14.7453ZM2.72336 3.85534C3.03136 6.6 3.8607 10.6613 5.0367 11.4453C6.4367 12.3787 7.50336 12.9787 8.00003 13.2453C8.49403 12.9787 9.5667 12.3787 10.9634 11.4453C12.1394 10.6613 12.9687 6.60067 13.2767 3.85534L8.00003 2.68267L2.72336 3.85534Z" fill="currentColor"/>
<path d="M2.72336 3.85534C3.03136 6.6 3.8607 10.6613 5.0367 11.4453C6.4367 12.3787 7.50336 12.9787 8.00003 13.2453C8.49403 12.9787 9.5667 12.3787 10.9634 11.4453C12.1394 10.6613 12.9687 6.60067 13.2767 3.85534L8.00003 2.68267L2.72336 3.85534Z" fill="currentColor"/>
</svg>
