<svg width="16" height="16" viewBox="0 0 16 16" fill="none" xmlns="http://www.w3.org/2000/svg">
<path d="M8.00005 1.31734L1.28271 2.81L1.33338 3.39334C1.40471 4.17667 2.09271 11.0867 4.29405 12.5547C5.39053 13.3002 6.52836 13.9831 7.70205 14.6L8.00005 14.7487L8.29805 14.6C9.47065 13.9839 10.6076 13.3022 11.7034 12.558C13.9047 11.0867 14.5927 4.17667 14.6667 3.39334L14.7194 2.81L8.00005 1.31734ZM10.9634 11.4453C9.56338 12.3787 8.49671 12.9787 8.00005 13.2453C7.50605 12.9787 6.43338 12.3787 5.03671 11.4453C3.86071 10.6613 3.03138 6.6 2.72338 3.85534L8.00005 2.68267L13.2767 3.85534C12.9687 6.6 12.1394 10.6613 10.9634 11.4453Z" fill="currentColor"/>
<path d="M10.9634 11.4453C9.56338 12.3787 8.49671 12.9787 8.00005 13.2453C7.50605 12.9787 6.43338 12.3787 5.03671 11.4453C3.86071 10.6613 3.03138 6.6 2.72338 3.85534L8.00005 2.68267L13.2767 3.85534C12.9687 6.6 12.1394 10.6613 10.9634 11.4453Z" fill="currentColor"/>
<path d="M6.47123 6.862L5.52856 7.80467L8.10323 10.38L11.2212 5.70333L10.1119 4.96333L7.89656 8.28667L6.47123 6.862Z" fill="white"/>
</svg>
