<svg width="17" height="16" viewBox="0 0 17 16" fill="none" xmlns="http://www.w3.org/2000/svg">
<path d="M8.99634 1.25C5.27434 1.25 2.24634 4.278 2.24634 8C2.24634 11.722 5.27434 14.75 8.99634 14.75C12.7183 14.75 15.7463 11.722 15.7463 8C15.7463 4.278 12.7183 1.25 8.99634 1.25ZM8.99634 13.25C6.10167 13.25 3.74634 10.8947 3.74634 8C3.74634 5.10533 6.10167 2.75 8.99634 2.75C11.891 2.75 14.2463 5.10533 14.2463 8C14.2463 10.8947 11.891 13.25 8.99634 13.25Z" fill="currentColor"/>
<path d="M11.7996 5.47L8.32956 8.93933L6.85956 7.47L5.79956 8.53L8.32956 11.0607L12.8596 6.53L11.7996 5.47Z" fill="currentColor"/>
</svg>
