<svg width="16" height="16" viewBox="0 0 16 16" fill="none" xmlns="http://www.w3.org/2000/svg">
<path d="M8.00004 1.33334C4.32404 1.33334 1.33337 4.32401 1.33337 8.00001C1.33337 11.676 4.32404 14.6667 8.00004 14.6667C11.676 14.6667 14.6667 11.676 14.6667 8.00001C14.6667 4.32401 11.676 1.33334 8.00004 1.33334ZM4.84071 12.2867C5.28337 10.938 6.53737 10 8.00004 10C9.46271 10 10.7167 10.938 11.1594 12.2867C10.274 12.9413 9.18337 13.3333 8.00004 13.3333C6.81671 13.3333 5.72604 12.9413 4.84071 12.2867ZM6.33337 7.00001C6.33337 6.08134 7.08137 5.33334 8.00004 5.33334C8.91871 5.33334 9.66671 6.08134 9.66671 7.00001C9.66671 7.91868 8.91871 8.66668 8.00004 8.66668C7.08137 8.66668 6.33337 7.91868 6.33337 7.00001ZM12.1934 11.284C11.7407 10.3533 10.994 9.60734 10.0794 9.15401C10.6447 8.60801 11 7.84601 11 7.00001C11 5.34601 9.65404 4.00001 8.00004 4.00001C6.34604 4.00001 5.00004 5.34601 5.00004 7.00001C5.00004 7.84601 5.35537 8.60801 5.92071 9.15401C5.00604 9.60734 4.25937 10.3527 3.80671 11.284C3.09537 10.3773 2.66671 9.23868 2.66671 8.00001C2.66671 5.05934 5.05937 2.66668 8.00004 2.66668C10.9407 2.66668 13.3334 5.05934 13.3334 8.00001C13.3334 9.23868 12.9047 10.3773 12.1934 11.284Z" fill="white"/>
<path d="M12.1934 11.284C11.7407 10.3533 10.994 9.60734 10.0794 9.15401C10.6447 8.60801 11 7.84601 11 7.00001C11 5.34601 9.65404 4.00001 8.00004 4.00001C6.34604 4.00001 5.00004 5.34601 5.00004 7.00001C5.00004 7.84601 5.35537 8.60801 5.92071 9.15401C5.00604 9.60734 4.25937 10.3527 3.80671 11.284C3.09537 10.3773 2.66671 9.23868 2.66671 8.00001C2.66671 5.05934 5.05937 2.66668 8.00004 2.66668C10.9407 2.66668 13.3334 5.05934 13.3334 8.00001C13.3334 9.23868 12.9047 10.3773 12.1934 11.284Z" fill="currentColor"/>
<path d="M6.33337 7.00001C6.33337 6.08134 7.08137 5.33334 8.00004 5.33334C8.91871 5.33334 9.66671 6.08134 9.66671 7.00001C9.66671 7.91868 8.91871 8.66668 8.00004 8.66668C7.08137 8.66668 6.33337 7.91868 6.33337 7.00001Z" fill="currentColor"/>
<path d="M4.84071 12.2867C5.28337 10.938 6.53737 10 8.00004 10C9.46271 10 10.7167 10.938 11.1594 12.2867C10.274 12.9413 9.18337 13.3333 8.00004 13.3333C6.81671 13.3333 5.72604 12.9413 4.84071 12.2867Z" fill="currentColor"/>
<path fill-rule="evenodd" clip-rule="evenodd" d="M8.00004 13.2667C10.9087 13.2667 13.2667 10.9087 13.2667 8.00001C13.2667 5.09131 10.9087 2.73334 8.00004 2.73334C5.09134 2.73334 2.73337 5.09131 2.73337 8.00001C2.73337 10.9087 5.09134 13.2667 8.00004 13.2667ZM8.00004 14.6667C11.6819 14.6667 14.6667 11.6819 14.6667 8.00001C14.6667 4.31811 11.6819 1.33334 8.00004 1.33334C4.31814 1.33334 1.33337 4.31811 1.33337 8.00001C1.33337 11.6819 4.31814 14.6667 8.00004 14.6667Z" fill="currentColor"/>
</svg>
