<svg width="16" height="16" viewBox="0 0 16 16" fill="none" xmlns="http://www.w3.org/2000/svg">
<path d="M8 14C4.692 14 2 11.308 2 8C2 4.692 4.692 2 8 2C10.1353 2 12.1267 3.14933 13.1967 4.99933L12.0427 5.66733C11.21 4.22733 9.66067 3.33333 8 3.33333C5.42667 3.33333 3.33333 5.42667 3.33333 8C3.33333 10.5733 5.42667 12.6667 8 12.6667C10.1307 12.6667 11.9893 11.2273 12.52 9.16667L13.8113 9.49933C13.1287 12.1493 10.7393 14 8 14Z" fill="currentColor"/>
<path d="M10.2666 10.5333L7.33325 8.33332V4.66666H8.66659V7.66666L11.0666 9.46666L10.2666 10.5333Z" fill="currentColor"/>
<path d="M13.3333 5.99999H10V4.66666H12V2.66666H13.3333V5.99999Z" fill="currentColor"/>
</svg>
