<svg width="16" height="16" viewBox="0 0 16 16" fill="none" xmlns="http://www.w3.org/2000/svg">
<path d="M13.9998 8.83333C14.0018 7.75396 13.7121 6.69412 13.1614 5.76583C12.6106 4.83754 11.8193 4.07529 10.8711 3.55965C9.92285 3.04401 8.85291 2.79414 7.77438 2.83644C6.69584 2.87875 5.64877 3.21166 4.74384 3.8L4.26184 3.318C4.67248 3.03749 5.11323 2.80381 5.57584 2.62133L5.09051 1.37866C4.45504 1.62807 3.85415 1.95786 3.30251 2.36L2.47117 1.52866L1.52851 2.47133L2.29184 3.23466C1.77007 3.76355 1.32467 4.36266 0.968506 5.01466L2.13984 5.652C2.4347 5.11228 2.80261 4.61582 3.23317 4.17666L3.70717 4.65C2.60851 5.77919 1.9986 7.29554 2.0094 8.87098C2.0202 10.4464 2.65083 11.9543 3.76486 13.0683C4.87889 14.1823 6.38674 14.813 7.96218 14.8238C9.53763 14.8346 11.054 14.2247 12.1832 13.126L13.5285 14.4713L14.4712 13.5287L13.0318 12.0893C13.6638 11.121 14.0001 9.98962 13.9998 8.83333ZM7.99984 13.5C7.08345 13.5009 6.18713 13.2316 5.4229 12.7259C4.65866 12.2203 4.0604 11.5006 3.70289 10.6568C3.34538 9.81302 3.24447 8.88259 3.41277 7.98179C3.58107 7.08099 4.01112 6.24976 4.64917 5.592L11.2412 12.184C10.3731 13.0277 9.21037 13.4998 7.99984 13.5ZM12.0665 11.1207L5.71251 4.77C6.59937 4.26734 7.62658 4.06932 8.63674 4.20627C9.64691 4.34323 10.5843 4.8076 11.3053 5.52824C12.0263 6.24888 12.4912 7.18604 12.6287 8.19613C12.7662 9.20622 12.5687 10.2335 12.0665 11.1207Z" fill="currentColor"/>
<path d="M12.0665 11.1207L5.71251 4.77C6.59937 4.26734 7.62658 4.06932 8.63674 4.20627C9.64691 4.34323 10.5843 4.8076 11.3053 5.52824C12.0263 6.24888 12.4912 7.18604 12.6287 8.19613C12.7662 9.20622 12.5687 10.2335 12.0665 11.1207Z" fill="currentColor"/>
<path d="M7.99984 13.5C7.08345 13.5009 6.18713 13.2316 5.4229 12.7259C4.65866 12.2203 4.0604 11.5006 3.70289 10.6568C3.34538 9.81302 3.24447 8.88259 3.41277 7.98179C3.58107 7.08099 4.01112 6.24976 4.64917 5.592L11.2412 12.184C10.3731 13.0277 9.21037 13.4998 7.99984 13.5Z" fill="currentColor"/>
<path d="M13.8598 5.652L15.0312 5.01466C14.1278 3.3554 12.6682 2.06789 10.9092 1.37866L10.4238 2.62133C11.8903 3.1954 13.1071 4.26867 13.8598 5.652Z" fill="currentColor"/>
</svg>
