<svg width="16" height="16" viewBox="0 0 16 16" fill="none" xmlns="http://www.w3.org/2000/svg">
<path d="M7.33341 11.3333H8.66675C9.37399 11.3333 10.0523 11.0524 10.5524 10.5523C11.0525 10.0522 11.3334 9.37391 11.3334 8.66666V3.99999C11.3334 3.29275 11.0525 2.61447 10.5524 2.11438C10.0523 1.61428 9.37399 1.33333 8.66675 1.33333H7.33341C6.62617 1.33333 5.94789 1.61428 5.4478 2.11438C4.9477 2.61447 4.66675 3.29275 4.66675 3.99999V8.66666C4.66675 9.37391 4.9477 10.0522 5.4478 10.5523C5.94789 11.0524 6.62617 11.3333 7.33341 11.3333ZM6.00008 3.99999C6.00008 3.64637 6.14056 3.30723 6.39061 3.05719C6.64065 2.80714 6.97979 2.66666 7.33341 2.66666H8.66675C9.02037 2.66666 9.35951 2.80714 9.60956 3.05719C9.8596 3.30723 10.0001 3.64637 10.0001 3.99999H8.00008V5.33333H10.0001V6.66666H8.00008V8H10.0001V8.66666C10.0001 9.02028 9.8596 9.35942 9.60956 9.60947C9.35951 9.85952 9.02037 10 8.66675 10H7.33341C6.97979 10 6.64065 9.85952 6.39061 9.60947C6.14056 9.35942 6.00008 9.02028 6.00008 8.66666V3.99999Z" fill="currentColor"/>
<path d="M12.0001 6V8.66667C11.999 9.5504 11.6475 10.3976 11.0226 11.0225C10.3977 11.6474 9.55048 11.9989 8.66675 12H7.33341C6.44968 11.9989 5.60245 11.6474 4.97756 11.0225C4.35267 10.3976 4.00114 9.5504 4.00008 8.66667V6H2.66675V8.66667C2.66816 9.90391 3.16028 11.0901 4.03514 11.9649C4.91001 12.8398 6.09617 13.3319 7.33341 13.3333V14H8.66675V13.3333C9.90399 13.3319 11.0902 12.8398 11.965 11.9649C12.8399 11.0901 13.332 9.90391 13.3334 8.66667V6H12.0001Z" fill="currentColor"/>
</svg>
