<svg width="16" height="16" viewBox="0 0 16 16" fill="none" xmlns="http://www.w3.org/2000/svg">
<path d="M8 14.3807L2.34333 8.724C0.783995 7.16467 0.783995 4.62667 2.34333 3.06733C3.90266 1.50733 6.44066 1.50733 8 3.06733C9.55933 1.50733 12.0973 1.50733 13.6567 3.06733C15.216 4.62667 15.216 7.16467 13.6567 8.724L8 14.3807ZM5.17133 3.22867C4.45933 3.22867 3.78933 3.506 3.28533 4.00933C2.24533 5.04933 2.24533 6.74133 3.28533 7.78067L8 12.4953L12.714 7.78133C13.754 6.74133 13.754 5.04933 12.714 4.01C11.7067 3.00267 9.95 3.00267 8.94266 4.01C8.81133 4.14133 8.688 4.30133 8.56666 4.49667L8 5.41133L7.43333 4.49667C7.312 4.30067 7.18866 4.14133 7.05733 4.01C6.554 3.506 5.88399 3.22867 5.17133 3.22867Z" fill="currentColor"/>
</svg>
