<svg width="16" height="16" viewBox="0 0 16 16" fill="none" xmlns="http://www.w3.org/2000/svg">
<path d="M2.00004 2V4.66667H1.33337V6H2.00004V10H1.33337V11.3333H2.00004V14H14V2H2.00004ZM12.6667 12.6667H3.33337V11.3333H4.00004V10H3.33337V6H4.00004V4.66667H3.33337V3.33333H12.6667V12.6667Z" fill="currentColor"/>
<path d="M12.6667 12.6667H3.33337V11.3333H4.00004V10H3.33337V6H4.00004V4.66667H3.33337V3.33333H12.6667V12.6667Z" fill="currentColor"/>
<path d="M7.33341 9.87734V11.3333H8.66675V9.87734C8.94558 9.77774 9.19882 9.61747 9.40818 9.40811C9.61755 9.19874 9.77781 8.9455 9.87741 8.66667H11.3334V7.33334H9.87741C9.77781 7.05451 9.61755 6.80127 9.40818 6.5919C9.19882 6.38254 8.94558 6.22227 8.66675 6.12267V4.66667H7.33341V6.12267C7.05458 6.22227 6.80135 6.38254 6.59198 6.5919C6.38262 6.80127 6.22235 7.05451 6.12275 7.33334H4.66675V8.66667H6.12275C6.22235 8.9455 6.38262 9.19874 6.59198 9.40811C6.80135 9.61747 7.05458 9.77774 7.33341 9.87734ZM8.00008 7.33334C8.13194 7.33334 8.26083 7.37244 8.37046 7.44569C8.48009 7.51895 8.56554 7.62306 8.616 7.74488C8.66646 7.8667 8.67966 8.00074 8.65394 8.13006C8.62821 8.25939 8.56472 8.37817 8.47149 8.47141C8.37825 8.56464 8.25946 8.62814 8.13014 8.65386C8.00082 8.67959 7.86678 8.66638 7.74496 8.61592C7.62314 8.56547 7.51902 8.48002 7.44577 8.37039C7.37251 8.26075 7.33341 8.13186 7.33341 8C7.33341 7.82319 7.40365 7.65362 7.52868 7.5286C7.6537 7.40358 7.82327 7.33334 8.00008 7.33334Z" fill="white"/>
</svg>
