<svg width="16" height="16" viewBox="0 0 16 16" fill="none" xmlns="http://www.w3.org/2000/svg">
<path d="M13.6567 2.34334C13.1513 1.83487 12.5075 1.48622 11.8055 1.34077C11.1035 1.19531 10.3742 1.25946 9.70837 1.52524C9.04254 1.79102 8.46953 2.2467 8.06065 2.83559C7.65177 3.42449 7.42505 4.1206 7.40869 4.83734L1.43469 11.806L4.19336 14.5647L11.1554 8.6C11.8727 8.58344 12.5693 8.35652 13.1588 7.94742C13.7482 7.53833 14.2045 6.96508 14.471 6.29889C14.7374 5.63269 14.8023 4.9029 14.6575 4.20015C14.5128 3.4974 14.1647 2.85266 13.6567 2.346V2.34334ZM8.47136 7.52867C8.77561 7.82698 9.12988 8.06955 9.51803 8.24534L5.78469 11.4453L4.55669 10.2133L7.75669 6.48C7.9313 6.86892 8.17324 7.22393 8.47136 7.52867ZM3.25136 11.7333L3.68603 11.226L4.77136 12.3113L4.26403 12.7467L3.25136 11.7333ZM12.714 6.58534C12.3877 6.91173 11.972 7.13403 11.5193 7.22412C11.0667 7.31421 10.5975 7.26804 10.1711 7.09146C9.74469 6.91487 9.38024 6.6158 9.12381 6.23207C8.86739 5.84834 8.73053 5.39719 8.73053 4.93567C8.73053 4.47415 8.86739 4.023 9.12381 3.63927C9.38024 3.25554 9.74469 2.95647 10.1711 2.77988C10.5975 2.6033 11.0667 2.55713 11.5193 2.64722C11.972 2.73731 12.3877 2.95961 12.714 3.286C12.9321 3.50185 13.1051 3.75879 13.2233 4.04194C13.3414 4.3251 13.4022 4.62886 13.4022 4.93567C13.4022 5.24248 13.3414 5.54624 13.2233 5.8294C13.1051 6.11255 12.9321 6.36949 12.714 6.58534Z" fill="currentColor"/>
<path d="M12.714 6.58534C12.3877 6.91173 11.972 7.13403 11.5193 7.22412C11.0667 7.31421 10.5975 7.26804 10.1711 7.09146C9.74469 6.91487 9.38024 6.6158 9.12381 6.23207C8.86739 5.84834 8.73053 5.39719 8.73053 4.93567C8.73053 4.47415 8.86739 4.023 9.12381 3.63927C9.38024 3.25554 9.74469 2.95647 10.1711 2.77988C10.5975 2.6033 11.0667 2.55713 11.5193 2.64722C11.972 2.73731 12.3877 2.95961 12.714 3.286C12.9321 3.50185 13.1051 3.75879 13.2233 4.04194C13.3414 4.3251 13.4022 4.62886 13.4022 4.93567C13.4022 5.24248 13.3414 5.54624 13.2233 5.8294C13.1051 6.11255 12.9321 6.36949 12.714 6.58534Z" fill="currentColor"/>
<path d="M8.47136 7.52867C8.77561 7.82698 9.12988 8.06955 9.51803 8.24534L5.78469 11.4453L4.55669 10.2133L7.75669 6.48C7.9313 6.86892 8.17324 7.22393 8.47136 7.52867Z" fill="currentColor"/>
</svg>
