<svg width="16" height="16" viewBox="0 0 16 16" fill="none" xmlns="http://www.w3.org/2000/svg">
<path d="M14.6666 8.66667V8C14.6666 6.23189 13.9642 4.5362 12.714 3.28596C11.4637 2.03571 9.76803 1.33334 7.99992 1.33334C6.23181 1.33334 4.53612 2.03571 3.28587 3.28596C2.03563 4.5362 1.33325 6.23189 1.33325 8V8.66667H7.33325V13.3333C7.33325 13.687 7.47373 14.0261 7.72378 14.2761C7.97382 14.5262 8.31296 14.6667 8.66659 14.6667H9.33325C9.68687 14.6667 10.026 14.5262 10.2761 14.2761C10.5261 14.0261 10.6666 13.687 10.6666 13.3333V12.6667H9.33325V13.3333H8.66659V8.66667H14.6666ZM7.99992 2.66667C9.29851 2.66841 10.552 3.14311 11.526 4.002C12.5 4.86089 13.1278 6.04516 13.2919 7.33334H2.70792C2.87208 6.04516 3.49986 4.86089 4.47385 4.002C5.44783 3.14311 6.70133 2.66841 7.99992 2.66667Z" fill="currentColor"/>
</svg>
