<svg width="16" height="16" viewBox="0 0 16 16" fill="none" xmlns="http://www.w3.org/2000/svg">
<path d="M7.99976 2.83334C6.81307 2.83334 5.65303 3.18524 4.66634 3.84453C3.67964 4.50381 2.91061 5.44089 2.45648 6.53724C2.00236 7.6336 1.88354 8.84 2.11505 10.0039C2.34656 11.1678 2.918 12.2369 3.75712 13.076C4.59623 13.9151 5.66533 14.4865 6.82922 14.7181C7.9931 14.9496 9.1995 14.8307 10.2959 14.3766C11.3922 13.9225 12.3293 13.1535 12.9886 12.1668C13.6479 11.1801 13.9998 10.02 13.9998 8.83334C13.9978 7.24264 13.3651 5.71764 12.2403 4.59285C11.1155 3.46805 9.59046 2.83528 7.99976 2.83334ZM7.99976 13.5C7.07678 13.5 6.17453 13.2263 5.4071 12.7135C4.63967 12.2008 4.04153 11.4719 3.68832 10.6192C3.33511 9.76648 3.2427 8.82817 3.42276 7.92292C3.60282 7.01768 4.04728 6.18616 4.69993 5.53351C5.35257 4.88087 6.18409 4.43641 7.08934 4.25635C7.99458 4.07628 8.93289 4.1687 9.78561 4.52191C10.6383 4.87511 11.3672 5.47325 11.88 6.24068C12.3927 7.00811 12.6664 7.91036 12.6664 8.83334C12.665 10.0706 12.1729 11.2568 11.298 12.1316C10.4232 13.0065 9.237 13.4986 7.99976 13.5Z" fill="currentColor"/>
<path d="M13.8598 5.652L15.0312 5.01466C14.1278 3.3554 12.6682 2.06789 10.9092 1.37866L10.4238 2.62133C11.8903 3.1954 13.1071 4.26867 13.8598 5.652Z" fill="currentColor"/>
<path d="M5.57584 2.62133L5.09051 1.37866C3.33148 2.06789 1.87187 3.3554 0.968506 5.01466L2.13984 5.652C2.89254 4.26867 4.10935 3.1954 5.57584 2.62133Z" fill="currentColor"/>
<path d="M8.66658 5.5H7.33325V9.10933L9.52858 11.3047L10.4713 10.362L8.66658 8.55733V5.5Z" fill="currentColor"/>
</svg>
