<svg preserveAspectRatio="xMinYMin slice" width="100%" height="100%" viewBox="0 0 16 16" fill="none" xmlns="http://www.w3.org/2000/svg">
<path d="M10.348 7.81268C11.1533 7.14001 11.6667 6.12868 11.6667 5.00001C11.6667 2.97801 10.022 1.33334 8 1.33334C5.978 1.33334 4.33333 2.97801 4.33333 5.00001C4.33333 6.12868 4.84667 7.14001 5.652 7.81268C3.50733 8.72868 2 10.858 2 13.3333V14H14V13.3333C14 10.858 12.4927 8.72868 10.348 7.81268ZM5.66667 5.00001C5.66667 3.71334 6.71333 2.66668 8 2.66668C9.28667 2.66668 10.3333 3.71334 10.3333 5.00001C10.3333 6.28668 9.28667 7.33334 8 7.33334C6.71333 7.33334 5.66667 6.28668 5.66667 5.00001ZM3.38067 12.6667C3.70533 10.408 5.65267 8.66668 8 8.66668C10.3473 8.66668 12.2947 10.408 12.6193 12.6667H3.38067Z" fill="currentColor"/>
</svg>
