<svg width="16" height="16" viewBox="0 0 16 16" fill="none" xmlns="http://www.w3.org/2000/svg">
<path d="M7.33329 11.3333H8.66663C9.37387 11.3333 10.0521 11.0524 10.5522 10.5523C11.0523 10.0522 11.3333 9.37391 11.3333 8.66667V4C11.3333 3.29276 11.0523 2.61448 10.5522 2.11438C10.0521 1.61429 9.37387 1.33334 8.66663 1.33334H7.33329C6.62605 1.33334 5.94777 1.61429 5.44767 2.11438C4.94758 2.61448 4.66663 3.29276 4.66663 4V8.66667C4.66663 9.37391 4.94758 10.0522 5.44767 10.5523C5.94777 11.0524 6.62605 11.3333 7.33329 11.3333ZM5.99996 4C5.99996 3.64638 6.14044 3.30724 6.39048 3.05719C6.64053 2.80715 6.97967 2.66667 7.33329 2.66667H8.66663C9.02025 2.66667 9.35939 2.80715 9.60943 3.05719C9.85948 3.30724 9.99996 3.64638 9.99996 4H7.99996V5.33334H9.99996V6.66667H7.99996V8H9.99996V8.66667C9.99996 9.02029 9.85948 9.35943 9.60943 9.60948C9.35939 9.85953 9.02025 10 8.66663 10H7.33329C6.97967 10 6.64053 9.85953 6.39048 9.60948C6.14044 9.35943 5.99996 9.02029 5.99996 8.66667V4Z" fill="currentColor"/>
<path d="M5.99996 4C5.99996 3.64638 6.14044 3.30724 6.39048 3.05719C6.64053 2.80715 6.97967 2.66667 7.33329 2.66667H8.66663C9.02025 2.66667 9.35939 2.80715 9.60943 3.05719C9.85948 3.30724 9.99996 3.64638 9.99996 4H7.99996V5.33334H9.99996V6.66667H7.99996V8H9.99996V8.66667C9.99996 9.02029 9.85948 9.35943 9.60943 9.60948C9.35939 9.85953 9.02025 10 8.66663 10H7.33329C6.97967 10 6.64053 9.85953 6.39048 9.60948C6.14044 9.35943 5.99996 9.02029 5.99996 8.66667V4Z" fill="currentColor"/>
<path d="M12 6V8.66667C11.9989 9.5504 11.6474 10.3976 11.0225 11.0225C10.3976 11.6474 9.55035 11.9989 8.66663 12H7.33329C6.44956 11.9989 5.60233 11.6474 4.97744 11.0225C4.35255 10.3976 4.00102 9.5504 3.99996 8.66667V6H2.66663V8.66667C2.66804 9.90391 3.16016 11.0901 4.03502 11.9649C4.90988 12.8398 6.09605 13.3319 7.33329 13.3333V14H8.66663V13.3333C9.90387 13.3319 11.09 12.8398 11.9649 11.9649C12.8398 11.0901 13.3319 9.90391 13.3333 8.66667V6H12Z" fill="currentColor"/>
<rect x="8" y="4" width="2" height="1.33333" fill="white"/>
<rect x="8" y="6.66666" width="2" height="1.33333" fill="white"/>
</svg>
