<svg width="16" height="16" viewBox="0 0 16 16" fill="none" xmlns="http://www.w3.org/2000/svg">
<path d="M13.3333 2V3.33333H12.6666V2H11.3333V2.66667H4.66659V2H3.33325V3.33333H2.66659V2H1.33325V14H2.66659V12.6667H3.33325V14H4.66659V13.3333H11.3333V14H12.6666V12.6667H13.3333V14H14.6666V2H13.3333ZM3.33325 8.66667H2.66659V7.33333H3.33325V8.66667ZM3.33325 4.66667V6H2.66659V4.66667H3.33325ZM2.66659 11.3333V10H3.33325V11.3333H2.66659ZM11.3333 12H4.66659V8.66667H11.3333V12ZM11.3333 7.33333H4.66659V4H11.3333V7.33333ZM13.3333 4.66667V6H12.6666V4.66667H13.3333ZM13.3333 7.33333V8.66667H12.6666V7.33333H13.3333ZM12.6666 11.3333V10H13.3333V11.3333H12.6666Z" fill="currentColor"/>
<path d="M11.3333 7.33333H4.66659V4H11.3333V7.33333Z" fill="currentColor"/>
<path d="M11.3333 12H4.66659V8.66667H11.3333V12Z" fill="currentColor"/>
</svg>
