<svg width="16" height="16" viewBox="0 0 16 16" fill="none" xmlns="http://www.w3.org/2000/svg">
<path d="M8.00004 1.33333C6.6815 1.33333 5.39257 1.72432 4.29624 2.45686C3.19991 3.18941 2.34543 4.2306 1.84085 5.44877C1.33626 6.66695 1.20424 8.00739 1.46148 9.3006C1.71871 10.5938 2.35365 11.7817 3.286 12.714C4.21835 13.6464 5.40624 14.2813 6.69944 14.5386C7.99265 14.7958 9.33309 14.6638 10.5513 14.1592C11.7694 13.6546 12.8106 12.8001 13.5432 11.7038C14.2757 10.6075 14.6667 9.31854 14.6667 8C14.6648 6.23248 13.9618 4.53792 12.7119 3.28809C11.4621 2.03827 9.76756 1.33527 8.00004 1.33333ZM8.00004 13.3333C6.94521 13.3333 5.91406 13.0205 5.037 12.4345C4.15994 11.8485 3.47635 11.0155 3.07269 10.041C2.66902 9.06643 2.5634 7.99408 2.76919 6.95951C2.97498 5.92495 3.48293 4.97464 4.22881 4.22876C4.97469 3.48288 5.925 2.97493 6.95956 2.76914C7.99413 2.56335 9.06648 2.66897 10.041 3.07264C11.0156 3.47631 11.8485 4.15989 12.4345 5.03695C13.0206 5.91402 13.3334 6.94516 13.3334 8C13.3318 9.414 12.7694 10.7696 11.7695 11.7695C10.7697 12.7693 9.41404 13.3317 8.00004 13.3333Z" fill="currentColor"/>
<path d="M8.00004 13.3333C6.94521 13.3333 5.91406 13.0205 5.037 12.4345C4.15994 11.8485 3.47635 11.0155 3.07269 10.041C2.66902 9.06643 2.5634 7.99408 2.76919 6.95951C2.97498 5.92495 3.48293 4.97464 4.22881 4.22876C4.97469 3.48288 5.925 2.97493 6.95956 2.76914C7.99413 2.56335 9.06648 2.66897 10.041 3.07264C11.0156 3.47631 11.8485 4.15989 12.4345 5.03695C13.0206 5.91402 13.3334 6.94516 13.3334 8C13.3318 9.414 12.7694 10.7696 11.7695 11.7695C10.7697 12.7693 9.41404 13.3317 8.00004 13.3333Z" fill="currentColor"/>
<path d="M7.27047 9.65027V9.23497C7.27047 9.06011 7.28243 8.90346 7.30635 8.76503C7.33823 8.62659 7.38208 8.49545 7.43789 8.37159C7.50166 8.24772 7.58138 8.1275 7.67705 8.01093C7.78069 7.89435 7.90824 7.77049 8.05971 7.63934L8.59783 7.1694C8.7493 7.04554 8.87685 6.9071 8.98049 6.7541C9.0921 6.60109 9.1479 6.4153 9.1479 6.19672C9.1479 5.91257 9.04825 5.67577 8.84895 5.48634C8.65762 5.28962 8.38258 5.19126 8.02384 5.19126C7.84048 5.19126 7.67306 5.22404 7.52159 5.28962C7.3781 5.34791 7.25054 5.43169 7.13893 5.54098C7.03529 5.64299 6.95557 5.76321 6.89977 5.90164C6.84396 6.04007 6.81208 6.18215 6.8041 6.32787L5.33325 6.20765C5.38108 5.85792 5.48074 5.54827 5.63221 5.27869C5.79165 5.00182 5.99494 4.76867 6.24207 4.57923C6.48921 4.3898 6.77222 4.24772 7.0911 4.15301C7.40998 4.051 7.75278 4 8.1195 4C8.4623 4 8.78517 4.04736 9.08811 4.14208C9.39902 4.22951 9.67007 4.3643 9.90126 4.54645C10.1404 4.72131 10.3278 4.93989 10.4633 5.20219C10.5988 5.46448 10.6666 5.76685 10.6666 6.10929C10.6666 6.34244 10.6387 6.54645 10.5829 6.72131C10.5271 6.89617 10.4474 7.05647 10.3437 7.20219C10.2401 7.34791 10.1125 7.48998 9.96105 7.62842C9.81756 7.75956 9.65413 7.898 9.47077 8.04372C9.31133 8.16758 9.17979 8.27687 9.07615 8.37159C8.98049 8.4663 8.90077 8.56102 8.83699 8.65574C8.78118 8.75046 8.74132 8.85246 8.71741 8.96175C8.69349 9.07104 8.68153 9.20583 8.68153 9.36612V9.65027H7.27047ZM7.03131 11.1694C7.03131 10.9362 7.12299 10.7359 7.30635 10.5683C7.49768 10.4007 7.72488 10.3169 7.98796 10.3169C8.24307 10.3169 8.46629 10.3971 8.65762 10.5574C8.84895 10.7177 8.94461 10.9144 8.94461 11.1475C8.94461 11.3807 8.84895 11.5811 8.65762 11.7486C8.47426 11.9162 8.25104 12 7.98796 12C7.86041 12 7.73684 11.9781 7.61726 11.9344C7.50565 11.8907 7.406 11.8324 7.3183 11.7596C7.23061 11.6867 7.15886 11.5993 7.10306 11.4973C7.05523 11.3953 7.03131 11.286 7.03131 11.1694Z" fill="white"/>
</svg>
