<svg width="16" height="16" viewBox="0 0 16 16" fill="none" xmlns="http://www.w3.org/2000/svg">
<path d="M13.9999 13.0573V4.66667H11.9999V2.66667C11.9999 2.31305 11.8594 1.97391 11.6094 1.72386C11.3593 1.47381 11.0202 1.33334 10.6666 1.33334H5.33323C4.97961 1.33334 4.64047 1.47381 4.39042 1.72386C4.14037 1.97391 3.9999 2.31305 3.9999 2.66667V3.05734L2.47123 1.52867L1.52856 2.47134L3.7239 4.66667H1.9999V14H13.0572L13.5286 14.4713L14.4712 13.5287L13.9999 13.0573ZM12.6666 11.724L9.29057 8.348C9.2321 8.11299 9.11073 7.89833 8.93948 7.72709C8.76823 7.55584 8.55358 7.43447 8.31856 7.376L6.94256 6H12.6666V11.724ZM5.33323 2.66667H10.6666V4.66667H5.60923L5.33323 4.39067V2.66667ZM3.33323 12.6667V6H5.05723L6.93323 7.87534C6.82024 8.02488 6.74047 8.19681 6.69923 8.37965C6.658 8.56248 6.65625 8.75201 6.69411 8.93557C6.73198 9.11914 6.80857 9.29251 6.91879 9.44411C7.029 9.5957 7.17029 9.72204 7.33323 9.81467V11.3333H8.66656V9.81467C8.7095 9.78997 8.75111 9.76304 8.79123 9.734L11.7246 12.6673L3.33323 12.6667Z" fill="currentColor"/>
</svg>
