<svg width="16" height="16" viewBox="0 0 16 16" fill="none" xmlns="http://www.w3.org/2000/svg">
<path d="M1.33337 2.66666V13.3333H8.66671V12H2.66671V5.91266L8.00004 9.46866L13.3334 5.91266V8H14.6667V2.66666H1.33337ZM8.00004 7.86533L2.66671 4.31V4H13.3334V4.31L8.00004 7.86533Z" fill="currentColor"/>
<rect x="1.33337" y="2.66666" width="13.3333" height="10.6667" fill="currentColor"/>
<path d="M13.3334 4.66666C13.3334 4.97666 13.3334 4.97666 13.3334 4.97666L8.00008 8.532L2.66675 4.97666C2.66675 4.97666 2.66675 4.97666 2.66675 4.66666C2.66675 4.66666 9.16782 4.66666 13.3334 4.66666ZM2.66675 4.66666V6.57933L8.00008 10.1353L13.3334 6.57933V4.66666C9.16782 4.66666 2.66675 4.66666 2.66675 4.66666Z" fill="white"/>
<path d="M13.3334 4.66666C13.3334 4.97666 13.3334 4.97666 13.3334 4.97666L8.00008 8.532L2.66675 4.97666C2.66675 4.97666 2.66675 4.97666 2.66675 4.66666C2.66675 4.66666 9.16782 4.66666 13.3334 4.66666ZM2.66675 4.66666V6.57933L8.00008 10.1353L13.3334 6.57933V4.66666C9.16782 4.66666 2.66675 4.66666 2.66675 4.66666Z" fill="white"/>
<path d="M13.3334 12C13.3334 12.7353 12.7354 13.3333 12 13.3333C11.2647 13.3333 10.6667 12.7353 10.6667 12V9.66667C10.6667 9.48333 10.816 9.33333 11 9.33333C11.184 9.33333 11.3334 9.48333 11.3334 9.66667V12H12.6667V9.66667C12.6667 8.74733 11.9187 8 11 8C10.0814 8 9.33337 8.74733 9.33337 9.66667V12C9.33337 13.4707 10.5294 14.6667 12 14.6667C13.4707 14.6667 14.6667 13.4707 14.6667 12V10H13.3334V12Z" fill="white"/>
</svg>
