<svg width="16" height="16" viewBox="0 0 16 16" fill="none" xmlns="http://www.w3.org/2000/svg">
<path d="M7.99992 1.33334C6.68138 1.33334 5.39245 1.72433 4.29612 2.45687C3.19979 3.18941 2.34531 4.23061 1.84072 5.44878C1.33614 6.66695 1.20412 8.0074 1.46135 9.3006C1.71859 10.5938 2.35353 11.7817 3.28588 12.714C4.21823 13.6464 5.40611 14.2813 6.69932 14.5386C7.99253 14.7958 9.33297 14.6638 10.5511 14.1592C11.7693 13.6546 12.8105 12.8001 13.5431 11.7038C14.2756 10.6075 14.6666 9.31854 14.6666 8C14.6646 6.23249 13.9616 4.53792 12.7118 3.2881C11.462 2.03828 9.76744 1.33528 7.99992 1.33334ZM7.99992 13.3333C6.94509 13.3333 5.91394 13.0205 5.03688 12.4345C4.15982 11.8485 3.47623 11.0155 3.07256 10.041C2.6689 9.06644 2.56328 7.99409 2.76907 6.95952C2.97485 5.92496 3.48281 4.97465 4.22869 4.22877C4.97457 3.48289 5.92487 2.97494 6.95944 2.76915C7.99401 2.56336 9.06636 2.66898 10.0409 3.07265C11.0154 3.47631 11.8484 4.1599 12.4344 5.03696C13.0205 5.91402 13.3333 6.94517 13.3333 8C13.3317 9.414 12.7693 10.7696 11.7694 11.7695C10.7696 12.7693 9.41392 13.3317 7.99992 13.3333Z" fill="currentColor"/>
<path d="M8.66658 4.66667H7.33325V9.33334H8.66658V4.66667Z" fill="currentColor"/>
<path d="M8.66658 10H7.33325V11.3333H8.66658V10Z" fill="currentColor"/>
</svg>
