<svg width="16" height="16" viewBox="0 0 16 16" fill="none" xmlns="http://www.w3.org/2000/svg">
<path d="M13.6566 2.34334C13.1512 1.83487 12.5074 1.48622 11.8054 1.34077C11.1034 1.19531 10.3741 1.25946 9.70825 1.52524C9.04241 1.79102 8.46941 2.2467 8.06053 2.83559C7.65164 3.42449 7.42492 4.1206 7.40857 4.83734L1.43457 11.806L4.19324 14.5647L11.1552 8.6C11.8726 8.58344 12.5692 8.35652 13.1586 7.94742C13.7481 7.53833 14.2044 6.96508 14.4708 6.29889C14.7373 5.63269 14.8022 4.9029 14.6574 4.20015C14.5126 3.4974 14.1646 2.85266 13.6566 2.346V2.34334ZM8.47124 7.52867C8.77549 7.82698 9.12976 8.06955 9.5179 8.24534L5.78457 11.4453L4.55657 10.2133L7.75657 6.48C7.93117 6.86892 8.17311 7.22393 8.47124 7.52867ZM3.25124 11.7333L3.6859 11.226L4.77124 12.3113L4.2639 12.7467L3.25124 11.7333ZM12.7139 6.58534C12.3876 6.91173 11.9719 7.13403 11.5192 7.22412C11.0666 7.31421 10.5974 7.26804 10.171 7.09146C9.74457 6.91487 9.38011 6.6158 9.12369 6.23207C8.86727 5.84834 8.73041 5.39719 8.73041 4.93567C8.73041 4.47415 8.86727 4.023 9.12369 3.63927C9.38011 3.25554 9.74457 2.95647 10.171 2.77988C10.5974 2.6033 11.0666 2.55713 11.5192 2.64722C11.9719 2.73731 12.3876 2.95961 12.7139 3.286C12.9319 3.50185 13.105 3.75879 13.2231 4.04194C13.3413 4.3251 13.4021 4.62886 13.4021 4.93567C13.4021 5.24248 13.3413 5.54624 13.2231 5.8294C13.105 6.11255 12.9319 6.36948 12.7139 6.58534Z" fill="currentColor"/>
</svg>
