<svg width="16" height="16" viewBox="0 0 16 16" fill="none" xmlns="http://www.w3.org/2000/svg">
<path d="M12.717 3.28601C11.7844 2.35365 10.5963 1.7187 9.30275 1.46145C8.00924 1.20421 6.66849 1.33622 5.45003 1.8408C4.23157 2.34538 3.19013 3.19987 2.45742 4.2962C1.7247 5.39253 1.33362 6.68146 1.33362 8.00001C1.33362 9.31856 1.7247 10.6075 2.45742 11.7038C3.19013 12.8002 4.23157 13.6546 5.45003 14.1592C6.66849 14.6638 8.00924 14.7958 9.30275 14.5386C10.5963 14.2813 11.7844 13.6464 12.717 12.714C13.9657 11.4628 14.667 9.7675 14.667 8.00001C14.667 6.23252 13.9657 4.5372 12.717 3.28601ZM11.7741 11.7713C11.028 12.5172 10.0775 13.0251 9.0427 13.2309C8.00791 13.4366 6.93533 13.331 5.96058 12.9273C4.98584 12.5237 4.15271 11.8401 3.56655 10.963C2.9804 10.086 2.66754 9.05483 2.66754 8.00001C2.66754 6.94519 2.9804 5.91405 3.56655 5.037C4.15271 4.15994 4.98584 3.47636 5.96058 3.07268C6.93533 2.66901 8.00791 2.56337 9.0427 2.76914C10.0775 2.9749 11.028 3.48283 11.7741 4.22868C12.7729 5.22974 13.3339 6.58602 13.3339 8.00001C13.3339 9.41401 12.7729 10.7703 11.7741 11.7713Z" fill="currentColor"/>
<path d="M11.7741 11.7713C11.028 12.5172 10.0775 13.0251 9.0427 13.2309C8.00791 13.4366 6.93533 13.331 5.96058 12.9273C4.98584 12.5237 4.15271 11.8401 3.56655 10.963C2.9804 10.086 2.66754 9.05483 2.66754 8.00001C2.66754 6.94519 2.9804 5.91405 3.56655 5.037C4.15271 4.15994 4.98584 3.47636 5.96058 3.07268C6.93533 2.66901 8.00791 2.56337 9.0427 2.76914C10.0775 2.9749 11.028 3.48283 11.7741 4.22868C12.7729 5.22974 13.3339 6.58602 13.3339 8.00001C13.3339 9.41401 12.7729 10.7703 11.7741 11.7713Z" fill="currentColor"/>
<path d="M9.33556 8.39069L6.47291 5.52869L5.53003 6.47135L8.39268 9.33335H6.00147V10.6667H10.6692V6.00002H9.33556V8.39069Z" fill="white"/>
</svg>
