<svg width="17" height="16" viewBox="0 0 17 16" fill="none" xmlns="http://www.w3.org/2000/svg">
<path d="M8.99626 14.6667C5.32026 14.6667 2.32959 11.676 2.32959 8.00001C2.32959 4.32401 5.32026 1.33334 8.99626 1.33334C12.6723 1.33334 15.6629 4.32401 15.6629 8.00001C15.6629 11.676 12.6723 14.6667 8.99626 14.6667ZM8.99626 2.66668C6.05559 2.66668 3.66292 5.05934 3.66292 8.00001C3.66292 10.9407 6.05559 13.3333 8.99626 13.3333C11.9369 13.3333 14.3296 10.9407 14.3296 8.00001C14.3296 5.05934 11.9369 2.66668 8.99626 2.66668Z" fill="currentColor"/>
<path d="M12.525 3.52828L4.5249 11.5284L5.4677 12.4712L13.4678 4.47108L12.525 3.52828Z" fill="currentColor"/>
</svg>
