<svg width="16" height="16" viewBox="0 0 16 16" fill="none" xmlns="http://www.w3.org/2000/svg">
<path d="M14.7941 10.326L14.7688 9.77467L10.4468 9.15734L9.57077 10.8727C8.72277 10.412 7.87677 9.76201 7.05743 8.94201C6.1981 8.08334 5.5441 7.23667 5.11143 6.41801L6.97477 5.48667L5.11143 1.13867L4.60477 1.21201C3.72743 1.33934 2.96677 1.72001 2.34343 2.34334C0.228766 4.45801 1.05677 8.60001 4.22943 11.772C6.21677 13.7587 8.58477 14.8267 10.5961 14.8267C11.7954 14.8267 12.8674 14.4473 13.6574 13.6573C14.4641 12.85 14.8574 11.6987 14.7941 10.326ZM12.7141 12.714C11.1788 14.2473 7.7261 13.3833 5.17143 10.8287C2.6161 8.27334 1.75277 4.81934 3.2861 3.28601C3.58143 2.99134 3.9241 2.77667 4.30743 2.64801L5.2541 4.85667L4.5161 5.22534C4.1921 5.38734 3.95277 5.66734 3.8421 6.01334C3.73077 6.36067 3.76477 6.73067 3.93677 7.05401C4.42943 7.98134 5.1621 8.93334 6.11477 9.88601C7.0241 10.796 7.97277 11.5227 8.93343 12.0447C9.25543 12.2207 9.64143 12.2587 9.98877 12.1493C10.3361 12.0407 10.6161 11.802 10.7794 11.476L11.2101 10.6133L13.4548 10.934C13.4088 11.53 13.2248 12.204 12.7141 12.714Z" fill="currentColor"/>
<path d="M14.0001 6H10.9427L14.4714 2.47134L13.5287 1.52867L10.0001 5.05734V2H8.66675V7.33334H14.0001V6Z" fill="currentColor"/>
</svg>
