<svg width="16" height="16" viewBox="0 0 16 16" fill="none" xmlns="http://www.w3.org/2000/svg">
<g clip-path="url(#clip0_110_11347)">
<mask id="path-1-inside-1_110_11347" fill="white">
<path d="M6.66663 8.66668L2.66663 2.66668V1.33334H13.3333V2.66668L9.33329 8.66668V12.6667L6.66663 14V8.66668Z"/>
</mask>
<path d="M6.66663 8.66668L2.66663 2.66668V1.33334H13.3333V2.66668L9.33329 8.66668V12.6667L6.66663 14V8.66668Z" fill="currentColor"/>
<path d="M6.66663 8.66668H8.66663V8.06113L8.33073 7.55728L6.66663 8.66668ZM2.66663 2.66668H0.666626V3.27223L1.00253 3.77608L2.66663 2.66668ZM2.66663 1.33334V-0.666656H0.666626V1.33334H2.66663ZM13.3333 1.33334H15.3333V-0.666656H13.3333V1.33334ZM13.3333 2.66668L14.9974 3.77608L15.3333 3.27223V2.66668H13.3333ZM9.33329 8.66668L7.66919 7.55728L7.33329 8.06113V8.66668H9.33329ZM9.33329 12.6667L10.2277 14.4555L11.3333 13.9027V12.6667H9.33329ZM6.66663 14H4.66663V17.2361L7.56105 15.7889L6.66663 14ZM8.33073 7.55728L4.33073 1.55728L1.00253 3.77608L5.00252 9.77608L8.33073 7.55728ZM4.66663 2.66668V1.33334H0.666626V2.66668H4.66663ZM2.66663 3.33334H13.3333V-0.666656H2.66663V3.33334ZM11.3333 1.33334V2.66668H15.3333V1.33334H11.3333ZM11.6692 1.55728L7.66919 7.55728L10.9974 9.77608L14.9974 3.77608L11.6692 1.55728ZM7.33329 8.66668V12.6667H11.3333V8.66668H7.33329ZM8.43886 10.8778L5.7722 12.2112L7.56105 15.7889L10.2277 14.4555L8.43886 10.8778ZM8.66663 14V8.66668H4.66663V14H8.66663Z" fill="currentColor" mask="url(#path-1-inside-1_110_11347)"/>
</g>
<defs>
<clipPath id="clip0_110_11347">
<rect width="16" height="16" fill="white"/>
</clipPath>
</defs>
</svg>
