<svg width="16" height="16" viewBox="0 0 16 16" fill="none" xmlns="http://www.w3.org/2000/svg">
<path d="M14.5533 7.628C13.8377 6.61429 12.982 5.70706 12.012 4.93333L14.4713 2.474L13.5286 1.52866L10.8846 4.17266C10.0125 3.64651 9.01818 3.35719 7.99995 3.33333C4.37262 3.33333 1.56462 7.45266 1.44662 7.628L1.19995 8L1.44928 8.372C2.1641 9.38552 3.01881 10.2927 3.98795 11.0667L1.52862 13.5287L2.47128 14.4713L5.11529 11.8273C5.98737 12.3535 6.98172 12.6428 7.99995 12.6667C11.6273 12.6667 14.4353 8.54733 14.5533 8.372L14.8 8L14.5533 7.628ZM2.82795 8C3.55728 7.06 5.64595 4.66666 7.99995 4.66666C8.66309 4.68114 9.31396 4.84836 9.90195 5.15533L9.34595 5.71133C8.93958 5.46626 8.4745 5.33565 7.99995 5.33333C7.29271 5.33333 6.61443 5.61428 6.11433 6.11438C5.61424 6.61448 5.33328 7.29275 5.33328 8C5.33561 8.47454 5.46622 8.93962 5.71129 9.346L4.93795 10.1193C4.14896 9.50367 3.44012 8.79169 2.82795 8ZM9.33329 8C9.33329 8.35362 9.19281 8.69276 8.94276 8.94281C8.69271 9.19285 8.35357 9.33333 7.99995 9.33333C7.88469 9.33176 7.77014 9.31495 7.65929 9.28333L9.28329 7.65933C9.31491 7.77018 9.33172 7.88473 9.33329 8ZM6.66662 8C6.66662 7.64638 6.80709 7.30724 7.05714 7.05719C7.30719 6.80714 7.64633 6.66666 7.99995 6.66666C8.11522 6.66823 8.22977 6.68504 8.34062 6.71666L6.71662 8.34066C6.685 8.22981 6.66819 8.11526 6.66662 8ZM7.99995 11.3333C7.33681 11.3189 6.68595 11.1516 6.09795 10.8447L6.65395 10.2887C7.06032 10.5337 7.52541 10.6643 7.99995 10.6667C8.7072 10.6667 9.38547 10.3857 9.88557 9.88562C10.3857 9.38552 10.6666 8.70724 10.6666 8C10.6643 7.52545 10.5337 7.06037 10.2886 6.654L11.062 5.88066C11.8509 6.49632 12.5598 7.2083 13.172 8C12.4426 8.94 10.354 11.3333 7.99995 11.3333Z" fill="currentColor"/>
</svg>
