<svg width="16" height="16" viewBox="0 0 16 16" fill="none" xmlns="http://www.w3.org/2000/svg">
<path d="M14 4C14 3.46957 13.7893 2.96086 13.4142 2.58579C13.0391 2.21071 12.5304 2 12 2H4C3.46957 2 2.96086 2.21071 2.58579 2.58579C2.21071 2.96086 2 3.46957 2 4V8H4.66667V14C4.66667 14.0207 4.67667 14.038 4.67867 14.0587C4.68289 14.1039 4.69183 14.1486 4.70533 14.192C4.71776 14.2348 4.73475 14.2762 4.756 14.3153C4.76258 14.3344 4.77014 14.3531 4.77867 14.3713C4.79891 14.3983 4.8212 14.4237 4.84533 14.4473C4.85533 14.4587 4.86333 14.47 4.874 14.4807C4.92781 14.5322 4.99004 14.5741 5.058 14.6047C5.07267 14.6113 5.08733 14.6153 5.102 14.6213C5.17591 14.6497 5.25418 14.665 5.33333 14.6667C5.41217 14.6649 5.49006 14.6491 5.56333 14.62C5.58616 14.6109 5.60842 14.6004 5.63 14.5887C5.65468 14.5788 5.67873 14.5675 5.702 14.5547L7.33333 13.4667L8.96333 14.5533C9.07289 14.6264 9.20163 14.6654 9.33333 14.6654C9.46503 14.6654 9.59378 14.6264 9.70333 14.5533L11.3333 13.4667L12.9633 14.554C12.9816 14.5625 13.0003 14.5701 13.0193 14.5767C13.0587 14.5983 13.1003 14.6155 13.1433 14.628C13.1855 14.6409 13.2288 14.6496 13.2727 14.654C13.294 14.654 13.312 14.666 13.3333 14.666C13.3547 14.666 13.3753 14.6553 13.4 14.6533C13.4439 14.6488 13.4872 14.6399 13.5293 14.6267C13.5702 14.6147 13.6097 14.5986 13.6473 14.5787C13.6835 14.5599 13.7177 14.5376 13.7493 14.512C13.785 14.4834 13.8174 14.451 13.846 14.4153C13.8593 14.3987 13.8787 14.3893 13.8907 14.3713C13.8992 14.3531 13.9068 14.3344 13.9133 14.3153C13.9346 14.2762 13.9516 14.2348 13.964 14.192C13.9776 14.1486 13.9865 14.1039 13.9907 14.0587C13.9948 14.0393 13.9979 14.0197 14 14V4ZM3.33333 6.66667V4C3.33333 3.82319 3.40357 3.65362 3.5286 3.5286C3.65362 3.40357 3.82319 3.33333 4 3.33333C4.17681 3.33333 4.34638 3.40357 4.4714 3.5286C4.59643 3.65362 4.66667 3.82319 4.66667 4V6.66667H3.33333ZM10.9633 12.1113L9.33333 13.2L7.70333 12.1133C7.59378 12.0402 7.46503 12.0012 7.33333 12.0012C7.20163 12.0012 7.07289 12.0402 6.96333 12.1133L6 12.7547V4C5.99779 3.77237 5.95629 3.54684 5.87733 3.33333H12C12.1768 3.33333 12.3464 3.40357 12.4714 3.5286C12.5964 3.65362 12.6667 3.82319 12.6667 4V12.754L11.7033 12.1113C11.5938 12.0382 11.465 11.9992 11.3333 11.9992C11.2016 11.9992 11.0729 12.0382 10.9633 12.1113Z" fill="currentColor"/>
<path d="M9.99992 4.66667H8.66659V5.33333H7.33325V8.66667H9.99992V9.33333H7.33325V10.6667H8.66659V11.3333H9.99992V10.6667H11.3333V7.33333H8.66659V6.66667H11.3333V5.33333H9.99992V4.66667Z" fill="currentColor"/>
</svg>
