<svg width="16" height="16" viewBox="0 0 16 16" fill="none" xmlns="http://www.w3.org/2000/svg">
<path d="M10.6667 14H14.0001V10H10.6667V14ZM12.0001 11.3333H12.6667V12.6667H12.0001V11.3333Z" fill="currentColor"/>
<path d="M12.0001 11.3333H12.6667V12.6667H12.0001V11.3333Z" fill="currentColor"/>
<path d="M6.3335 14H9.66683V7.33334H6.3335V14ZM7.66683 8.66668H8.3335V12.6667H7.66683V8.66668Z" fill="currentColor"/>
<path d="M7.66683 8.66668H8.3335V12.6667H7.66683V8.66668Z" fill="currentColor"/>
<path d="M2 14H5.33333V5.33334H2V14ZM3.33333 6.66668H4V12.6667H3.33333V6.66668Z" fill="currentColor"/>
<path d="M3.33333 6.66668H4V12.6667H3.33333V6.66668Z" fill="currentColor"/>
<path d="M11.1714 8.02L11.4954 9.31333L14.8087 8.48533L13.9801 5.17133L12.6867 5.49533L12.9121 6.39867L2.28406 1.39667L1.71606 2.60333L12.5141 7.68467L11.1714 8.02Z" fill="currentColor"/>
</svg>
