<svg width="16" height="16" viewBox="0 0 16 16" fill="none" xmlns="http://www.w3.org/2000/svg">
<path d="M1.99992 2V4.66667H1.33325V6H1.99992V10H1.33325V11.3333H1.99992V14H13.9999V2H1.99992ZM12.6666 12.6667H3.33325V11.3333H3.99992V10H3.33325V6H3.99992V4.66667H3.33325V3.33333H12.6666V12.6667Z" fill="currentColor"/>
<path d="M7.33317 9.87733V11.3333H8.6665V9.87733C8.94533 9.77773 9.19857 9.61746 9.40794 9.4081C9.6173 9.19873 9.77757 8.9455 9.87717 8.66666H11.3332V7.33333H9.87717C9.77757 7.0545 9.6173 6.80126 9.40794 6.5919C9.19857 6.38253 8.94533 6.22226 8.6665 6.12266V4.66666H7.33317V6.12266C7.05434 6.22226 6.8011 6.38253 6.59174 6.5919C6.38237 6.80126 6.2221 7.0545 6.1225 7.33333H4.6665V8.66666H6.1225C6.2221 8.9455 6.38237 9.19873 6.59174 9.4081C6.8011 9.61746 7.05434 9.77773 7.33317 9.87733ZM7.99984 7.33333C8.13169 7.33333 8.26058 7.37243 8.37022 7.44568C8.47985 7.51894 8.5653 7.62306 8.61576 7.74487C8.66622 7.86669 8.67942 8.00074 8.65369 8.13006C8.62797 8.25938 8.56448 8.37817 8.47124 8.4714C8.37801 8.56464 8.25922 8.62813 8.1299 8.65385C8.00058 8.67958 7.86653 8.66638 7.74471 8.61592C7.6229 8.56546 7.51878 8.48001 7.44552 8.37038C7.37227 8.26074 7.33317 8.13185 7.33317 8C7.33317 7.82319 7.40341 7.65362 7.52843 7.52859C7.65346 7.40357 7.82303 7.33333 7.99984 7.33333Z" fill="currentColor"/>
</svg>
