<svg width="16" height="16" viewBox="0 0 16 16" fill="none" xmlns="http://www.w3.org/2000/svg">
<path d="M12.6667 10H5.05733L3.33333 11.724V3.33333H10V2H2V14.9427L5.60933 11.3333H14V6.66667H12.6667V10Z" fill="currentColor"/>
<path d="M10.6666 4.66666H5.33325V5.99999H10.6666V4.66666Z" fill="currentColor"/>
<path d="M9.33325 7.33333H5.33325V8.66666H9.33325V7.33333Z" fill="currentColor"/>
<path d="M13.3333 1.33333C12.2306 1.33333 11.3333 2.23066 11.3333 3.33333C11.3333 4.436 12.2306 5.33333 13.3333 5.33333C14.4359 5.33333 15.3333 4.436 15.3333 3.33333C15.3333 2.23066 14.4359 1.33333 13.3333 1.33333ZM13.3333 3.99999C12.9659 3.99999 12.6666 3.70133 12.6666 3.33333C12.6666 2.96533 12.9659 2.66666 13.3333 2.66666C13.7006 2.66666 13.9999 2.96533 13.9999 3.33333C13.9999 3.70133 13.7006 3.99999 13.3333 3.99999Z" fill="currentColor"/>
</svg>
