<svg width="16" height="16" viewBox="0 0 16 16" fill="none" xmlns="http://www.w3.org/2000/svg">
<path d="M14.4713 13.5286L12.0166 11.074C12.8386 10.0473 13.3333 8.74798 13.3333 7.33331C13.3333 4.02531 10.6419 1.33331 7.33325 1.33331C4.02525 1.33331 1.33325 4.02531 1.33325 7.33331C1.33325 10.6413 4.02525 13.3333 7.33325 13.3333C8.74792 13.3333 10.0473 12.8386 11.0739 12.0166L13.5286 14.4713L14.4713 13.5286ZM2.66659 7.33331C2.66659 4.75998 4.75992 2.66665 7.33325 2.66665C9.90592 2.66665 11.9999 4.75998 11.9999 7.33331C11.9999 9.90665 9.90592 12 7.33325 12C4.75992 12 2.66659 9.90665 2.66659 7.33331Z" fill="currentColor"/>
<path d="M2.66659 7.33331C2.66659 4.75998 4.75992 2.66665 7.33325 2.66665C9.90592 2.66665 11.9999 4.75998 11.9999 7.33331C11.9999 9.90665 9.90592 12 7.33325 12C4.75992 12 2.66659 9.90665 2.66659 7.33331Z" fill="currentColor"/>
<path d="M7.99984 4.66663H6.6665V6.66663H4.6665V7.99996H6.6665V9.99996H7.99984V7.99996H9.99984V6.66663H7.99984V4.66663Z" fill="white"/>
</svg>
