<svg width="16" height="16" viewBox="0 0 16 16" fill="none" xmlns="http://www.w3.org/2000/svg">
<rect x="3.33337" y="3.33333" width="7.33333" height="10" fill="currentColor"/>
<path d="M12 14H4C2.89733 14 2 13.1027 2 12V2H11.3333V9.33333H10V3.33333H3.33333V12C3.33333 12.3673 3.63267 12.6667 4 12.6667H12V14Z" fill="currentColor"/>
<path d="M8.66663 4.66667H4.66663V6H8.66663V4.66667Z" fill="white"/>
<path d="M8.66663 7.33333H4.66663V8.66667H8.66663V7.33333Z" fill="white"/>
<path d="M7.33329 10H4.66663V11.3333H7.33329V10Z" fill="white"/>
<path d="M12 14C10.8973 14 10 13.1027 10 12V8.66667H14V12C14 13.1027 13.1027 14 12 14ZM11.3333 10V12C11.3333 12.3673 11.6327 12.6667 12 12.6667C12.3673 12.6667 12.6667 12.3673 12.6667 12V10H11.3333Z" fill="currentColor"/>
<path d="M11.3333 10V12C11.3333 12.3673 11.6327 12.6667 12 12.6667C12.3673 12.6667 12.6667 12.3673 12.6667 12V10H11.3333Z" fill="white"/>
</svg>
