<svg width="16" height="16" viewBox="0 0 16 16" fill="none" xmlns="http://www.w3.org/2000/svg">
<path d="M11.9999 4.66667V4.00001H10.6666V4.66667H6.66659V2.66667H2.66659V4.66667H1.33325V14H14.6666V4.66667H11.9999ZM3.99992 4.00001H5.33325V4.66667H3.99992V4.00001ZM13.3333 12.6667H2.66659V6H13.3333V12.6667Z" fill="currentColor"/>
<path d="M9.33317 12C9.86059 12 10.3762 11.8436 10.8147 11.5506C11.2532 11.2576 11.595 10.8411 11.7968 10.3538C11.9987 9.86656 12.0515 9.33038 11.9486 8.8131C11.8457 8.29582 11.5917 7.82066 11.2188 7.44772C10.8458 7.07478 10.3707 6.82081 9.85341 6.71791C9.33613 6.61502 8.79995 6.66783 8.31268 6.86966C7.82541 7.07149 7.40894 7.41329 7.11592 7.85182C6.8229 8.29035 6.6665 8.80592 6.6665 9.33334C6.6665 10.0406 6.94746 10.7189 7.44755 11.219C7.94765 11.7191 8.62593 12 9.33317 12ZM9.33317 8.00001C9.59688 8.00001 9.85467 8.07821 10.0739 8.22471C10.2932 8.37122 10.4641 8.57946 10.565 8.8231C10.6659 9.06673 10.6923 9.33482 10.6409 9.59346C10.5894 9.8521 10.4624 10.0897 10.276 10.2761C10.0895 10.4626 9.85193 10.5896 9.59329 10.6411C9.33465 10.6925 9.06656 10.6661 8.82293 10.5652C8.57929 10.4643 8.37105 10.2934 8.22454 10.0741C8.07804 9.85483 7.99984 9.59705 7.99984 9.33334C7.99984 8.97972 8.14031 8.64058 8.39036 8.39053C8.64041 8.14048 8.97955 8.00001 9.33317 8.00001Z" fill="currentColor"/>
<path d="M5.33333 6.66667H4V8.00001H5.33333V6.66667Z" fill="currentColor"/>
</svg>
