<svg width="16" height="16" viewBox="0 0 16 16" fill="none" xmlns="http://www.w3.org/2000/svg">
<rect x="1.33337" y="2.66667" width="13.3333" height="10.6667" fill="currentColor"/>
<path d="M13.3334 4.66667C13.3334 4.97667 13.3334 4.97667 13.3334 4.97667L8.00008 8.53201L2.66675 4.97667C2.66675 4.97667 2.66675 4.97667 2.66675 4.66667C2.66675 4.66667 9.16782 4.66667 13.3334 4.66667ZM2.66675 4.66667V6.57934L8.00008 10.1353L13.3334 6.57934V4.66667C9.16782 4.66667 2.66675 4.66667 2.66675 4.66667Z" fill="white"/>
<path d="M13.3334 4.66667C13.3334 4.97667 13.3334 4.97667 13.3334 4.97667L8.00008 8.53201L2.66675 4.97667C2.66675 4.97667 2.66675 4.97667 2.66675 4.66667C2.66675 4.66667 9.16782 4.66667 13.3334 4.66667ZM2.66675 4.66667V6.57934L8.00008 10.1353L13.3334 6.57934V4.66667C9.16782 4.66667 2.66675 4.66667 2.66675 4.66667Z" fill="white"/>
<path d="M13.3334 1.33334C12.2307 1.33334 11.3334 2.23067 11.3334 3.33334C11.3334 4.436 12.2307 5.33334 13.3334 5.33334C14.436 5.33334 15.3334 4.436 15.3334 3.33334C15.3334 2.23067 14.436 1.33334 13.3334 1.33334ZM13.3334 4C12.9654 4 12.6667 3.70134 12.6667 3.33334C12.6667 2.96534 12.9654 2.66667 13.3334 2.66667C13.7014 2.66667 14 2.96534 14 3.33334C14 3.70134 13.7014 4 13.3334 4Z" fill="white"/>
</svg>
