<svg width="16" height="16" viewBox="0 0 16 16" fill="none" xmlns="http://www.w3.org/2000/svg">
<path d="M8 14.3807L2.34333 8.724C0.783995 7.16467 0.783995 4.62667 2.34333 3.06734C3.90266 1.50734 6.44066 1.50734 8 3.06734C9.55933 1.50734 12.0973 1.50734 13.6567 3.06734C15.216 4.62667 15.216 7.16467 13.6567 8.724L8 14.3807ZM5.17133 3.22867C4.45933 3.22867 3.78933 3.506 3.28533 4.00934C2.24533 5.04934 2.24533 6.74133 3.28533 7.78067L8 12.4953L12.714 7.78134C13.754 6.74134 13.754 5.04934 12.714 4.01C11.7067 3.00267 9.95 3.00267 8.94266 4.01C8.81133 4.14134 8.688 4.30134 8.56666 4.49667L8 5.41133L7.43333 4.49667C7.312 4.30067 7.18866 4.14134 7.05733 4.01C6.554 3.506 5.88399 3.22867 5.17133 3.22867Z" fill="currentColor"/>
<path d="M5.17133 3.22867C4.45933 3.22867 3.78933 3.506 3.28533 4.00934C2.24533 5.04934 2.24533 6.74133 3.28533 7.78067L8 12.4953L12.714 7.78134C13.754 6.74134 13.754 5.04934 12.714 4.01C11.7067 3.00267 9.95 3.00267 8.94266 4.01C8.81133 4.14134 8.688 4.30134 8.56666 4.49667L8 5.41133L7.43333 4.49667C7.312 4.30067 7.18866 4.14134 7.05733 4.01C6.554 3.506 5.88399 3.22867 5.17133 3.22867Z" fill="currentColor"/>
</svg>
