<svg width="16" height="16" viewBox="0 0 16 16" fill="none" xmlns="http://www.w3.org/2000/svg">
<path d="M14.7687 9.77467L10.4467 9.15734L9.57074 10.8727C8.72274 10.412 7.87674 9.76201 7.0574 8.94201C6.19807 8.08267 5.5434 7.23601 5.1114 6.418L6.9754 5.48667L5.11073 1.13867L4.60407 1.21201C3.72807 1.33867 2.9674 1.71934 2.34274 2.34267C0.228068 4.45734 1.05607 8.59867 4.22807 11.7713C6.2154 13.758 8.5834 14.826 10.5954 14.826C11.7947 14.826 12.8667 14.4467 13.6567 13.6567C14.4641 12.85 14.8574 11.698 14.7941 10.326L14.7687 9.77467ZM12.7141 12.714C11.1801 14.246 7.7274 13.384 5.1714 10.8287C2.61673 8.27334 1.75274 4.81934 3.28607 3.28667C3.5814 2.99134 3.92407 2.77667 4.3074 2.64801L5.25407 4.85667L4.51607 5.22534C4.19207 5.38734 3.95274 5.66734 3.84207 6.01334C3.7314 6.36134 3.76474 6.73067 3.93674 7.05401C4.42874 7.98001 5.16207 8.93267 6.1154 9.88601C7.02474 10.796 7.9734 11.5227 8.93407 12.0447C9.25674 12.2207 9.64207 12.2587 9.9894 12.1493C10.3367 12.0407 10.6167 11.802 10.7801 11.476L11.2107 10.6133L13.4554 10.934C13.4087 11.53 13.2247 12.204 12.7141 12.714Z" fill="currentColor"/>
<path d="M10.862 7.52867L11.8047 8.47133L15.6093 4.66667L11.8047 0.862L10.862 1.80467L13.0573 4H8V5.33333H13.0573L10.862 7.52867Z" fill="currentColor"/>
</svg>
