<svg width="16" height="16" viewBox="0 0 16 16" fill="none" xmlns="http://www.w3.org/2000/svg">
<path d="M14.5534 7.628C14.4354 7.45266 11.6274 3.33333 8.00007 3.33333C4.37274 3.33333 1.56474 7.45266 1.44674 7.628L1.20007 8L1.44941 8.372C1.56474 8.54733 4.37274 12.6667 8.00007 12.6667C11.6274 12.6667 14.4354 8.54733 14.5534 8.372L14.8001 8L14.5534 7.628ZM8.00007 11.3333C5.64607 11.3333 3.55741 8.94 2.82807 8C3.55741 7.06 5.64607 4.66666 8.00007 4.66666C10.3541 4.66666 12.4427 7.06 13.1721 8C12.4427 8.94 10.3541 11.3333 8.00007 11.3333Z" fill="currentColor"/>
<path d="M8.00007 11.3333C5.64607 11.3333 3.55741 8.94 2.82807 8C3.55741 7.06 5.64607 4.66666 8.00007 4.66666C10.3541 4.66666 12.4427 7.06 13.1721 8C12.4427 8.94 10.3541 11.3333 8.00007 11.3333Z" fill="currentColor"/>
<path d="M8.00004 5.33333C7.47263 5.33333 6.95705 5.48973 6.51852 5.78274C6.07999 6.07576 5.7382 6.49224 5.53636 6.97951C5.33453 7.46677 5.28172 8.00295 5.38461 8.52024C5.48751 9.03752 5.74148 9.51267 6.11442 9.88561C6.48736 10.2586 6.96252 10.5125 7.4798 10.6154C7.99708 10.7183 8.53326 10.6655 9.02053 10.4637C9.5078 10.2618 9.92428 9.92005 10.2173 9.48151C10.5103 9.04298 10.6667 8.52741 10.6667 7.99999C10.6667 7.29275 10.3858 6.61447 9.88566 6.11438C9.38556 5.61428 8.70729 5.33333 8.00004 5.33333ZM8.00004 9.33333C7.73633 9.33333 7.47855 9.25513 7.25928 9.10862C7.04002 8.96211 6.86912 8.75387 6.7682 8.51024C6.66729 8.2666 6.64088 7.99852 6.69233 7.73987C6.74378 7.48123 6.87076 7.24366 7.05723 7.05719C7.2437 6.87072 7.48128 6.74373 7.73992 6.69228C7.99856 6.64083 8.26665 6.66724 8.51029 6.76816C8.75392 6.86907 8.96216 7.03997 9.10867 7.25923C9.25518 7.4785 9.33338 7.73629 9.33338 7.99999C9.33338 8.35362 9.1929 8.69275 8.94285 8.9428C8.6928 9.19285 8.35366 9.33333 8.00004 9.33333Z" fill="white"/>
<path d="M1.66663 13.3333L13.3333 1.33333L14.3333 2.33333L2.66663 14.3333L1.66663 13.3333Z" fill="currentColor"/>
</svg>
