<svg width="16" height="16" viewBox="0 0 16 16" fill="none" xmlns="http://www.w3.org/2000/svg">
<path d="M14 12.6667H2V9.33333H2.66667C3.402 9.33333 4 8.73533 4 8C4 7.26467 3.402 6.66667 2.66667 6.66667H2V3.33333H14V6.66667H13.3333C12.598 6.66667 12 7.26467 12 8C12 8.73533 12.598 9.33333 13.3333 9.33333H14V12.6667ZM3.33333 11.3333H12.6667V10.5827C11.518 10.286 10.6667 9.24067 10.6667 8C10.6667 6.75933 11.518 5.71467 12.6667 5.41733V4.66667H3.33333V5.41733C4.482 5.71467 5.33333 6.76 5.33333 8C5.33333 9.24 4.482 10.2853 3.33333 10.5827V11.3333Z" fill="currentColor"/>
<path d="M3.33333 11.3333H12.6667V10.5827C11.518 10.286 10.6667 9.24067 10.6667 8C10.6667 6.75933 11.518 5.71467 12.6667 5.41733V4.66667H3.33333V5.41733C4.482 5.71467 5.33333 6.76 5.33333 8C5.33333 9.24 4.482 10.2853 3.33333 10.5827V11.3333Z" fill="currentColor"/>
<path d="M6.66671 10C6.49604 10 6.32538 9.93466 6.19538 9.80467C5.93471 9.544 5.93471 9.12267 6.19538 8.862L8.86204 6.19533C9.12271 5.93467 9.54404 5.93467 9.80471 6.19533C10.0654 6.456 10.0654 6.87733 9.80471 7.138L7.13804 9.80467C7.00804 9.93466 6.83738 10 6.66671 10Z" fill="white"/>
<path d="M6.66667 7.33333C7.03486 7.33333 7.33333 7.03486 7.33333 6.66667C7.33333 6.29848 7.03486 6 6.66667 6C6.29848 6 6 6.29848 6 6.66667C6 7.03486 6.29848 7.33333 6.66667 7.33333Z" fill="white"/>
<path d="M9.33329 10C9.70148 10 9.99996 9.70152 9.99996 9.33333C9.99996 8.96514 9.70148 8.66667 9.33329 8.66667C8.9651 8.66667 8.66663 8.96514 8.66663 9.33333C8.66663 9.70152 8.9651 10 9.33329 10Z" fill="white"/>
</svg>
