<svg width="16" height="16" viewBox="0 0 16 16" fill="none" xmlns="http://www.w3.org/2000/svg">
<path d="M10.6666 5.01533V4.66666C10.6666 4.31304 10.5261 3.9739 10.2761 3.72385C10.026 3.4738 9.68687 3.33333 9.33325 3.33333H2.66659C2.31296 3.33333 1.97382 3.4738 1.72378 3.72385C1.47373 3.9739 1.33325 4.31304 1.33325 4.66666V11.3333C1.33325 11.687 1.47373 12.0261 1.72378 12.2761C1.97382 12.5262 2.31296 12.6667 2.66659 12.6667H9.33325C9.68687 12.6667 10.026 12.5262 10.2761 12.2761C10.5261 12.0261 10.6666 11.687 10.6666 11.3333V10.9847L13.9999 12.318V3.68199L10.6666 5.01533ZM12.6666 10.3487L9.33325 9.01533V11.3333H2.66659V4.66666H9.33325V6.98466L12.6666 5.65133V10.3487Z" fill="currentColor"/>
<path d="M4.66659 5.33333H3.33325V6.66666H4.66659V5.33333Z" fill="currentColor"/>
</svg>
