<svg width="16" height="16" viewBox="0 0 16 16" fill="none" xmlns="http://www.w3.org/2000/svg">
<path d="M13.3334 3.33334H2.66671C2.31309 3.33334 1.97395 3.47382 1.7239 3.72387C1.47385 3.97392 1.33337 4.31306 1.33337 4.66668V11.3333C1.33337 11.687 1.47385 12.0261 1.7239 12.2762C1.97395 12.5262 2.31309 12.6667 2.66671 12.6667H13.3334C13.687 12.6667 14.0261 12.5262 14.2762 12.2762C14.5262 12.0261 14.6667 11.687 14.6667 11.3333V4.66668C14.6667 4.31306 14.5262 3.97392 14.2762 3.72387C14.0261 3.47382 13.687 3.33334 13.3334 3.33334ZM13.3334 4.66668V6.00001H2.66671V4.66668H13.3334ZM2.66671 11.3333V7.33334H13.3334V11.3333H2.66671Z" fill="currentColor"/>
<path d="M2.66671 11.3333V7.33334H13.3334V11.3333H2.66671Z" fill="currentColor"/>
<path d="M13.3334 4.66668V6.00001H2.66671V4.66668H13.3334Z" fill="currentColor"/>
<path d="M6.66667 8.66669H4V10H6.66667V8.66669Z" fill="white"/>
<rect x="2.66663" y="6" width="10.6667" height="1.33333" fill="white"/>
</svg>
