<svg width="16" height="16" viewBox="0 0 16 16" fill="none" xmlns="http://www.w3.org/2000/svg">
<path d="M13.8533 6.91667C13.7267 6.75867 13.5353 6.66667 13.3333 6.66667H11.0787L8.596 1.702C8.37 1.25 7.62934 1.25 7.40334 1.702L4.92134 6.66667H2.66667C2.46467 6.66667 2.27334 6.75867 2.14667 6.91667C2.02067 7.074 1.972 7.28067 2.016 7.478L3.34934 13.478C3.41667 13.7827 3.68734 14 4 14H12C12.3127 14 12.5833 13.7827 12.6507 13.478L13.984 7.478C14.028 7.28067 13.98 7.074 13.8533 6.91667ZM8 3.49067L9.588 6.66667H6.412L8 3.49067ZM11.4653 12.6667H4.53467L3.49734 8H12.502L11.4653 12.6667Z" fill="currentColor"/>
<path d="M11.4653 12.6667H4.53467L3.49734 8H12.502L11.4653 12.6667Z" fill="currentColor"/>
</svg>
