<svg width="16" height="16" viewBox="0 0 16 16" fill="none" xmlns="http://www.w3.org/2000/svg">
<path d="M8.00005 1.31734L1.28271 2.81L1.33338 3.39334C1.40471 4.17667 2.09271 11.0867 4.29405 12.5547C5.39053 13.3002 6.52836 13.9831 7.70205 14.6L8.00005 14.7487L8.29805 14.6C9.47075 13.9841 10.6077 13.3023 11.7034 12.558C13.9047 11.0867 14.5927 4.17667 14.6667 3.39334L14.72 2.81L8.00005 1.31734ZM12.842 6.66667H8.66672V2.83134L13.2767 3.85534C13.1807 4.71134 13.034 5.69467 12.842 6.66667ZM7.33338 2.83134V6.66667H3.15805C2.96605 5.69467 2.81938 4.71134 2.72338 3.85534L7.33338 2.83134ZM3.45605 8H7.33338V12.874C6.76472 12.5467 5.97671 12.074 5.03671 11.4453C4.40005 11.0193 3.86205 9.624 3.45605 8ZM10.9634 11.4453C10.0234 12.072 9.23538 12.5467 8.66672 12.874V8H12.544C12.138 9.624 11.6 11.0193 10.9634 11.4453Z" fill="currentColor"/>
<path d="M12.842 6.66667H8.66672V2.83134L13.2767 3.85534C13.1807 4.71134 13.034 5.69467 12.842 6.66667Z" fill="currentColor"/>
<path d="M7.33338 2.83134V6.66667H3.15805C2.96605 5.69467 2.81938 4.71134 2.72338 3.85534L7.33338 2.83134Z" fill="currentColor"/>
<path d="M3.45605 8H7.33338V12.874C6.76472 12.5467 5.97671 12.074 5.03671 11.4453C4.40005 11.0193 3.86205 9.624 3.45605 8Z" fill="currentColor"/>
<path d="M10.9634 11.4453C10.0234 12.072 9.23538 12.5467 8.66672 12.874V8H12.544C12.138 9.624 11.6 11.0193 10.9634 11.4453Z" fill="currentColor"/>
<rect x="7.33325" y="2.66667" width="1.33333" height="10" fill="white"/>
<path d="M3.53808 8L3.33325 6.66667L12.9999 6.66667L12.6666 8H3.53808Z" fill="white"/>
</svg>
