<svg width="16" height="16" viewBox="0 0 16 16" fill="none" xmlns="http://www.w3.org/2000/svg">
<path d="M8.00004 1.33333C6.6815 1.33333 5.39257 1.72432 4.29624 2.45686C3.19991 3.18941 2.34543 4.2306 1.84085 5.44877C1.33626 6.66695 1.20424 8.00739 1.46148 9.3006C1.71871 10.5938 2.35365 11.7817 3.286 12.714C4.21835 13.6464 5.40624 14.2813 6.69944 14.5386C7.99265 14.7958 9.33309 14.6638 10.5513 14.1592C11.7694 13.6546 12.8106 12.8001 13.5432 11.7038C14.2757 10.6075 14.6667 9.31854 14.6667 8C14.6648 6.23248 13.9618 4.53792 12.7119 3.28809C11.4621 2.03827 9.76756 1.33527 8.00004 1.33333Z" fill="currentColor"/>
<path d="M8.66671 4.66666H7.33337V5.99999H8.66671V4.66666Z" fill="white"/>
<path d="M8.66671 6.99998H7.33337V11.6667H8.66671V6.99998Z" fill="white"/>
</svg>
