<svg width="16" height="16" viewBox="0 0 16 16" fill="none" xmlns="http://www.w3.org/2000/svg">
<rect x="2.66663" y="3.33334" width="12" height="9.33333" fill="currentColor"/>
<path d="M1.33337 2.66666V13.3333H14.6667V2.66666H1.33337ZM13.3334 4V4.31L8.00004 7.86533L2.66671 4.31V4H13.3334ZM2.66671 12V5.91266L8.00004 9.46866L13.3334 5.91266V12H2.66671Z" fill="currentColor"/>
<path d="M1.33337 2.66666V13.3333H14.6667V2.66666H1.33337ZM13.3334 4V4.31L8.00004 7.86533L2.66671 4.31V4H13.3334ZM2.66671 12V5.91266L8.00004 9.46866L13.3334 5.91266V12H2.66671Z" fill="currentColor"/>
<path d="M13.3333 4C13.3333 4.31 13.3333 4.31 13.3333 4.31L7.99996 7.86533L2.66663 4.31C2.66663 4.31 2.66663 4.31 2.66663 4C2.66663 4 9.1677 4 13.3333 4ZM2.66663 4V5.91267L7.99996 9.46867L13.3333 5.91267V4C9.1677 4 2.66663 4 2.66663 4Z" fill="white"/>
<path d="M13.3333 4C13.3333 4.31 13.3333 4.31 13.3333 4.31L7.99996 7.86533L2.66663 4.31C2.66663 4.31 2.66663 4.31 2.66663 4C2.66663 4 9.1677 4 13.3333 4ZM2.66663 4V5.91267L7.99996 9.46867L13.3333 5.91267V4C9.1677 4 2.66663 4 2.66663 4Z" fill="white"/>
</svg>
