<svg width="16" height="16" viewBox="0 0 16 16" fill="none" xmlns="http://www.w3.org/2000/svg">
<circle cx="12" cy="4" r="1" fill="white"/>
<path d="M12.6667 9.25134V6.66668C12.6656 6.40884 12.6433 6.15152 12.6 5.89734C12.8959 5.80526 13.1663 5.64544 13.3896 5.43057C13.613 5.21571 13.7832 4.95173 13.8867 4.6596C13.9901 4.36746 14.0241 4.05523 13.9858 3.74768C13.9475 3.44014 13.838 3.14576 13.666 2.88793C13.494 2.63011 13.2643 2.41593 12.9951 2.26242C12.7258 2.10891 12.4245 2.02029 12.1151 2.0036C11.8056 1.98691 11.4965 2.04261 11.2123 2.16628C10.9281 2.28995 10.6767 2.47817 10.478 2.71601C9.92732 2.37052 9.31023 2.14453 8.66667 2.05268V1.33334H7.33333V2.05334C6.2236 2.21352 5.20864 2.76789 4.47412 3.61503C3.7396 4.46217 3.33465 5.54545 3.33333 6.66668V9.25134L2.81267 11.3333H2V12.6667H5.428C5.57351 13.2384 5.90537 13.7453 6.37114 14.1074C6.83692 14.4695 7.41005 14.6661 8 14.6661C8.58995 14.6661 9.16308 14.4695 9.62886 14.1074C10.0946 13.7453 10.4265 13.2384 10.572 12.6667H14V11.3333H13.1867L12.6667 9.25134ZM12 3.33334C12.1319 3.33334 12.2607 3.37244 12.3704 3.4457C12.48 3.51895 12.5655 3.62307 12.6159 3.74489C12.6664 3.86671 12.6796 4.00075 12.6539 4.13007C12.6281 4.25939 12.5646 4.37818 12.4714 4.47141C12.3782 4.56465 12.2594 4.62814 12.1301 4.65387C12.0007 4.67959 11.8667 4.66639 11.7449 4.61593C11.6231 4.56547 11.5189 4.48002 11.4457 4.37039C11.3724 4.26076 11.3333 4.13186 11.3333 4.00001C11.3333 3.8232 11.4036 3.65363 11.5286 3.52861C11.6536 3.40358 11.8232 3.33334 12 3.33334ZM4.64667 9.49534L4.66667 6.66668C4.66388 6.04663 4.83497 5.43821 5.1605 4.91048C5.48604 4.38276 5.95299 3.95685 6.50837 3.68111C7.06374 3.40537 7.68528 3.29083 8.30246 3.3505C8.91964 3.41017 9.50774 3.64165 10 4.01868C10.0038 4.40785 10.121 4.78746 10.3374 5.11098C10.5537 5.43449 10.8598 5.68786 11.218 5.84001C11.2909 6.10966 11.3296 6.38738 11.3333 6.66668V9.33334L11.8193 11.3333H4.18733L4.64667 9.49534ZM8 13.3333C7.76699 13.3326 7.53827 13.2707 7.33677 13.1537C7.13528 13.0366 6.96809 12.8687 6.852 12.6667H9.148C9.03191 12.8687 8.86472 13.0366 8.66323 13.1537C8.46173 13.2707 8.23301 13.3326 8 13.3333Z" fill="currentColor"/>
</svg>
