<svg width="16" height="16" viewBox="0 0 16 16" fill="none" xmlns="http://www.w3.org/2000/svg">
<path d="M12.6667 9.25134V6.00001C12.6667 4.16201 11.1713 2.66668 9.33333 2.66668H8.66667V2.00001C8.66667 1.63201 8.368 1.33334 8 1.33334C7.632 1.33334 7.33333 1.63201 7.33333 2.00001V2.66668H6.66667C4.82867 2.66668 3.33333 4.16201 3.33333 6.00001V9.25134L2.81267 11.3333H2V12.6667H5.33333C5.33333 13.7693 6.23067 14.6667 7.33333 14.6667H8.66667C9.76933 14.6667 10.6667 13.7693 10.6667 12.6667H14V11.3333H13.1873L12.6667 9.25134ZM4.18733 11.3333L4.64667 9.49534L4.66667 6.00001C4.66667 4.89734 5.564 4.00001 6.66667 4.00001H9.33333C10.436 4.00001 11.3333 4.89734 11.3333 6.00001V9.33334L11.8187 11.3333H4.18733ZM8.66667 13.3333H7.33333C6.966 13.3333 6.66667 13.034 6.66667 12.6667H9.33333C9.33333 13.034 9.034 13.3333 8.66667 13.3333Z" fill="currentColor"/>
<path d="M4.18733 11.3333L4.64667 9.49534L4.66667 6.00001C4.66667 4.89734 5.564 4.00001 6.66667 4.00001H9.33333C10.436 4.00001 11.3333 4.89734 11.3333 6.00001V9.33334L11.8187 11.3333H4.18733Z" fill="currentColor"/>
<path d="M2.87809 4.57201C3.10742 3.69734 3.75409 3.00667 4.61342 2.72067L4.87742 2.63267L4.45609 1.36734L4.19209 1.45534C2.88742 1.89067 1.90942 2.94601 1.57609 4.28001L1.34009 5.90534L2.66009 6.09467L2.87809 4.57201Z" fill="currentColor"/>
<path d="M13.1221 4.57201L13.3401 6.09468L14.6594 5.90601L14.4367 4.34801L14.4234 4.28068C14.0901 2.94734 13.1121 1.89134 11.8074 1.45601L11.5434 1.36801L11.1221 2.63268L11.3861 2.72068C12.2461 3.00668 12.8927 3.69734 13.1221 4.57201Z" fill="currentColor"/>
</svg>
