<svg width="16" height="16" viewBox="0 0 16 16" fill="none" xmlns="http://www.w3.org/2000/svg">
<path d="M14 2.37133L7.87937 4.66667H3.33337C2.80294 4.66667 2.29423 4.87738 1.91916 5.25245C1.54409 5.62753 1.33337 6.13623 1.33337 6.66667V8C1.33337 8.53043 1.54409 9.03914 1.91916 9.41421C2.29423 9.78929 2.80294 10 3.33337 10H4.66671V12.6667C4.66671 13.0203 4.80718 13.3594 5.05723 13.6095C5.30728 13.8595 5.64642 14 6.00004 14H6.66671C7.02033 14 7.35947 13.8595 7.60952 13.6095C7.85957 13.3594 8.00004 13.0203 8.00004 12.6667V10.0453L14 12.2953V2.37133ZM4.00004 8.66667H3.33337C3.15656 8.66667 2.98699 8.59643 2.86197 8.4714C2.73695 8.34638 2.66671 8.17681 2.66671 8V6.66667C2.66671 6.48986 2.73695 6.32029 2.86197 6.19526C2.98699 6.07024 3.15656 6 3.33337 6H4.00004V8.66667ZM5.33337 6H7.33337V8.66667H5.33337V6ZM6.00004 12.6667V10H6.66671V12.6667H6.00004ZM12.6667 10.3713L8.66671 8.87133V5.79533L12.6667 4.29533V10.3713Z" fill="currentColor"/>
<path d="M4.00004 8.66667H3.33337C3.15656 8.66667 2.98699 8.59643 2.86197 8.4714C2.73695 8.34638 2.66671 8.17681 2.66671 8V6.66667C2.66671 6.48986 2.73695 6.32029 2.86197 6.19526C2.98699 6.07024 3.15656 6 3.33337 6H4.00004V8.66667Z" fill="currentColor"/>
<path d="M5.33337 6H7.33337V8.66667H5.33337V6Z" fill="currentColor"/>
<path d="M12.6667 10.3713L8.66671 8.87133V5.79533L12.6667 4.29533V10.3713Z" fill="currentColor"/>
</svg>
