<svg width="16" height="16" viewBox="0 0 16 16" fill="none" xmlns="http://www.w3.org/2000/svg">
<path d="M11.3333 2.66668V1.33334H10V2.66668H6V1.33334H4.66667V2.66668H2V14H14V2.66668H11.3333ZM12.6667 12.6667H3.33333V4.00001H4.66667V5.33334H6V4.00001H10V5.33334H11.3333V4.00001H12.6667V12.6667Z" fill="currentColor"/>
<path d="M12.6667 12.6667H3.33333V4.00001H4.66667V5.33334H6V4.00001H10V5.33334H11.3333V4.00001H12.6667V12.6667Z" fill="currentColor"/>
<path d="M4.66663 7.33333H5.99996V8H4.66663V11.3333H7.33329V10H5.99996V9.33333H7.33329V6H4.66663V7.33333Z" fill="white"/>
<path d="M8.66663 9.33333H9.99996V10H8.66663V11.3333H11.3333V8H9.99996V7.33333H11.3333V6H8.66663V9.33333Z" fill="white"/>
</svg>
