<svg width="16" height="16" viewBox="0 0 16 16" fill="none" xmlns="http://www.w3.org/2000/svg">
<path d="M8.00017 1.33334C6.68162 1.33334 5.39269 1.72433 4.29636 2.45687C3.20004 3.18941 2.34555 4.23061 1.84097 5.44878C1.33638 6.66695 1.20436 8.0074 1.4616 9.3006C1.71883 10.5938 2.35377 11.7817 3.28612 12.714C4.21847 13.6464 5.40636 14.2813 6.69956 14.5386C7.99277 14.7958 9.33322 14.6638 10.5514 14.1592C11.7696 13.6546 12.8108 12.8001 13.5433 11.7038C14.2758 10.6075 14.6668 9.31854 14.6668 8C14.6649 6.23249 13.9619 4.53792 12.7121 3.2881C11.4622 2.03828 9.76768 1.33528 8.00017 1.33334ZM8.00017 13.3333C6.94533 13.3333 5.91419 13.0205 5.03712 12.4345C4.16006 11.8485 3.47648 11.0155 3.07281 10.041C2.66914 9.06644 2.56352 7.99409 2.76931 6.95952C2.9751 5.92496 3.48305 4.97465 4.22893 4.22877C4.97481 3.48289 5.92512 2.97494 6.95968 2.76915C7.99425 2.56336 9.06661 2.66898 10.0411 3.07265C11.0157 3.47631 11.8486 4.1599 12.4347 5.03696C13.0207 5.91402 13.3335 6.94517 13.3335 8C13.3319 9.414 12.7695 10.7696 11.7696 11.7695C10.7698 12.7693 9.41417 13.3317 8.00017 13.3333Z" fill="currentColor"/>
<path d="M7.27072 9.65027V9.23497C7.27072 9.06011 7.28267 8.90346 7.30659 8.76503C7.33848 8.62659 7.38233 8.49545 7.43813 8.37159C7.50191 8.24772 7.58163 8.1275 7.67729 8.01093C7.78093 7.89435 7.90848 7.77049 8.05995 7.63934L8.59807 7.1694C8.74954 7.04554 8.87709 6.9071 8.98073 6.7541C9.09234 6.60109 9.14815 6.4153 9.14815 6.19672C9.14815 5.91257 9.04849 5.67577 8.84919 5.48634C8.65786 5.28962 8.38282 5.19126 8.02408 5.19126C7.84072 5.19126 7.67331 5.22404 7.52184 5.28962C7.37834 5.34791 7.25079 5.43169 7.13918 5.54098C7.03554 5.64299 6.95582 5.76321 6.90001 5.90164C6.84421 6.04007 6.81232 6.18215 6.80435 6.32787L5.3335 6.20765C5.38133 5.85792 5.48098 5.54827 5.63245 5.27869C5.79189 5.00182 5.99518 4.76867 6.24232 4.57923C6.48945 4.3898 6.77246 4.24772 7.09134 4.15301C7.41023 4.051 7.75303 4 8.11974 4C8.46254 4 8.78541 4.04736 9.08835 4.14208C9.39927 4.22951 9.67032 4.3643 9.90151 4.54645C10.1407 4.72131 10.328 4.93989 10.4635 5.20219C10.5991 5.46448 10.6668 5.76685 10.6668 6.10929C10.6668 6.34244 10.6389 6.54645 10.5831 6.72131C10.5273 6.89617 10.4476 7.05647 10.344 7.20219C10.2403 7.34791 10.1128 7.48998 9.9613 7.62841C9.8178 7.75956 9.65437 7.898 9.47101 8.04372C9.31157 8.16758 9.18003 8.27687 9.0764 8.37159C8.98073 8.4663 8.90101 8.56102 8.83723 8.65574C8.78143 8.75046 8.74157 8.85246 8.71765 8.96175C8.69374 9.07104 8.68178 9.20583 8.68178 9.36612V9.65027H7.27072ZM7.03155 11.1694C7.03155 10.9362 7.12323 10.7359 7.30659 10.5683C7.49792 10.4007 7.72513 10.3169 7.9882 10.3169C8.24331 10.3169 8.46653 10.3971 8.65786 10.5574C8.84919 10.7177 8.94486 10.9144 8.94486 11.1475C8.94486 11.3807 8.84919 11.5811 8.65786 11.7486C8.4745 11.9162 8.25128 12 7.9882 12C7.86065 12 7.73708 11.9781 7.6175 11.9344C7.50589 11.8907 7.40624 11.8324 7.31855 11.7596C7.23086 11.6867 7.15911 11.5993 7.1033 11.4973C7.05547 11.3953 7.03155 11.286 7.03155 11.1694Z" fill="currentColor"/>
</svg>
