<svg width="16" height="16" viewBox="0 0 16 16" fill="none" xmlns="http://www.w3.org/2000/svg">
<path d="M13.3333 4.66667V4.00001H11.9999V4.66667H10.4806L9.81392 2.66667H3.51925L2.85259 4.66667H1.33325V14H14.6666V4.66667H13.3333ZM2.66659 6H3.81392L4.48059 4.00001H8.85259L9.51925 6H10.6666V12.6667H2.66659V6ZM13.3333 12.6667H11.9999V6H13.3333V12.6667Z" fill="currentColor"/>
<path d="M6.66651 6C6.07316 6 5.49314 6.17595 4.99979 6.50559C4.50645 6.83524 4.12193 7.30377 3.89487 7.85195C3.6678 8.40013 3.60839 9.00333 3.72415 9.58527C3.83991 10.1672 4.12563 10.7018 4.54518 11.1213C4.96474 11.5409 5.49929 11.8266 6.08123 11.9424C6.66318 12.0581 7.26638 11.9987 7.81456 11.7716C8.36273 11.5446 8.83127 11.1601 9.16091 10.6667C9.49056 10.1734 9.66651 9.59334 9.66651 9C9.66562 8.20462 9.34927 7.44207 8.78685 6.87965C8.22443 6.31724 7.46188 6.00088 6.66651 6ZM6.66651 10.6667C6.33687 10.6667 6.01464 10.5689 5.74056 10.3858C5.46647 10.2026 5.25285 9.94235 5.12671 9.63781C5.00056 9.33326 4.96755 8.99815 5.03186 8.67485C5.09617 8.35155 5.25491 8.05458 5.48799 7.82149C5.72108 7.5884 6.01805 7.42967 6.34135 7.36536C6.66466 7.30105 6.99977 7.33405 7.30431 7.4602C7.60886 7.58635 7.86915 7.79997 8.05229 8.07405C8.23542 8.34813 8.33317 8.67036 8.33317 9C8.33317 9.44203 8.15758 9.86595 7.84502 10.1785C7.53246 10.4911 7.10853 10.6667 6.66651 10.6667Z" fill="currentColor"/>
</svg>
