<svg width="16" height="16" viewBox="0 0 16 16" fill="none" xmlns="http://www.w3.org/2000/svg">
<path d="M11.784 4.92934C11.2247 4.31985 10.5188 3.8636 9.73334 3.60401L11.246 1.33334H4.75401L6.26667 3.60401C5.48124 3.8636 4.7753 4.31985 4.21601 4.92934C1.62867 7.70801 1.98534 13.1507 2.00001 13.3807L2.04601 14H13.954L14 13.3807C14.0147 13.1507 14.3713 7.70801 11.784 4.92934ZM7.69001 3.33334L7.24601 2.66668H8.75401L8.31001 3.33334H7.69001ZM3.31267 12.6667C3.30201 11.238 3.46067 7.69468 5.19401 5.83534C5.54956 5.44945 5.9845 5.14516 6.46889 4.94341C6.95329 4.74167 7.47564 4.64726 8.00001 4.66668C8.52437 4.64726 9.04672 4.74167 9.53112 4.94341C10.0155 5.14516 10.4504 5.44945 10.806 5.83534C12.5393 7.69468 12.698 11.2353 12.6873 12.6667H3.31267Z" fill="currentColor"/>
<path d="M8.66667 5.33334H7.33333V6.00001H6V9.33334H8.66667V10H6V11.3333H7.33333V12H8.66667V11.3333H10V8.00001H7.33333V7.33334H10V6.00001H8.66667V5.33334Z" fill="currentColor"/>
</svg>
