<svg width="16" height="16" viewBox="0 0 16 16" fill="none" xmlns="http://www.w3.org/2000/svg">
<path d="M4 6C4.39556 6 4.78224 5.8827 5.11114 5.66294C5.44004 5.44318 5.69638 5.13082 5.84776 4.76537C5.99913 4.39992 6.03874 3.99778 5.96157 3.60982C5.8844 3.22186 5.69392 2.86549 5.41421 2.58579C5.13451 2.30608 4.77814 2.1156 4.39018 2.03843C4.00222 1.96126 3.60009 2.00087 3.23463 2.15224C2.86918 2.30362 2.55682 2.55996 2.33706 2.88886C2.1173 3.21776 2 3.60444 2 4C2 4.53043 2.21071 5.03914 2.58579 5.41421C2.96086 5.78929 3.46957 6 4 6ZM4 3.33333C4.13185 3.33333 4.26075 3.37243 4.37038 3.44569C4.48001 3.51894 4.56546 3.62306 4.61592 3.74488C4.66638 3.8667 4.67958 4.00074 4.65386 4.13006C4.62813 4.25938 4.56464 4.37817 4.4714 4.47141C4.37817 4.56464 4.25938 4.62813 4.13006 4.65386C4.00074 4.67958 3.86669 4.66638 3.74488 4.61592C3.62306 4.56546 3.51894 4.48001 3.44569 4.37038C3.37243 4.26075 3.33333 4.13186 3.33333 4C3.33333 3.82319 3.40357 3.65362 3.5286 3.5286C3.65362 3.40357 3.82319 3.33333 4 3.33333Z" fill="currentColor"/>
<path d="M15.0327 12.6667L10.0001 4.758L6.48475 10.282L4.66675 7.42466L1.33341 12.6667H0.666748V14H15.3334V12.6667H15.0327ZM13.4521 12.6667H6.54808L10.0001 7.242L13.4521 12.6667ZM4.66675 9.90866L5.69475 11.524L4.96741 12.6667H2.91141L4.66675 9.90866Z" fill="currentColor"/>
</svg>
