<svg width="16" height="16" viewBox="0 0 16 16" fill="none" xmlns="http://www.w3.org/2000/svg">
<path d="M5.33333 4.66667V2.66667H10.6667V3.33334H12V2.66667C12 2.31305 11.8595 1.97391 11.6095 1.72386C11.3594 1.47381 11.0203 1.33334 10.6667 1.33334H5.33333C4.97971 1.33334 4.64057 1.47381 4.39052 1.72386C4.14048 1.97391 4 2.31305 4 2.66667V4.66667H2V14H14V4.66667H5.33333ZM12.6667 12.6667H3.33333V6H12.6667V12.6667Z" fill="currentColor"/>
<path d="M7.33342 9.81467V11.3333H8.66675V9.81467C8.92094 9.66791 9.1196 9.44138 9.23192 9.17021C9.34424 8.89904 9.36395 8.59839 9.28798 8.31488C9.21202 8.03137 9.04462 7.78084 8.81176 7.60217C8.5789 7.42349 8.29359 7.32664 8.00008 7.32664C7.70657 7.32664 7.42126 7.42349 7.1884 7.60217C6.95554 7.78084 6.78815 8.03137 6.71218 8.31488C6.63621 8.59839 6.65592 8.89904 6.76824 9.17021C6.88056 9.44138 7.07923 9.66791 7.33342 9.81467Z" fill="currentColor"/>
</svg>
