<svg width="16" height="16" viewBox="0 0 16 16" fill="none" xmlns="http://www.w3.org/2000/svg">
<path d="M11.3333 2.66668V1.33334H10V2.66668H6V1.33334H4.66667V2.66668H2V14H14V2.66668H11.3333ZM12.6667 12.6667H3.33333V4.00001H4.66667V5.33334H6V4.00001H10V5.33334H11.3333V4.00001H12.6667V12.6667Z" fill="currentColor"/>
<path d="M12.6667 12.6667H3.33333V4.00001H4.66667V5.33334H6V4.00001H10V5.33334H11.3333V4.00001H12.6667V12.6667Z" fill="currentColor"/>
<path d="M9.52881 6.1954L8.00014 7.72407L6.47147 6.1954L5.52881 7.13807L7.05748 8.66674L5.52881 10.1954L6.47147 11.1381L8.00014 9.6094L9.52881 11.1381L10.4715 10.1954L8.94281 8.66674L10.4715 7.13807L9.52881 6.1954Z" fill="white"/>
</svg>
