<svg width="16" height="16" viewBox="0 0 16 16" fill="none" xmlns="http://www.w3.org/2000/svg">
<path d="M13.3333 3.33334H2.66659C2.31296 3.33334 1.97382 3.47382 1.72378 3.72387C1.47373 3.97392 1.33325 4.31305 1.33325 4.66668V11.3333C1.33325 11.687 1.47373 12.0261 1.72378 12.2762C1.97382 12.5262 2.31296 12.6667 2.66659 12.6667H13.3333C13.6869 12.6667 14.026 12.5262 14.2761 12.2762C14.5261 12.0261 14.6666 11.687 14.6666 11.3333V4.66668C14.6666 4.31305 14.5261 3.97392 14.2761 3.72387C14.026 3.47382 13.6869 3.33334 13.3333 3.33334ZM13.3333 4.66668V6.00001H2.66659V4.66668H13.3333ZM2.66659 11.3333V7.33334H13.3333V11.3333H2.66659Z" fill="currentColor"/>
<path d="M6.66667 8.66669H4V10H6.66667V8.66669Z" fill="currentColor"/>
</svg>
